<?xml version="1.0" encoding="utf-8"?>
<!-- Generator: Adobe Illustrator 19.2.0, SVG Export Plug-In . SVG Version: 6.00 Build 0)  -->
<svg version="1.1" id="Слой_1" xmlns="http://www.w3.org/2000/svg" xmlns:xlink="http://www.w3.org/1999/xlink" x="0px" y="0px"
	 viewBox="0 0 276.3 292.5" style="enable-background:new 0 0 276.3 292.5;" xml:space="preserve">
<g>
	<path style="fill:rgb(24,162,75)" d="M116.7,128.9h129.7V35.5H116.7V128.9z M125.7,44.5h111.7v75.4H125.7V44.5z"/>
	<path style="fill:rgb(24,162,75)" d="M259.8,0H103.3c-9.1,0-16.5,7.4-16.5,16.5v13.3c-9.1,6.4-22.5,23.4-22.5,42v18.7C54,134.1,40.6,167.7,21.9,196.3
		C-9,243.5-0.5,267.4,7.3,277.5c6.5,8.4,16.9,13,28.1,13c4.5,0,9.2-0.8,13.8-2.3c14.9-5.1,24.1-17.6,24.1-32.5V96.2h13.5v196.3
		h189.5v-276C276.3,7.4,268.9,0,259.8,0z M64.3,255.6c0,11.1-6.7,20.1-18,24c-12,4.1-25.1,1-31.8-7.7c-10.8-13.9-5.3-39.7,15-70.7
		c14.3-21.9,25.7-46.6,34.9-76.2V255.6z M267.3,283.5H95.8v-267c0-4.1,3.4-7.5,7.5-7.5h156.5c4.1,0,7.5,3.4,7.5,7.5V283.5z"/>
</g>
</svg>
