<?xml version="1.0" encoding="utf-8"?>
<!-- Generator: Adobe Illustrator 19.2.0, SVG Export Plug-In . SVG Version: 6.00 Build 0)  -->
<svg version="1.1" id="Слой_1" xmlns="http://www.w3.org/2000/svg" xmlns:xlink="http://www.w3.org/1999/xlink" x="0px" y="0px"
	 viewBox="0 0 283.5 283.5" style="enable-background:new 0 0 283.5 283.5;" xml:space="preserve">
<g>
	<path style="fill:rgb(24,162,75)" d="M199.8,61.7c-6.8-6.1-15.1-10.9-24.7-14.3c-9.6-3.4-20.4-5.1-32.3-5.1H62.5v198.9h54.8v-64.4h25.5
		c11.8,0,22.6-1.5,32.1-4.6c9.6-3.1,18-7.5,24.7-13.2c6.8-5.8,12.2-12.8,15.8-20.8c3.6-8,5.5-17.1,5.5-26.9c0-9.9-1.8-19.1-5.5-27.5
		C211.9,75.3,206.6,67.9,199.8,61.7z M207.3,134.4c-3.1,6.8-7.6,12.8-13.4,17.7c-5.9,4.9-13.2,8.8-21.7,11.5
		c-8.6,2.8-18.5,4.2-29.4,4.2h-34.5v64.4H71.5V51.3h71.3c10.8,0,20.7,1.5,29.3,4.6c8.5,3,15.8,7.2,21.7,12.5
		c5.8,5.3,10.4,11.6,13.5,18.9c3.1,7.3,4.7,15.3,4.7,24C212,119.7,210.4,127.5,207.3,134.4z"/>
	<path style="fill:rgb(24,162,75)" d="M167,88.1c-2.6-3.2-6-5.8-10-7.7c-4-1.9-8.8-2.8-14.2-2.8h-34.5v63.8h34.5c5.3,0,10-0.7,13.9-2.2c4.1-1.5,7.5-3.6,10.1-6.4
		c2.7-2.7,4.7-6,6-9.8c1.2-3.6,1.8-7.5,1.8-11.6c0-4.3-0.6-8.5-1.8-12.4C171.6,95,169.6,91.3,167,88.1z M164.2,120.2
		c-0.8,2.5-2.1,4.6-3.8,6.4c-1.7,1.8-4,3.2-6.8,4.2c-2.9,1.1-6.5,1.6-10.8,1.6h-25.5V86.6h25.5c4.1,0,7.6,0.7,10.4,2
		c2.8,1.3,5.1,3,6.9,5.2c1.8,2.2,3.2,4.8,4.1,7.7c0.9,3.1,1.4,6.4,1.4,9.9C165.5,114.6,165.1,117.6,164.2,120.2z"/>
	<path style="fill:rgb(24,162,75)" d="M245,0H38.5C17.2,0,0,19.1,0,42.7v198c0,23.6,17.2,42.7,38.5,42.7H245c21.3,0,38.5-19.1,38.5-42.7v-198
		C283.5,19.1,266.2,0,245,0z M274.5,240.7c0,18.6-13.2,33.7-29.5,33.7H38.5C22.2,274.5,9,259.3,9,240.7v-198C9,24.1,22.2,9,38.5,9
		H245c16.3,0,29.5,15.1,29.5,33.7V240.7z"/>
</g>
</svg>
