<?xml version="1.0" encoding="utf-8"?>
<!-- Generator: Adobe Illustrator 19.2.0, SVG Export Plug-In . SVG Version: 6.00 Build 0)  -->
<svg version="1.1" id="Слой_1" xmlns="http://www.w3.org/2000/svg" xmlns:xlink="http://www.w3.org/1999/xlink" x="0px" y="0px"
	 viewBox="0 0 309.2 292.5" style="enable-background:new 0 0 309.2 292.5;" xml:space="preserve">
<style type="text/css">
	.st0{fill:#4CAF50";}
</style>
<path style="fill:#4CAF50" class="st0" d="M301,43c-0.5-1.4-1.7-2.4-3.1-2.8c-1.4-0.3-2.9,0.1-4,1.1l-23.8,22.9c-0.5,0.5-1.2,0.8-2,0.8
	c-0.4,0-1.2-0.1-1.8-0.7l-21.1-21.9c-0.4-0.5-0.7-1.1-0.7-1.7c0-0.7,0.3-1.5,0.9-2l23.7-22.9c1.1-1,1.5-2.5,1.3-4
	c-0.3-1.4-1.3-2.7-2.6-3.2c-19.3-7.9-39.9-4.4-53.8,9c-15.2,14.6-18.6,37.6-9.1,58L76.8,188.5c-19.2-9.6-41.5-7.4-56.4,6
	C6,207.4,1.1,227.7,7.6,247.5c0.5,1.4,1.6,2.5,3,2.9c1.4,0.4,2.9,0,4-1l24.5-22c1.1-1,2.8-1,3.7,0l20.3,22.6
	c0.6,0.6,0.6,1.4,0.6,1.8c-0.1,0.7-0.4,1.4-1,1.9l-24.5,22c-1.1,1-1.6,2.5-1.4,3.9c0.2,1.5,1.2,2.7,2.5,3.3c7.4,3.3,15,4.9,22.4,4.9
	c11.7,0,22.9-4.1,31.7-12c14.7-13.2,19.4-34.9,12.1-54.9l131-115.4c19,7.5,39.6,4,53.4-9.2C303.9,83.1,308.1,62.6,301,43z M284,90.2
	c-11.8,11.4-30,13.9-46.3,6.4c-1.6-0.7-3.4-0.4-4.7,0.7L97.6,216.6c-1.4,1.2-1.9,3.3-1.1,5c7.4,17.3,3.9,36.6-8.8,47.9
	c-10.1,9.1-24.3,12-38.2,8l19.1-17.2c2.3-2,3.6-4.8,3.8-7.8c0.2-3.1-0.8-6-2.8-8.2l-20.3-22.6c-4.1-4.6-11.4-4.9-16.1-0.7
	l-19.2,17.2c-2.5-14.2,1.9-28,12-37.1c12.8-11.5,32.5-12.9,49-3.4c1.6,0.9,3.6,0.7,5-0.5L213.2,79.9c1.5-1.3,1.9-3.6,1-5.3
	c-9.6-17.7-7.2-38,5.9-50.7c9.8-9.5,23.9-12.8,37.9-9.3l-18.5,17.9c-2.2,2.2-3.5,5-3.6,8.1c-0.1,3,1.1,5.8,3.1,7.9l21.1,21.9
	c2.1,2.2,4.9,3.4,8,3.4c0,0,0,0,0,0c3,0,5.9-1.2,8-3.3l18.5-17.9C297.7,66.8,293.8,80.7,284,90.2z"/>
</svg>
