<?xml version="1.0" encoding="utf-8"?>
<!-- Generator: Adobe Illustrator 19.2.0, SVG Export Plug-In . SVG Version: 6.00 Build 0)  -->
<svg version="1.1" id="Слой_1" xmlns="http://www.w3.org/2000/svg" xmlns:xlink="http://www.w3.org/1999/xlink" x="0px" y="0px"
	 viewBox="0 0 267.8 283.5" style="enable-background:new 0 0 267.8 283.5;" xml:space="preserve">
<g>
	<path d="M113.1,125h125.7V34.4H113.1V125z M121.9,43.1h108.3v73.1H121.9V43.1z"/>
	<path d="M251.8,0H100.2c-8.8,0-16,7.2-16,16v12.9c-8.9,6.2-21.9,22.7-21.9,40.7v18.1c-9.9,42.3-23,74.9-41.1,102.5
		C-8.7,236-0.5,259.2,7.1,268.9c6.3,8.1,16.4,12.6,27.2,12.6c4.4,0,8.9-0.7,13.4-2.3c14.4-4.9,23.4-17,23.4-31.5V93.2h13.1v174.3
		c0,8.8,7.2,16,16,16h151.7c8.8,0,16-7.2,16-16V16C267.8,7.2,260.7,0,251.8,0z M62.3,247.8c0,10.8-6.5,19.5-17.5,23.2
		c-11.7,4-24.3,0.9-30.8-7.4C3.5,250.1,8.8,225.1,28.5,195c13.9-21.2,24.9-45.2,33.8-73.9V247.8z M259.1,267.5c0,4-3.3,7.3-7.3,7.3
		H100.2c-4,0-7.3-3.3-7.3-7.3V16c0-4,3.3-7.3,7.3-7.3h151.7c4,0,7.3,3.3,7.3,7.3V267.5z"/>
</g>
</svg>
