<?xml version="1.0" encoding="utf-8"?>
<!-- Generator: Adobe Illustrator 19.2.0, SVG Export Plug-In . SVG Version: 6.00 Build 0)  -->
<svg version="1.1" id="Слой_1" xmlns="http://www.w3.org/2000/svg" xmlns:xlink="http://www.w3.org/1999/xlink" x="0px" y="0px"
	 viewBox="0 0 125.4 207.8" style="enable-background:new 0 0 125.4 207.8;" xml:space="preserve">
<path d="M62.7,105.2c28.9,0,52.3-23.4,52.3-52.3c0-28.9-23.4-52.3-52.3-52.3c-28.9,0-52.3,23.4-52.3,52.3
	C10.4,81.7,33.8,105.2,62.7,105.2z M62.7,27.1c14.2,0,25.7,11.5,25.7,25.7c0,14.2-11.5,25.7-25.7,25.7S36.9,67.1,36.9,52.8
	C36.9,38.6,48.5,27.1,62.7,27.1z M123,111.6c-3-5.9-11.1-10.9-22-2.3c-14.7,11.6-38.3,11.6-38.3,11.6s-23.6,0-38.3-11.6
	c-10.9-8.6-19.1-3.6-22,2.3c-5.2,10.3,0.7,15.3,13.8,23.8c11.2,7.2,26.6,9.9,36.6,10.9l-8.3,8.3c-11.7,11.7-23,23-30.8,30.8
	c-4.7,4.7-4.7,12.3,0,17l1.4,1.4c4.7,4.7,12.3,4.7,17,0l30.8-30.8c11.7,11.7,23,23,30.8,30.8c4.7,4.7,12.3,4.7,17,0l1.4-1.4
	c4.7-4.7,4.7-12.3,0-17l-30.8-30.8l-8.3-8.3c10-1,25.2-3.7,36.3-10.9C122.3,126.9,128.2,121.9,123,111.6z"/>
</svg>
