<?xml version="1.0" encoding="utf-8"?>
<!-- Generator: Adobe Illustrator 19.2.0, SVG Export Plug-In . SVG Version: 6.00 Build 0)  -->
<svg version="1.1" id="Слой_1" xmlns="http://www.w3.org/2000/svg" xmlns:xlink="http://www.w3.org/1999/xlink" x="0px" y="0px"
	 viewBox="0 0 1701.9 298.8" style="enable-background:new 0 0 1701.9 298.8;" xml:space="preserve">
<style type="text/css">
	.st0{fill:#0D0F0F;}
</style>
<g>
	<path class="st0" d="M1701.9,42.5c-25.9,0-47.7,10.6-68.5,33.1c-20.4,22.1-37,52-54.5,83.7c-18,32.5-36.6,66.1-60.5,91.9
		c-29.1,31.5-61.7,46.8-99.7,46.8c-0.1,0-0.1,0-0.2,0c-0.2,0-0.3,0-0.4,0c-0.1,0-0.2,0-0.4,0c-0.1,0-0.1,0-0.2,0
		c-38,0-70.6-15.2-99.7-46.6c-23.9-25.8-42.6-59.3-60.7-91.8c-17.6-31.6-34.3-61.5-54.7-83.5c-20.8-22.4-42.4-32.8-68-33
		c-25.7,0.1-47.4,10.7-68.1,33.1c-20.4,22.1-37,52-54.5,83.7c-18,32.5-36.6,66.1-60.5,91.9c-29.1,31.5-61.7,46.8-99.7,46.8v0
		c-0.3,0-0.7,0-1,0l-0.1-42.5c25.9,0,47.7-10.6,68.5-33.1c20.4-22.1,37-52,54.5-83.7c18-32.5,36.6-66.1,60.5-91.9
		c29.1-31.5,61.7-46.8,99.7-46.8c0.1,0,0.1,0,0.2,0c0.1,0,0.3,0,0.4,0c0.1,0,0.3,0,0.4,0c0.1,0,0.1,0,0.2,0
		c38,0,70.6,15.2,99.7,46.6c23.9,25.8,42.6,59.3,60.7,91.8c17.6,31.6,34.3,61.5,54.7,83.5c20.8,22.4,42.4,32.8,68,33
		c25.7-0.1,47.4-10.7,68.1-33.1c20.4-22.1,37-52,54.5-83.7c18-32.5,36.6-66.1,60.5-91.9c29.1-31.5,61.7-46.8,99.7-46.8v0
		c0.3,0,0.7,0,1,0L1701.9,42.5z"/>
	<path class="st0" d="M750.7,252c-23.9-25.8-42.5-59.4-60.5-91.9c-17.5-31.7-34.1-61.6-54.5-83.7c-20.9-22.6-42.6-33.1-68.5-33.1
		c0,0-0.1,0-0.1,0c-25.9,0-47.6,10.5-68.5,33c-20.4,22-37.1,51.9-54.7,83.5c-18.1,32.4-36.8,66-60.7,91.8
		c-29.1,31.3-61.7,46.6-99.7,46.6c-0.1,0-0.1,0-0.2,0c-38.1,0-70.7-15.4-99.7-46.8c-23.9-25.8-42.5-59.4-60.5-91.9
		c-17.5-31.7-34.1-61.6-54.5-83.7C47.7,53.1,25.9,42.6,0,42.5L0.1,0c38.1,0,70.7,15.4,99.7,46.8c23.9,25.8,42.5,59.4,60.5,91.9
		c17.5,31.7,34.1,61.6,54.5,83.7c20.9,22.6,42.6,33.1,68.5,33.1c0,0,0.1,0,0.1,0c25.9,0,47.6-10.5,68.5-33
		c20.4-22,37.1-51.9,54.7-83.5c18.1-32.4,36.8-66,60.7-91.8C496.5,15.9,529.1,0.7,567,0.7c0.1,0,0.1,0,0.2,0
		c38.1,0,70.7,15.4,99.7,46.8c23.9,25.8,42.5,59.4,60.5,91.9c17.5,31.7,34.1,61.6,54.5,83.7c20.9,22.6,42.6,33.1,68.5,33.1
		l-0.1,42.5C812.3,298.8,779.7,283.4,750.7,252z"/>
</g>
</svg>
