<svg id="Слой_6" data-name="Слой 6" xmlns="http://www.w3.org/2000/svg" viewBox="0 0 27 27"><defs><style>.cls-1{fill:#595b5b;}.cls-2{fill:#c2c2c2;}.cls-3{fill:#484848;}</style></defs><title>Чудокнопки</title><rect class="cls-1" x="3.5" y="6.5" width="9" height="13"/><path class="cls-2" d="M12,7V19H4V7h8m1-1H3V20H13V6h0Z"/><rect class="cls-1" x="6.5" y="9.5" width="9" height="13"/><path class="cls-2" d="M15,10V22H7V10h8m1-1H6V23H16V9h0Z"/><polygon class="cls-2" points="15.74 12.03 13.13 14.89 9.43 11.58 12.3 8.76 8.81 5.58 12.28 2.6 15.55 5.93 18.35 2.88 21.58 5.91 18.76 8.98 21.82 11.94 18.96 15.16 15.74 12.03"/><path class="cls-3" d="M12.25,3.28l3.31,3.38,2.81-3.06,2.5,2.34L18.06,9l3.06,3-2.19,2.47-3.22-3.12-2.62,2.88-2.94-2.62L13,8.75,9.56,5.59l2.69-2.31m0.06-1.37-0.71.61L8.91,4.84l-0.86.74L8.89,6.33l2.68,2.44L9.46,10.85l-0.76.75,0.8,0.71,2.94,2.63,0.74,0.66,0.67-.73,1.93-2.11,2.48,2.41L19,15.88l0.69-.78,2.19-2.47,0.63-.72-0.69-.67L19.46,9l2.15-2.35,0.67-.73-0.72-.68-2.5-2.34-0.74-.69-0.68.74L15.54,5.2,13,2.58l-0.66-.67h0Z"/></svg>