<svg id="Слой_3" data-name="Слой 3" xmlns="http://www.w3.org/2000/svg" viewBox="0 0 27 27"><defs><style>.cls-1,.cls-3{fill:#c2c2c2;}.cls-2{fill:#484848;}.cls-3{stroke:#484848;stroke-miterlimit:10;}</style></defs><title>Чудокнопки</title><rect class="cls-1" x="5" y="7" width="8" height="11"/><rect class="cls-1" x="7.5" y="9.5" width="9" height="13"/><path class="cls-2" d="M16,10V22H8V10h8m1-1H7V23H17V9h0Z"/><path class="cls-3" d="M10.61,17.85c-0.25-.25.58-3.44,1.91-4.76l7.62-7.62L23,8.32l-7.62,7.62C14.26,17.06,11.24,18.47,10.61,17.85Z"/><rect class="cls-1" x="22" y="4.64" width="1.35" height="3.03" transform="translate(2.29 17.83) rotate(-45)"/><polygon class="cls-1" points="8 10 13 10 13 7 5 7 5 18 8 18 8 10"/><rect class="cls-1" x="8" y="10" width="8" height="12"/><path class="cls-2" d="M16,10V22H8V10h8m1-1H7V23H17V9h0Z"/><path class="cls-1" d="M10.61,17.85c-0.25-.25.58-3.44,1.91-4.76l7.62-7.62L23,8.32l-7.62,7.62C14.26,17.06,11.24,18.47,10.61,17.85Z"/><path class="cls-2" d="M11.13,18.49a1.19,1.19,0,0,1-.87-0.29h0c-0.66-.66.73-4.3,1.91-5.47l8-8,3.57,3.57-8,8A8.73,8.73,0,0,1,11.13,18.49Zm-0.06-1A8,8,0,0,0,15,15.59l7.27-7.27L20.14,6.17l-7.27,7.27A8.75,8.75,0,0,0,11.07,17.51Zm-0.13,0"/><rect class="cls-1" x="22" y="4.64" width="1.35" height="3.03" transform="translate(2.29 17.83) rotate(-45)"/></svg>