<?xml version="1.0" encoding="utf-8"?>
<!-- Generator: Adobe Illustrator 19.2.0, SVG Export Plug-In . SVG Version: 6.00 Build 0)  -->
<svg version="1.1" xmlns="http://www.w3.org/2000/svg" xmlns:xlink="http://www.w3.org/1999/xlink" x="0px" y="0px"
	 viewBox="0 0 141.7 141.7" style="enable-background:new 0 0 141.7 141.7;" xml:space="preserve">
<style type="text/css">
	.st0{display:none;}
	.st1{display:inline;fill:#ED1C24;}
</style>
<g id="Слой_7">
	<path d="M70.9,0C32.4,0,1.2,30.6,0.1,68.7H0v73h30h15h28v-0.1c38.1-1.1,68.7-32.4,68.7-70.8C141.7,31.7,110,0,70.9,0z M110.9,109.8
		c-10.2,10.5-23.8,16.5-38.4,16.9l-1.6,0H45v-15V99.5h25.7l0.1,0v-15h-0.3H45V71.2l0-1.1c0.2-6.7,3-13,7.8-17.7
		c4.8-4.7,11.2-7.3,18-7.3c7.1,0,13.6,2.9,18.3,7.6L99.7,42c-7.4-7.4-17.6-12-28.9-12c-10.7,0-20.8,4.1-28.5,11.6
		C34.7,49,30.4,59,30,69.6l0,1.4v16.3v24.4v15H15v-56l0-1.6c0.4-14.6,6.4-28.2,16.9-38.4C42.4,20.6,56.2,15,70.9,15
		c30.8,0,55.9,25.1,55.9,55.9C126.7,85.5,121.1,99.3,110.9,109.8z"/>
</g>
<g id="Слой_5__x28_копия_x29_" class="st0">
	<circle class="st1" cx="70.9" cy="70.9" r="70.9"/>
</g>
</svg>
