<?xml version="1.0" encoding="utf-8"?>
<!-- Generator: Adobe Illustrator 23.0.3, SVG Export Plug-In . SVG Version: 6.00 Build 0)  -->
<svg version="1.1" id="Слой_1" xmlns="http://www.w3.org/2000/svg" xmlns:xlink="http://www.w3.org/1999/xlink" x="0px" y="0px"
	 viewBox="0 0 300.1 185.4" style="enable-background:new 0 0 300.1 185.4;" xml:space="preserve">
<style type="text/css">
	.st0{fill:#F26122;}
	.st1{fill:#EA1D25;}
	.st2{fill:#F69E1F;}
</style>
<g id="Layer_2">
	<g id="Layer_1-2">
		<g id="_Group_">
			<rect x="109.5" y="19.8" class="st0" width="81.1" height="145.8"/>
			<path id="_Path_" class="st1" d="M114.7,92.7c0-28.5,13-55.3,35.4-72.9C109.8-11.8,51.6-4.9,19.9,35.4s-24.7,98.5,15.6,130.1
				c33.6,26.4,80.9,26.4,114.6,0C127.7,148,114.6,121.1,114.7,92.7z"/>
			<path class="st2" d="M300.1,92.7c0,51.2-41.5,92.7-92.7,92.7c-20.8,0-41-7-57.3-19.8c40.3-31.6,47.2-89.9,15.6-130.2
				c-4.6-5.8-9.8-11-15.6-15.6c40.3-31.6,98.5-24.7,130.2,15.6C293.1,51.7,300.1,71.9,300.1,92.7L300.1,92.7z"/>
		</g>
	</g>
</g>
</svg>
