<?xml version="1.0" encoding="utf-8"?>
<!-- Generator: Adobe Illustrator 19.2.0, SVG Export Plug-In . SVG Version: 6.00 Build 0)  -->
<svg version="1.1"
	 id="Layer_1" inkscape:version="0.91 r13725" sodipodi:docname="Visa_2006.svg" xmlns:cc="http://creativecommons.org/ns#" xmlns:dc="http://purl.org/dc/elements/1.1/" xmlns:inkscape="http://www.inkscape.org/namespaces/inkscape" xmlns:rdf="http://www.w3.org/1999/02/22-rdf-syntax-ns#" xmlns:sodipodi="http://sodipodi.sourceforge.net/DTD/sodipodi-0.dtd" xmlns:svg="http://www.w3.org/2000/svg"
	 xmlns="http://www.w3.org/2000/svg" xmlns:xlink="http://www.w3.org/1999/xlink" x="0px" y="0px" viewBox="0 0 400 250"
	 style="enable-background:new 0 0 400 250;" xml:space="preserve">
<style type="text/css">
	.st0{fill:#00579F;}
	.st1{fill:#FAA61A;}
</style>
<sodipodi:namedview  bordercolor="#666666" borderopacity="1" gridtolerance="10" guidetolerance="10" id="namedview19" inkscape:current-layer="Layer_1" inkscape:cx="34.690897" inkscape:cy="131.15483" inkscape:pageopacity="0" inkscape:pageshadow="2" inkscape:window-height="705" inkscape:window-maximized="1" inkscape:window-width="1366" inkscape:window-x="-8" inkscape:window-y="-8" inkscape:zoom="0.35355339" objecttolerance="10" pagecolor="#ffffff" showgrid="false">
	</sodipodi:namedview>
<g id="g4158" transform="matrix(4.4299631,0,0,4.4299631,-81.165783,-105.04783)">
	<polygon id="polygon9" class="st0" points="57.9,65.1 51.1,65.1 55.4,38.9 62.1,38.9 	"/>
	<path id="path11" inkscape:connector-curvature="0" class="st0" d="M82.4,39.5c-1.3-0.5-3.5-1.1-6.1-1.1c-6.7,0-11.4,3.6-11.4,8.7
		c-0.1,3.8,3.4,5.8,5.9,7.1c2.6,1.3,3.5,2.1,3.5,3.3c0,1.8-2.1,2.6-4.1,2.6c-2.7,0-4.1-0.4-6.3-1.4l-0.9-0.4l-0.9,5.9
		c1.6,0.7,4.5,1.4,7.5,1.4c7.1,0,11.7-3.5,11.8-8.9c0-3-1.8-5.3-5.7-7.1c-2.4-1.2-3.8-2-3.8-3.2c0-1.1,1.2-2.3,3.9-2.3
		c2.2-0.1,3.8,0.5,5,1l0.6,0.3L82.4,39.5C82.4,39.5,82.4,39.5,82.4,39.5z"/>
	<path id="path13" inkscape:connector-curvature="0" class="st0" d="M91.4,55.8c0.6-1.5,2.7-7.3,2.7-7.3c0,0.1,0.6-1.5,0.9-2.5
		l0.5,2.3c0,0,1.3,6.3,1.6,7.6C96,55.8,92.8,55.8,91.4,55.8L91.4,55.8z M99.8,38.9h-5.2c-1.6,0-2.8,0.5-3.5,2.2l-10,24h7.1
		c0,0,1.2-3.2,1.4-3.9c0.8,0,7.7,0,8.7,0c0.2,0.9,0.8,3.9,0.8,3.9h6.3L99.8,38.9L99.8,38.9L99.8,38.9z"/>
	<path id="path15" inkscape:connector-curvature="0" class="st0" d="M45.5,38.9l-6.6,17.8l-0.7-3.6c-1.2-4.2-5.1-8.7-9.4-11L34.8,65
		H42l10.6-26.1L45.5,38.9L45.5,38.9L45.5,38.9z"/>
	<path id="path17" inkscape:connector-curvature="0" class="st1" d="M32.7,38.9H21.8l-0.1,0.5c8.5,2.2,14.1,7.4,16.4,13.7l-2.4-12
		C35.4,39.4,34.2,38.9,32.7,38.9L32.7,38.9z"/>
</g>
</svg>
