<?xml version="1.0" encoding="utf-8"?>
<!-- Generator: Adobe Illustrator 23.0.3, SVG Export Plug-In . SVG Version: 6.00 Build 0)  -->
<svg version="1.1"
	 id="Layer_1" inkscape:version="0.91 r13725" sodipodi:docname="Visa_2006.svg" xmlns:cc="http://creativecommons.org/ns#" xmlns:dc="http://purl.org/dc/elements/1.1/" xmlns:inkscape="http://www.inkscape.org/namespaces/inkscape" xmlns:rdf="http://www.w3.org/1999/02/22-rdf-syntax-ns#" xmlns:sodipodi="http://sodipodi.sourceforge.net/DTD/sodipodi-0.dtd" xmlns:svg="http://www.w3.org/2000/svg"
	 xmlns="http://www.w3.org/2000/svg" xmlns:xlink="http://www.w3.org/1999/xlink" x="0px" y="0px" viewBox="0 0 463.5 150.6"
	 style="enable-background:new 0 0 463.5 150.6;" xml:space="preserve">
<style type="text/css">
	.st0{fill:#00579F;}
	.st1{fill:#FAA61A;}
</style>
<sodipodi:namedview  bordercolor="#666666" borderopacity="1" gridtolerance="10" guidetolerance="10" id="namedview19" inkscape:current-layer="Layer_1" inkscape:cx="34.690897" inkscape:cy="131.15483" inkscape:pageopacity="0" inkscape:pageshadow="2" inkscape:window-height="705" inkscape:window-maximized="1" inkscape:window-width="1366" inkscape:window-x="-8" inkscape:window-y="-8" inkscape:zoom="0.35355339" objecttolerance="10" pagecolor="#ffffff" showgrid="false">
	</sodipodi:namedview>
<g id="g4158" transform="matrix(4.4299631,0,0,4.4299631,-81.165783,-105.04783)">
	<polygon id="polygon9" class="st0" points="63.6,57.1 55.1,57.1 60.4,24.3 68.8,24.3 	"/>
	<path id="path11" inkscape:connector-curvature="0" class="st0" d="M94.2,25.1c-1.6-0.6-4.4-1.4-7.6-1.4c-8.4,0-14.2,4.5-14.2,10.9
		c-0.1,4.8,4.2,7.2,7.4,8.9c3.2,1.6,4.4,2.6,4.4,4.1c0,2.2-2.6,3.2-5.1,3.2c-3.4,0-5.1-0.5-7.9-1.8l-1.1-0.5L68.8,56
		c2,0.9,5.6,1.8,9.4,1.8c8.9,0,14.6-4.4,14.8-11.1c0-3.8-2.2-6.6-7.1-8.9c-3-1.5-4.8-2.5-4.8-4c0-1.4,1.5-2.9,4.9-2.9
		c2.8-0.1,4.8,0.6,6.3,1.3l0.7,0.4L94.2,25.1L94.2,25.1z"/>
	<path id="path13" inkscape:connector-curvature="0" class="st0" d="M105.4,45.5c0.8-1.9,3.4-9.1,3.4-9.1c0,0.1,0.7-1.9,1.1-3.1
		l0.6,2.9c0,0,1.6,7.9,2,9.5C111.2,45.5,107.2,45.5,105.4,45.5L105.4,45.5z M115.9,24.3h-6.5c-2,0-3.5,0.6-4.4,2.8l-12.5,30h8.9
		c0,0,1.5-4,1.8-4.9c1,0,9.6,0,10.9,0c0.2,1.1,1,4.9,1,4.9h7.9L115.9,24.3L115.9,24.3L115.9,24.3z"/>
	<path id="path15" inkscape:connector-curvature="0" class="st0" d="M48.1,24.3l-8.2,22.2l-0.9-4.5c-1.5-5.2-6.4-10.9-11.7-13.8
		L34.7,57h9l13.2-32.6H48.1L48.1,24.3L48.1,24.3z"/>
	<path id="path17" inkscape:connector-curvature="0" class="st1" d="M32.1,24.3H18.4L18.3,25c10.6,2.8,17.6,9.3,20.5,17.1l-3-15
		C35.4,25,33.9,24.3,32.1,24.3L32.1,24.3z"/>
</g>
</svg>
