<?xml version="1.0" encoding="utf-8"?>
<!-- Generator: Adobe Illustrator 23.0.5, SVG Export Plug-In . SVG Version: 6.00 Build 0)  -->
<svg version="1.1" id="Слой_1" xmlns="http://www.w3.org/2000/svg" xmlns:xlink="http://www.w3.org/1999/xlink" x="0px" y="0px"
	 viewBox="0 0 512 512" style="enable-background:new 0 0 512 512;" xml:space="preserve">
<style type="text/css">
	.st0{fill:#FFC107;}
</style>
<g id="Out_line">
	<path class="st0" d="M456,320h-8c5.2-6.9,8-15.3,8-24v-80c0-8.7-2.8-17.1-8-24h0c22.1,0,40-17.9,40-40V72c0-22.1-17.9-40-40-40H200
		c-22.1,0-40,17.9-40,40v56h16v-24h296v16H208v16h264v16c0,11.2-7.8,21-18.8,23.4l9.9-19.8l-14.3-7.2L435.1,176h-14.1l10.2-20.4
		l-14.3-7.2L403.1,176h-14.1l10.2-20.4l-14.3-7.2L371.1,176h-14.1l10.2-20.4l-14.3-7.2L339.1,176H320v16h19.1l13.8,27.6l14.3-7.2
		L356.9,192h14.1l13.8,27.6l14.3-7.2L388.9,192h14.1l13.8,27.6l14.3-7.2l-9.9-19.8c11,2.5,18.7,12.2,18.8,23.4v16h-88v16h88v16h-72
		v16h72v16c0,11.2-7.8,21-18.8,23.4l9.9-19.8l-14.3-7.2L403.1,320h-14.1l10.2-20.4l-14.3-7.2L371.1,320H368v16h11.1l13.8,27.6
		l14.3-7.2L396.9,336h14.1l13.8,27.6l14.3-7.2L428.9,336h14.1l13.8,27.6l14.3-7.2l-9.9-19.8c11,2.5,18.7,12.2,18.8,23.4v16H352v16
		h128v16H336v16h144v16c0,11.2-7.8,21-18.8,23.4l9.9-19.8l-14.3-7.2L443.1,464h-14.1l10.2-20.4l-14.3-7.2L411.1,464h-14.1l10.2-20.4
		l-14.3-7.2L379.1,464h-14.1l10.2-20.4l-14.3-7.2L347.1,464h-14.1l10.2-20.4l-14.3-7.2L315.1,464H280v16h176c22.1,0,40-17.9,40-40
		v-80C496,337.9,478.1,320,456,320z M176,88V72c0-6.2,2.4-12.2,6.7-16.6l10.1,20.2l14.3-7.2L197,48.2c1-0.1,2-0.2,3-0.2h11.1
		l13.8,27.6l14.3-7.2L228.9,48h14.1l13.8,27.6l14.3-7.2L260.9,48h14.1l13.8,27.6l14.3-7.2L292.9,48h14.1l13.8,27.6l14.3-7.2
		L324.9,48h14.1l13.8,27.6l14.3-7.2L356.9,48h14.1l13.8,27.6l14.3-7.2L388.9,48h14.1l13.8,27.6l14.3-7.2L420.9,48h14.1l13.8,27.6
		l14.3-7.2l-9.9-19.8C464.2,51,472,60.8,472,72v16H176z"/>
	<path class="st0" d="M352,312c0-92.6-75.4-168-168-168S16,219.4,16,312s75.4,168,168,168S352,404.6,352,312z M285.8,402.5
		l-11.3,11.3l11.1,11.1c-5.9,5.3-12.2,10.1-18.8,14.5l-7.9-13.6l-13.9,8l7.9,13.7c-7.1,3.6-14.4,6.7-21.9,9.1l-4.1-15.3l-15.5,4.1
		l4.1,15.3c-7.8,1.6-15.6,2.7-23.6,3.1V448h-16v15.8c-7.9-0.4-15.8-1.4-23.6-3.1l4.1-15.3l-15.5-4.1l-4.1,15.3
		c-7.5-2.5-14.9-5.5-21.9-9.1l7.9-13.7l-13.9-8l-7.9,13.6c-6.6-4.3-12.9-9.2-18.8-14.5l11.1-11.1l-11.3-11.3l-11.1,11.1
		c-5.3-5.9-10.1-12.2-14.5-18.8l13.6-7.9l-8-13.9L48.6,381c-3.6-7.1-6.7-14.4-9.1-21.9l15.3-4.1l-4.1-15.5l-15.3,4.1
		c-1.6-7.8-2.7-15.6-3.1-23.6H48v-16H32.2c0.4-7.9,1.4-15.8,3.1-23.6l15.3,4.1l4.1-15.5L39.5,265c2.5-7.5,5.5-14.9,9.1-21.9
		l13.7,7.9l8-13.9l-13.6-7.9c4.3-6.6,9.2-12.9,14.5-18.8l11.1,11.1l11.3-11.3l-11.1-11.1c5.9-5.3,12.2-10.1,18.8-14.5l7.9,13.6
		l13.9-8l-7.9-13.7c7.1-3.6,14.4-6.7,21.9-9.1l4.1,15.3l15.5-4.1l-4.1-15.3c7.8-1.6,15.6-2.7,23.6-3.1V176h16v-15.8
		c7.9,0.4,15.8,1.4,23.6,3.1l-4.1,15.3l15.5,4.1l4.1-15.3c7.5,2.5,14.9,5.5,21.9,9.1l-7.9,13.7l13.9,8l7.9-13.6
		c6.6,4.3,12.9,9.2,18.8,14.5l-11.1,11.1l11.3,11.3l11.1-11.1c5.3,5.9,10.1,12.2,14.5,18.8l-13.6,7.9l8,13.9l13.7-7.9
		c3.6,7.1,6.7,14.4,9.1,21.9l-15.3,4.1l4.1,15.5l15.3-4.1c1.6,7.8,2.7,15.6,3.1,23.6H320v16h15.8c-0.4,7.9-1.4,15.8-3.1,23.6
		l-15.3-4.1l-4.1,15.5l15.3,4.1c-2.5,7.5-5.5,14.9-9.1,21.9l-13.7-7.9l-8,13.9l13.6,7.9c-4.3,6.6-9.2,12.9-14.5,18.8L285.8,402.5z"
		/>
	<path class="st0" d="M272,312c0-48.6-39.4-88-88-88s-88,39.4-88,88s39.4,88,88,88C232.6,399.9,271.9,360.6,272,312z M222.1,324.4
		c10.5-5.6,22-8.8,33.8-9.6c-0.5,13.3-4.7,26.2-12.1,37.2C234.7,344.4,227.3,335,222.1,324.4z M240.5,267.5
		c-10,6.3-21.3,10.5-33,12.1c-2-11.7-1.6-23.7,1.3-35.2C221.4,249.1,232.3,257,240.5,267.5z M193.3,240.6
		c-4.1,16.3-4.1,33.4,0.2,49.6c0.9,3.5,4.1,6,7.7,6c0.2,0,0.3,0,0.5,0c16.8-1,33.1-6.2,47.3-15.2c2.7,5.6,4.6,11.6,5.8,17.8
		c-16.8,1.1-33,6.4-47.2,15.5c-3.2,2.1-4.5,6.1-3.1,9.7c6.1,15.6,16.1,29.5,29,40.2c-4.5,4.3-9.6,8-15.1,11
		c-6.2-15.6-16.3-29.4-29.3-40.1c-3-2.4-7.2-2.4-10.2,0c-13,10.7-23.1,24.5-29.3,40.1c-5.5-3-10.6-6.7-15.1-11
		c12.9-10.8,22.9-24.6,29-40.2c1.4-3.6,0.1-7.6-3.1-9.7c-14.2-9.1-30.4-14.4-47.2-15.5c1.1-6.2,3.1-12.1,5.8-17.8
		c14.2,9,30.5,14.2,47.3,15.2c0.2,0,0.3,0,0.5,0c3.6,0,6.8-2.5,7.7-6c4.2-16.3,4.3-33.4,0.1-49.6
		C180.8,239.8,187.1,239.8,193.3,240.6L193.3,240.6z M124.2,352c-7.4-11-11.6-23.9-12.1-37.2c11.8,0.8,23.4,4,33.8,9.6
		C140.7,335,133.3,344.4,124.2,352z M159.1,244.4c2.9,11.5,3.4,23.5,1.3,35.2c-11.7-1.7-23-5.8-33-12.1
		C135.7,257,146.6,249.1,159.1,244.4z M164.4,381.3c4.4-11,11-21,19.6-29.2c8.5,8.2,15.2,18.2,19.6,29.2
		C190.8,384.9,177.2,384.9,164.4,381.3L164.4,381.3z"/>
	<circle class="st0" cx="184" cy="312" r="8"/>
	<path class="st0" d="M90.4,357.4l-14.4,7c20.1,41.3,62,67.6,108,67.6v-16C144.2,416,107.8,393.3,90.4,357.4z"/>
	<path class="st0" d="M277.6,266.6l14.4-7c-20.1-41.3-62-67.6-108-67.6v16C223.8,208,260.2,230.7,277.6,266.6z"/>
	<path class="st0" d="M96.3,256.1c10.4-16.2,25-29.3,42.3-37.7l-7-14.4C90.2,224.1,64,266,64,312h16C80,292.2,85.6,272.8,96.3,256.1
		z"/>
	<path class="st0" d="M288,312c0,39.8-22.7,76.2-58.6,93.6l7,14.4c41.3-20.1,67.6-62,67.6-108H288z"/>
</g>
</svg>
