<?xml version="1.0" encoding="utf-8"?>
<!-- Generator: Adobe Illustrator 23.0.5, SVG Export Plug-In . SVG Version: 6.00 Build 0)  -->
<svg version="1.1" id="Capa_1" xmlns="http://www.w3.org/2000/svg" xmlns:xlink="http://www.w3.org/1999/xlink" x="0px" y="0px"
	 viewBox="0 0 512 512" style="enable-background:new 0 0 512 512;" xml:space="preserve">
<style type="text/css">
	.st0{fill:#FFC107;}
</style>
<path class="st0" d="M463.4,180.9c-1.1-3.7-4.8-6.2-8.6-5.5c-4.6,0.8-7.3,5.4-6,9.7c4.2,13.7,6.9,27.8,8.1,42.2
	c-23.8-25.4-64.5-24.8-87.5,1.6c-1-29.4-7-77.3-32.4-122.4c-2.1-3.7-6.9-5-10.6-2.8c-3.5,2.1-4.6,6.8-2.6,10.4
	c24,42.8,29.6,88.5,30.4,116.2c-23.3-28.6-66.9-29-90.7-0.8V48.6c16.8,11.3,31.6,25,43.9,40.7c2.5,3.3,7.3,4.1,10.6,1.7
	c3.5-2.5,4.2-7.4,1.5-10.8c-10.4-13.4-22.5-25.4-35.9-35.8c70.1,9.6,126.7,54.7,154.6,113.4c1.8,3.8,6.3,5.4,10.1,3.6
	c3.8-1.8,5.4-6.3,3.6-10.1C418.7,81.1,348.1,30.4,263.6,27.5V7.9c0-4.2-3.2-7.8-7.4-7.9c-4.3-0.1-7.8,3.3-7.8,7.6v19.9
	C132.4,31.5,39.2,128,39.2,245.7v7.9c0,9.9,14.1,11.8,16.8,2.3c4-14.4,15.3-26,29.6-30.3c3.8-1.1,6.2-5,5.4-8.9
	c-0.9-4.4-5.4-6.9-9.6-5.7c-10,3-19,8.7-26.1,16.2c8.5-94,81-169.9,173.1-182.8c-38.7,30.1-65.4,73.2-78,126.1
	c-5.3,22.5-7.3,42.9-7.8,58.3c-7-8.1-16.2-14.2-26.6-17.5c-3.7-1.2-7.8,0.4-9.4,4c-2,4.3,0.3,9.1,4.6,10.5
	c14.3,4.4,25.6,16.2,29.4,30.7c2.7,10.5,17.8,10.6,20.6,0c5-19.3,22.4-32.7,42.3-32.7c19.3,0,37,12.7,42.4,32.8
	c3.6,13.5,2.7,9,2.7,114.4c-10.3,3.2-17.7,12.8-17.7,24.1v53.8c0,6.3-4.7,11.9-11,12.5c-7.2,0.7-13.3-5-13.3-12.1v-7.5
	c0-14.2-11.6-26.1-25.7-25.9c-13.8,0.2-24.9,11.5-24.9,25.3v7.1c0,34.4,27.4,63.2,61.8,63.7c35.1,0.5,63.8-27.8,63.8-62.8v-54.2
	c0-11.3-7.5-20.9-17.7-24.1v-96.1c0-32.3,21.3-51,45-51c19.9,0,37.3,13.4,42.3,32.7c2.7,10.6,17.9,10.5,20.6,0
	c5-19.3,22.4-32.7,42.3-32.7c20.1,0,37.5,13.6,42.4,33c2.5,9.5,16.5,7.7,16.5-2.1C472.8,240.4,473.7,214.6,463.4,180.9L463.4,180.9z
	 M248.4,229.5c-23.8-28.2-67.3-27.8-90.7,0.7c0.4-14.8,2.2-34.8,7.5-56.7c13.1-54.8,41.1-96.8,83.2-124.9L248.4,229.5L248.4,229.5z
	 M266.1,395.1v54.2c0,26.2-21.3,47.6-47.6,47.6s-47.6-21.3-47.6-47.6v-8.1c0-5.6,4.5-10.1,10.1-10.1s10.1,4.5,10.1,10.1v8.1
	c0,15.1,12.3,27.3,27.3,27.3c15.1,0,27.3-12.3,27.3-27.3v-54.2c0-5.6,4.5-10.1,10.1-10.1S266.1,389.5,266.1,395.1z"/>
</svg>
