<svg width="636" height="204" viewBox="0 0 636 204" xmlns="http://www.w3.org/2000/svg"><title>airgas-black</title><path d="M189.58 184.4l-.204-156.622 37.065.08s.53 10.643 1.264 9.515c8.94-13.516 28.622-12.918 28.622-12.918v33s-26.282-2.314-26.27 17.594V184.4H189.58zM544.936 77.042c-.996-10.015.42-21.7-10.5-21.336-7.683.263-12.24 3.336-12.24 12.037 0 7.91 6.536 9.838 12.41 14.466 22.29 17.584 52.074 23.97 51.913 55.45-.183 32.95-23.567 46.127-52.58 46.915-40.535 1.106-53.072-24.15-51.58-59.728h37.696c-.496 10.283-1.572 31.34 14.135 32.056 8.42.385 11.988-3.62 11.988-13.1 0-4.486-2.31-8.898-5.786-12.407-12.825-12.957-25.625-17.365-41.01-30.093-8.126-6.735-16.522-16.87-16.522-27.673 0-31.88 23.8-45.588 51.33-45.588 28.763 0 47.124 12.63 47.942 49h-37.196zM132.893 27.76h40.744V184.4h-40.744V27.76zm.007-8.818V.234l40.71.14v18.568H132.9zM323.057 128.17c-.09 5.582-17.378 17.683-17.865.174-.65-22.985-.924-41.723 0-64.703.678-17.084 17.865-6.5 17.865.11 0 14.055.457 39.13 0 64.42zm40.98-98.66h-41.476s0 9.128-.622 14.664c-3.357-7.07-8.168-13.258-15.763-15.017-17.17-3.984-43.1-4.607-45.18 22.836-2.913 38.604-4.57 91.81 7.56 106.13 10.698 12.643 38.574 9.918 51.798-5.5 7.612 8.302.762 17.677-10.11 23.624-12.108 6.62-39.48-.488-39.48-.488l-7.722 20.94s100.303 30.87 101.172-42.756l-.174-124.435zm70.943 118.305c-.278 6.01-7.72 11.575-15.083 8.943-6.51-2.323-8.358-5.332-8.435-16.4-.06-9.82.424-19.432 10.478-28.655 5.226-3.314 10.37-6.518 13.5-9.65-.137 19.91.28 30.304-.46 45.762m37.053-90.97c.132-10.752-8.67-20.878-20.463-24.74-27.236-8.9-63.737-8.21-74.27 21.46-3.882 10.965-1.275 23.968-1.275 23.968h36.616s.068-14.436.068-16.09c.166-13.867 21.036-11.88 20.256.603 0 0 .19 11.94-1.772 12.643-44.29 15.673-53.065 31.478-55.34 39.832-4.345 15.91-5.723 31.072.762 54.24 4.942 17.707 26.706 20.06 36.077 17.72 9.377-2.34 19.43-9.838 19.43-9.838l.038 7.756h39.875s-.495-87.03 0-127.554M55.333 118.497v-.084h.017L65.878 47.11l8.596 71.303H55.35l-.017.084zM94.01.237H37.76L.375 184.4H46.25l4.49-27.8h27.324l2.61 27.8h47.704L94.008.237zm516.538 168.915h2.726c3.094 0 5.726-1.136 5.726-4.04 0-2.068-1.505-4.132-5.726-4.132-1.225 0-2.07.093-2.726.178v7.994zm0 13.045h-3.767v-23.565c1.976-.284 3.858-.564 6.672-.564 3.57 0 5.912.75 7.324 1.79 1.415 1.033 2.16 2.618 2.16 4.88 0 3.09-2.063 4.965-4.602 5.732v.182c2.07.364 3.484 2.25 3.95 5.735.564 3.65 1.128 5.064 1.497 5.81h-3.945c-.547-.746-1.12-2.903-1.59-6-.567-3.015-2.068-4.138-5.064-4.138h-2.632v10.137zm3.942-30.14c-9.3 0-16.898 7.986-16.898 17.84 0 10.05 7.6 17.937 17 17.937 9.375.09 16.894-7.887 16.894-17.84 0-9.95-7.52-17.936-16.894-17.936h-.102zm.102-3.288c11.54 0 20.747 9.396 20.747 21.128 0 11.926-9.207 21.22-20.85 21.22-11.55 0-20.938-9.294-20.938-21.22 0-11.732 9.39-21.13 20.938-21.13h.102z" fill-rule="evenodd"/></svg>