<svg xmlns="http://www.w3.org/2000/svg" width="638" height="157" viewBox="0 0 638 157"><path d="M79 123c9.6-10.7 19.2-25.3 16.7-37.3-2-12.2-11-16.2-17-16-6.2-.2-15.2 3.8-17.3 16-2.5 12 7 26.6 16.8 37.3-30.4-.3-55-25-55-55.5 0-30.7 25-55.6 55.6-55.6 30.7 0 55.6 24.8 55.6 55.5C134.4 98 109.6 123 79 123M78.6.2C35.4.2.4 35.2.4 78.2c0 43.3 35 78.3 78.2 78.3 43 0 78-35 78-78.2 0-43-35-78-78-78m318.7 55.3c-15.7 0-22.5 8.4-22.5 27.7 0 19.2 7 28 22.6 28 15.3 0 22.2-8.8 22.2-28 0-19-7-27.7-22.3-27.7m1 69.5c-11.7 0-23-2.8-30-8-9-6.2-13.8-18-13.8-33 0-28.5 14-42.2 42.6-42.2 29 0 42.8 13.8 42.8 42.7 0 26.7-14 40.6-41.4 40.6m95.9-16.2c-11.3 0-15-.7-18-3.3-3-2.5-3.8-4.3-4.2-12.3v-41c0-4.2-3.5-7.5-8-7.6H454v44c0 13.7 1.2 19.7 6 25 5.2 6.3 13 9.2 25.5 9.2H510v-14m71.5-18L593 63.5 605 91h-23.3zm21.7-46.2H591c-5 0-9 3-10.8 6.8l-31 71.4h12.5c5 0 9-3 11-7l4.8-11.2h31.3l5 11.4c1.7 4 6 6.7 10.7 6.8h12.7l-34-78.2zm-73.7 0c-4.3 0-7.8 3.4-8 7.5V123H532c4.3 0 7.8-3.4 8-7.6V44.8m-284.6.2c-4.8 0-9 2.8-10.7 6.7l-19.2 48-20.5-48c-1.7-4-6-6.7-10.7-6.8h-12.6l34.6 78h10c4.7 0 8.7-2.7 10.5-6.6L269.2 45m27.5 22.4c3-6.2 9.3-8.5 20.7-8.7h23.8v-14h-31c-5 0-8.8.4-12 1.2-2.5.5-4.5 1.3-6.3 2.2-4.6 2.4-7.2 5-7.2 5-2.8 3-5.2 6.4-7 10.5-2.7 5.6-4 11.8-4 19.5v1.3c0 7.7 1.3 14 4 19.6 2 4.4 4.4 8 7.4 10.8l2.5 2.2c2.3 1.7 4.6 2.8 6.4 3.5l2.5 1c.8 0 1.3.2 1.3.2 3.3 1 7.3 1.3 12.4 1.3h31v-14h-23.8c-11.4-.2-17.6-2.5-20.7-8.7-1-2.4-1.8-5.3-2.2-9v-.7h44.8V77h-44.8v-.6c.4-3.6 1-6.6 2.2-9" fill-rule="evenodd"/></svg>