<svg width="639" height="338" viewBox="0 0 639 338" xmlns="http://www.w3.org/2000/svg"><title>williams-black</title><g fill-rule="evenodd"><path d="M151.353 80.825h-29.108l-.823 1.912-29.644 69.845 1.837-68.538.09-3.22H63.89l-.818 1.893-30.237 69.835 2.405-68.478.122-3.25H6.732l-.037 3.098-1.607 124.854-.037 3.18h29.434l.81-1.91 31.71-74.83-1.3 73.546-.058 3.195h29.44l.816-1.9 53.585-124.85 1.87-4.382m29.722 34.935h-27.826l-.542 2.463-20.784 93.734h27.826l.55-2.465 19.933-89.914.843-3.817m-.25-10.241h2.52l.543-2.458 4.44-20.04.86-3.828h-27.838l-.536 2.465-4.453 20.044-.842 3.817h25.306m50.85-24.695h-27.833l-.543 2.456-28.52 128.677h27.83l.537-2.465 27.68-124.85.85-3.817m42.853-.001h-27.826l-.55 2.456-28.513 128.677h27.82l.54-2.465 27.686-124.85.844-3.817m34.242 34.934H280.95l-.54 2.463-20.784 93.734h27.825l.55-2.465 19.935-89.914.842-3.817m-.25-10.241h2.52l.542-2.458 4.44-20.04.86-3.828h-27.83l-.543 2.465-4.453 20.044-.842 3.817h25.306m46.095 77.59c-6.117 4.206-14.104 8.238-18.997 8.238-1.43 0-3.35-.27-4.39-1.567-1.11-1.38-.924-3.565-.573-5.153 2.093-9.43 14.187-12.584 26.958-15.033l-2.997 13.517zm34.224-28.86c3.234-14.556 2.4-24.327-2.647-30.74-4.765-6.087-13.294-9.052-26.824-9.346-14.015-.372-31.443 7.37-39.666 17.62l-1.83 2.293 2.162 1.99 11.463 10.51 2.278 2.087 2.137-2.236c4.72-4.97 10.774-10.058 19.852-10.058 3.29 0 5.862.848 7.048 2.327.855 1.074 1.085 2.598.65 4.543l-1.205 5.424c-36.57 4.587-55.045 16.15-59.734 37.334-1.715 7.735-.4 14.807 3.69 19.907 2.805 3.49 8.285 7.65 18.447 7.65 10.596.1 19.144-3.067 26.69-7.056l-.102 2.154-.14 3.283h27.717l-.433-3.536c-.384-3.03-.047-6.81 1.083-11.898l9.365-42.252zm138.473-33.162c-3.58-4.47-9.277-6.924-16.032-6.924-14.5 0-24.547 5.282-32.42 11.162-3.546-6.978-11.06-11.162-20.63-11.162-10.078-.088-17.184 2.435-24.654 7.214l.39-1.773.847-3.813h-25.917l-.555 2.458-19.916 89.89-.86 3.817h27.83l.544-2.465 14.065-63.428c6.693-4.996 13.525-8.31 17.263-8.34 1.748.09 3.98.45 4.906 1.64.803 1.056.886 3.17.24 6.105l-13.892 62.67-.843 3.817h27.82l.542-2.465 14.066-63.428c6.685-4.996 13.53-8.31 17.268-8.34 1.755.09 3.982.45 4.894 1.64.823 1.056.9 3.17.25 6.105l-13.895 62.67-.85 3.817h27.833l.542-2.465 14.308-64.556c2.297-10.366 1.25-18.384-3.145-23.848m51.894 15.284c4.35 0 8.203 2.587 12.14 8.137l1.836 2.6 2.576-1.878 18.39-13.436-1.55-2.476c-5.995-9.632-17.388-15.154-31.25-15.154-15.52 0-34.205 8.93-38.55 28.54-4.643 20.915 11.866 27.447 23.91 32.203 8.688 3.43 12.714 5.417 11.974 8.75-1.008 4.53-5.952 7.69-12.012 7.69-6.57 0-11.432-3.552-15.272-11.178l-1.563-3.105-2.928 1.87-16.68 10.674-2.29 1.465 1.12 2.472c5.934 13.09 17.295 20.008 32.86 20.008 22.244 0 37.95-10.99 42.04-29.4 4.885-22.055-12.568-28.73-24.127-33.14-8.453-3.232-12.357-5.103-11.636-8.33.925-4.187 4.638-6.315 11.01-6.315M235.34 232.658c-110.205 45.13-200.642 56.17-201.994 24.665-.364-8.386 5.67-18.944 16.72-30.768H33.983C10.01 249.515-2.37 269.188.62 282.745c8.523 38.604 138.53 13.347 292.847-56.19H249.82a823.945 823.945 0 0 1-14.48 6.103m342.284-213.63C569.49-18.904 447.54 2.185 298.308 65.336l6.61 3.49C396.023 32.55 474.78 10.452 516.077 12.1c49.286 1.963 33.07 37.258-31.946 88.574h30.81c42.74-33.632 66.663-63.1 62.682-81.646M589.98 56.86c-1.498-5.425-5.51-9.54-11.71-12.41-3.893 7.56-10.087 15.915-18.386 24.912-1.046 8.18-7.948 18.812-20.164 31.312h29.91c15.898-17.708 23.387-32.842 20.35-43.815"/><path d="M326.498 99.654l6.506 3.442c80.97-31.87 153.527-51.98 194.34-51.99 2.852-3.99 5.078-7.726 6.647-11.182C485.664 43.41 410.76 64.46 326.5 99.654m14.714 126.901c-24.406 13-51.135 25.742-79.24 37.533-98.71 41.424-182.393 57.845-206.6 42.74-20.53 1.798-33.134-.336-39.788-2.272-1.205 2.824-2.04 5.522-2.45 8.08-6.755 42.41 102.392 30.15 243.766-27.372 44.04-17.913 86.016-38.11 123.13-58.71h-38.818m-229.131.001H98.687c-19.91 13.327-37.005 26.35-50.638 38.566 3.055 1.818 9.543 3.436 13.632 3.717 11.004-12.683 28.33-27.162 50.4-42.282m509.444-27.598v-4.837h3.235c1.64 0 3.406.36 3.406 2.294 0 2.405-1.805 2.544-3.808 2.544h-2.833zm0 2.01h2.724l4.126 6.784h2.66l-4.458-6.893c2.296-.285 4.05-1.504 4.05-4.304 0-3.087-1.824-4.448-5.524-4.448h-5.945v15.644h2.365v-6.785zm2.865 12.512c7.393 0 13.702-5.728 13.702-13.584 0-7.788-6.31-13.523-13.702-13.523-7.458 0-13.767 5.735-13.767 13.523 0 7.856 6.31 13.584 13.767 13.584zm-11.043-13.584c0-6.427 4.842-11.267 11.043-11.267 6.136 0 10.978 4.84 10.978 11.266 0 6.526-4.842 11.332-10.978 11.332-6.2 0-11.043-4.806-11.043-11.332z"/></g></svg>