<?xml version="1.0" encoding="utf-8"?>
<!-- Generator: Adobe Illustrator 23.0.3, SVG Export Plug-In . SVG Version: 6.00 Build 0)  -->
<svg version="1.1" xmlns="http://www.w3.org/2000/svg" xmlns:xlink="http://www.w3.org/1999/xlink" x="0px" y="0px"
	 viewBox="0 0 1067.2 561.9" style="enable-background:new 0 0 1067.2 561.9;" xml:space="preserve">
<style type="text/css">
	.st0{display:none;}
	.st1{display:inline;}
	.st2{fill:#FF9900;}
	.st3{fill:#FF9A00;}
	.st4{fill:#FF9B01;}
	.st5{fill:#FF9C01;}
	.st6{fill:#FF9D02;}
	.st7{fill:#FF9E02;}
	.st8{fill:#FF9F03;}
	.st9{fill:#FFA003;}
	.st10{fill:#FFA104;}
	.st11{fill:#FFA204;}
	.st12{fill:#FFA305;}
	.st13{fill:#FFA405;}
	.st14{fill:#FFA506;}
	.st15{fill:#FFA606;}
	.st16{fill:#FFA707;}
	.st17{fill:#FFA807;}
	.st18{fill:#FFA908;}
	.st19{fill:#FFAA08;}
	.st20{fill:#FFAB09;}
	.st21{fill:#FFAC09;}
	.st22{fill:#FFAD0A;}
	.st23{fill:#FFAE0A;}
	.st24{fill:#FFAF0B;}
	.st25{fill:#FFB00B;}
	.st26{fill:#FFB10C;}
	.st27{fill:#FFB20C;}
	.st28{fill:#FFB30D;}
	.st29{fill:#FFB40D;}
	.st30{fill:#FFB50E;}
	.st31{fill:#FFB60E;}
	.st32{fill:#FFB70F;}
	.st33{fill:#FFB80F;}
	.st34{fill:#FFB910;}
	.st35{fill:#FFBA10;}
	.st36{fill:#FFBB11;}
	.st37{fill:#FFBC11;}
	.st38{fill:#FFBD12;}
	.st39{fill:#FFBE12;}
	.st40{fill:#FFBF13;}
	.st41{fill:#FFC013;}
	.st42{fill:#FFC114;}
	.st43{fill:#FFC214;}
	.st44{fill:#FFC315;}
	.st45{fill:#FFC415;}
	.st46{fill:#FFC516;}
	.st47{fill:#FFC616;}
	.st48{fill:#FFC717;}
	.st49{fill:#FFC817;}
	.st50{fill:#FFC918;}
	.st51{fill:#FFCA18;}
	.st52{fill:#FFCB19;}
	.st53{fill:#FFCC19;}
	.st54{fill:#FFCC1A;}
	.st55{fill:#FFCD1A;}
	.st56{fill:#FFCE1B;}
	.st57{fill:#FFCF1B;}
	.st58{fill:#FFD01C;}
	.st59{fill:#FFD11C;}
	.st60{fill:#FFD21D;}
	.st61{fill:#FFD31D;}
	.st62{fill:#FFD41E;}
	.st63{fill:#FFD51E;}
	.st64{fill:#FFD61F;}
	.st65{fill:#FFD71F;}
	.st66{fill:#FFD820;}
	.st67{fill:#FFD920;}
	.st68{fill:#FFDA21;}
	.st69{fill:#FFDB21;}
	.st70{fill:#FFDC22;}
	.st71{fill:#FFDD22;}
	.st72{fill:#FFDE23;}
	.st73{fill:#FFDF23;}
	.st74{fill:#FFE024;}
	.st75{fill:#FFE124;}
	.st76{fill:#FFE225;}
	.st77{fill:#FFE325;}
	.st78{fill:#FFE426;}
	.st79{fill:#FFE526;}
	.st80{fill:#FFE627;}
	.st81{fill:#FFE727;}
	.st82{fill:#FFE828;}
	.st83{fill:#FFE928;}
	.st84{fill:#FFEA29;}
	.st85{fill:#FFEB29;}
	.st86{fill:#FFEC2A;}
	.st87{fill:#FFED2A;}
	.st88{fill:#FFEE2B;}
	.st89{fill:#FFEF2B;}
	.st90{fill:#FFF02C;}
	.st91{fill:#FFF12C;}
	.st92{fill:#FFF22D;}
	.st93{fill:#FFF32D;}
	.st94{fill:#FFF42E;}
	.st95{fill:#FFF52E;}
	.st96{fill:#FFF62F;}
	.st97{fill:#FFF72F;}
	.st98{fill:#FFF830;}
	.st99{fill:#FFF930;}
	.st100{fill:#FFFA31;}
	.st101{fill:#FFFB31;}
	.st102{fill:#FFFC32;}
	.st103{fill:#FFFD32;}
	.st104{fill:#FFFE33;}
	.st105{fill:#FFFF33;}
	.st106{fill:#FFFD33;}
	.st107{fill:#FFFC33;}
	.st108{fill:#FFFB33;}
	.st109{fill:#FFFA33;}
	.st110{fill:#FFF933;}
	.st111{fill:#FEF833;}
	.st112{fill:#FEF733;}
	.st113{fill:#FEF633;}
	.st114{fill:#FEF533;}
	.st115{fill:#FEF433;}
	.st116{fill:#FEF333;}
	.st117{fill:#FEF232;}
	.st118{fill:#FEF132;}
	.st119{fill:#FEF032;}
	.st120{fill:#FEEF32;}
	.st121{fill:#FEEE32;}
	.st122{fill:#FEED32;}
	.st123{fill:#FDEC32;}
	.st124{fill:#FDEB32;}
	.st125{fill:#FDEA32;}
	.st126{fill:#FDE932;}
	.st127{fill:#FDE832;}
	.st128{fill:#FDE732;}
	.st129{fill:#FDE632;}
	.st130{fill:#FDE532;}
	.st131{fill:#FDE432;}
	.st132{fill:#FDE332;}
	.st133{fill:#FDE232;}
	.st134{fill:#FDE132;}
	.st135{fill:#FCE032;}
	.st136{fill:#FCDF32;}
	.st137{fill:#FCDE32;}
	.st138{fill:#FCDD32;}
	.st139{fill:#FCDC32;}
	.st140{fill:#FCDB32;}
	.st141{fill:#FCDA31;}
	.st142{fill:#FCD931;}
	.st143{fill:#FCD831;}
	.st144{fill:#FCD731;}
	.st145{fill:#FCD631;}
	.st146{fill:#FCD531;}
	.st147{fill:#FBD431;}
	.st148{fill:#FBD331;}
	.st149{fill:#FBD231;}
	.st150{fill:#FBD131;}
	.st151{fill:#FBD031;}
	.st152{fill:#FBCF31;}
	.st153{fill:#FBCE31;}
	.st154{fill:#FBCD31;}
	.st155{fill:#FBCC31;}
	.st156{fill:#FBCB31;}
	.st157{fill:#FBCA31;}
	.st158{fill:#FBC931;}
	.st159{fill:#FAC831;}
	.st160{fill:#FAC731;}
	.st161{fill:#FAC631;}
	.st162{fill:#FAC531;}
	.st163{fill:#FAC431;}
	.st164{fill:#FAC331;}
	.st165{fill:#FAC230;}
	.st166{fill:#FAC130;}
	.st167{fill:#FAC030;}
	.st168{fill:#FABF30;}
	.st169{fill:#FABE30;}
	.st170{fill:#FABD30;}
	.st171{fill:#F9BC30;}
	.st172{fill:#F9BB30;}
	.st173{fill:#F9BA30;}
	.st174{fill:#F9B930;}
	.st175{fill:#F9B830;}
	.st176{fill:#F9B730;}
	.st177{fill:#F9B630;}
	.st178{font-family:'Ubuntu-Bold';}
	.st179{font-size:250px;}
</style>
<g id="Слой_2__x28_копия3_x29_" class="st0">
	<g class="st1">
		<g>
			<circle class="st2" cx="1015.5" cy="400.4" r="50"/>
			<ellipse transform="matrix(0.7071 -0.7071 0.7071 0.7071 1.754 823.9169)" class="st3" cx="995.4" cy="409.8" rx="51" ry="51"/>
			
				<ellipse transform="matrix(0.7071 -0.7071 0.7071 0.7071 -10.4558 812.3891)" class="st4" cx="975.4" cy="418.8" rx="51.9" ry="51.9"/>
			
				<ellipse transform="matrix(0.7071 -0.7071 0.7071 0.7071 -22.3151 800.7668)" class="st5" cx="955.5" cy="427.3" rx="52.9" ry="52.9"/>
			
				<ellipse transform="matrix(0.7071 -0.7071 0.7071 0.7071 -33.8076 789.0753)" class="st6" cx="935.6" cy="435.3" rx="53.9" ry="53.9"/>
			
				<ellipse transform="matrix(0.7071 -0.7071 0.7071 0.7071 -44.9172 777.34)" class="st7" cx="915.9" cy="442.9" rx="54.9" ry="54.9"/>
			
				<ellipse transform="matrix(0.7071 -0.7071 0.7071 0.7071 -55.6275 765.5859)" class="st8" cx="896.3" cy="449.9" rx="55.8" ry="55.8"/>
			
				<ellipse transform="matrix(0.7109 -0.7033 0.7033 0.7109 -67.4991 748.7911)" class="st9" cx="877" cy="456.5" rx="56.8" ry="56.8"/>
			
				<ellipse transform="matrix(0.7109 -0.7033 0.7033 0.7109 -77.2699 737.1161)" class="st10" cx="857.9" cy="462.5" rx="57.8" ry="57.8"/>
			
				<ellipse transform="matrix(0.7109 -0.7033 0.7033 0.7109 -86.5954 725.4995)" class="st11" cx="839.1" cy="468.1" rx="58.7" ry="58.7"/>
			
				<ellipse transform="matrix(0.7109 -0.7033 0.7033 0.7109 -95.4595 713.9664)" class="st12" cx="820.7" cy="473.1" rx="59.7" ry="59.7"/>
			
				<ellipse transform="matrix(0.7109 -0.7033 0.7033 0.7109 -103.8462 702.542)" class="st13" cx="802.6" cy="477.6" rx="60.7" ry="60.7"/>
			
				<ellipse transform="matrix(0.7109 -0.7033 0.7033 0.7109 -111.7395 691.2513)" class="st14" cx="785" cy="481.5" rx="61.6" ry="61.7"/>
			
				<ellipse transform="matrix(0.7109 -0.7033 0.7033 0.7109 -119.1232 680.1195)" class="st15" cx="767.7" cy="485" rx="62.6" ry="62.6"/>
			
				<ellipse transform="matrix(0.7109 -0.7033 0.7033 0.7109 -125.9814 669.1718)" class="st16" cx="751" cy="487.8" rx="63.6" ry="63.6"/>
			
				<ellipse transform="matrix(0.7109 -0.7033 0.7033 0.7109 -132.2981 658.4331)" class="st17" cx="734.8" cy="490.1" rx="64.6" ry="64.6"/>
			
				<ellipse transform="matrix(0.7109 -0.7033 0.7033 0.7109 -138.0571 647.9287)" class="st18" cx="719.1" cy="491.9" rx="65.5" ry="65.5"/>
			
				<ellipse transform="matrix(0.7109 -0.7033 0.7033 0.7109 -143.2424 637.6838)" class="st19" cx="704.1" cy="493.1" rx="66.5" ry="66.5"/>
			
				<ellipse transform="matrix(0.7109 -0.7033 0.7033 0.7109 -147.8379 627.7233)" class="st20" cx="689.7" cy="493.7" rx="67.5" ry="67.5"/>
			
				<ellipse transform="matrix(0.7109 -0.7032 0.7032 0.7109 -151.8278 618.0725)" class="st21" cx="676" cy="493.7" rx="68.4" ry="68.4"/>
			
				<ellipse transform="matrix(0.711 -0.7032 0.7032 0.711 -155.1958 608.7565)" class="st22" cx="662.9" cy="493.2" rx="69.4" ry="69.4"/>
			
				<ellipse transform="matrix(0.711 -0.7032 0.7032 0.711 -157.9259 599.8004)" class="st23" cx="650.7" cy="492" rx="70.4" ry="70.4"/>
			
				<ellipse transform="matrix(0.711 -0.7032 0.7032 0.711 -160.0021 591.2292)" class="st24" cx="639.2" cy="490.3" rx="71.4" ry="71.4"/>
			
				<ellipse transform="matrix(0.711 -0.7032 0.7032 0.711 -161.4084 583.0684)" class="st25" cx="628.6" cy="487.9" rx="72.3" ry="72.3"/>
			
				<ellipse transform="matrix(0.711 -0.7032 0.7032 0.711 -162.1286 575.3427)" class="st26" cx="618.9" cy="484.9" rx="73.3" ry="73.3"/>
			
				<ellipse transform="matrix(0.711 -0.7032 0.7032 0.711 -162.1469 568.0775)" class="st27" cx="610" cy="481.3" rx="74.3" ry="74.3"/>
			
				<ellipse transform="matrix(0.711 -0.7032 0.7032 0.711 -161.4469 561.2978)" class="st28" cx="602.1" cy="477.1" rx="75.2" ry="75.2"/>
			
				<ellipse transform="matrix(0.711 -0.7032 0.7032 0.711 -160.0129 555.0288)" class="st29" cx="595.2" cy="472.2" rx="76.2" ry="76.2"/>
			
				<ellipse transform="matrix(0.711 -0.7032 0.7032 0.711 -157.8286 549.2956)" class="st30" cx="589.3" cy="466.7" rx="77.2" ry="77.2"/>
			
				<ellipse transform="matrix(0.711 -0.7032 0.7032 0.711 -154.8781 544.1233)" class="st31" cx="584.5" cy="460.5" rx="78.2" ry="78.2"/>
			
				<ellipse transform="matrix(0.711 -0.7032 0.7032 0.711 -151.1453 539.537)" class="st32" cx="580.8" cy="453.6" rx="79.1" ry="79.1"/>
			
				<ellipse transform="matrix(0.711 -0.7032 0.7032 0.711 -146.6142 535.562)" class="st33" cx="578.3" cy="446.2" rx="80.1" ry="80.1"/>
			
				<ellipse transform="matrix(0.711 -0.7032 0.7032 0.711 -141.2686 532.2233)" class="st34" cx="576.9" cy="438" rx="81.1" ry="81.1"/>
			
				<ellipse transform="matrix(0.711 -0.7032 0.7032 0.711 -135.0926 529.546)" class="st35" cx="576.7" cy="429.1" rx="82" ry="82"/>
			<ellipse transform="matrix(0.711 -0.7032 0.7032 0.711 -128.07 527.5552)" class="st36" cx="577.8" cy="419.6" rx="83" ry="83"/>
			
				<ellipse transform="matrix(0.711 -0.7032 0.7032 0.711 -120.185 526.2762)" class="st37" cx="580.2" cy="409.4" rx="84" ry="84"/>
			
				<ellipse transform="matrix(0.711 -0.7032 0.7032 0.711 -111.4213 525.7339)" class="st38" cx="583.9" cy="398.4" rx="84.9" ry="85"/>
			
				<ellipse transform="matrix(0.711 -0.7032 0.7032 0.711 -101.763 525.9536)" class="st39" cx="589" cy="386.8" rx="85.9" ry="85.9"/>
			
				<ellipse transform="matrix(0.711 -0.7032 0.7032 0.711 -91.1939 526.9604)" class="st40" cx="595.5" cy="374.4" rx="86.9" ry="86.9"/>
			
				<ellipse transform="matrix(0.711 -0.7032 0.7032 0.711 -79.6981 528.7794)" class="st41" cx="603.5" cy="361.4" rx="87.9" ry="87.9"/>
			
				<ellipse transform="matrix(0.711 -0.7032 0.7032 0.711 -67.2595 531.4357)" class="st42" cx="612.9" cy="347.6" rx="88.8" ry="88.8"/>
			
				<ellipse transform="matrix(0.711 -0.7032 0.7032 0.711 -53.8621 534.9545)" class="st43" cx="623.9" cy="333" rx="89.8" ry="89.8"/>
			
				<ellipse transform="matrix(0.711 -0.7032 0.7032 0.711 -39.4897 539.3609)" class="st44" cx="636.5" cy="317.7" rx="90.8" ry="90.8"/>
			
				<ellipse transform="matrix(0.711 -0.7032 0.7032 0.711 -24.1264 544.6799)" class="st45" cx="650.6" cy="301.7" rx="91.7" ry="91.8"/>
			
				<ellipse transform="matrix(0.711 -0.7032 0.7032 0.711 -7.756 550.9369)" class="st46" cx="666.4" cy="284.9" rx="92.7" ry="92.7"/>
			
				<ellipse transform="matrix(0.711 -0.7031 0.7031 0.711 9.6386 558.1573)" class="st47" cx="683.9" cy="267.4" rx="93.7" ry="93.7"/>
			
				<ellipse transform="matrix(0.711 -0.7031 0.7031 0.711 27.3677 565.4996)" class="st48" cx="701.7" cy="249.5" rx="94.7" ry="94.7"/>
			
				<ellipse transform="matrix(0.711 -0.7031 0.7031 0.711 43.8906 571.7627)" class="st49" cx="717.6" cy="232.5" rx="95.6" ry="95.6"/>
			
				<ellipse transform="matrix(0.7111 -0.7031 0.7031 0.7111 59.2352 576.9772)" class="st50" cx="731.6" cy="216.4" rx="96.6" ry="96.6"/>
			
				<ellipse transform="matrix(0.7111 -0.7031 0.7031 0.7111 73.4295 581.174)" class="st51" cx="743.8" cy="201.2" rx="97.6" ry="97.6"/>
			
				<ellipse transform="matrix(0.7111 -0.7031 0.7031 0.7111 86.5014 584.3836)" class="st52" cx="754.3" cy="186.9" rx="98.5" ry="98.6"/>
			
				<ellipse transform="matrix(0.7111 -0.7031 0.7031 0.7111 98.4788 586.6368)" class="st53" cx="763" cy="173.5" rx="99.5" ry="99.5"/>
			
				<ellipse transform="matrix(0.7111 -0.7031 0.7031 0.7111 109.3897 587.9644)" class="st54" cx="770.1" cy="160.9" rx="100.5" ry="100.5"/>
			
				<ellipse transform="matrix(0.7111 -0.7031 0.7031 0.7111 119.262 588.397)" class="st55" cx="775.6" cy="149.1" rx="101.4" ry="101.5"/>
			
				<ellipse transform="matrix(0.7111 -0.7031 0.7031 0.7111 128.1235 587.9654)" class="st56" cx="779.5" cy="138.1" rx="102.4" ry="102.4"/>
			
				<ellipse transform="matrix(0.7111 -0.7031 0.7031 0.7111 136.0023 586.7003)" class="st57" cx="781.9" cy="127.9" rx="103.4" ry="103.4"/>
			
				<ellipse transform="matrix(0.7111 -0.7031 0.7031 0.7111 142.9262 584.6323)" class="st58" cx="782.8" cy="118.4" rx="104.4" ry="104.4"/>
			
				<ellipse transform="matrix(0.7111 -0.7031 0.7031 0.7111 148.9232 581.7922)" class="st59" cx="782.4" cy="109.7" rx="105.3" ry="105.3"/>
			
				<ellipse transform="matrix(0.7111 -0.7031 0.7031 0.7111 154.0211 578.2107)" class="st60" cx="780.6" cy="101.7" rx="106.3" ry="106.3"/>
			
				<ellipse transform="matrix(0.7111 -0.7031 0.7031 0.7111 158.2479 573.9185)" class="st61" cx="777.5" cy="94.4" rx="107.3" ry="107.3"/>
			
				<ellipse transform="matrix(0.7111 -0.7031 0.7031 0.7111 161.6315 568.9464)" class="st62" cx="773.1" cy="87.8" rx="108.2" ry="108.3"/>
			
				<ellipse transform="matrix(0.7111 -0.7031 0.7031 0.7111 164.1999 563.325)" class="st63" cx="767.5" cy="81.9" rx="109.2" ry="109.2"/>
			
				<ellipse transform="matrix(0.7111 -0.7031 0.7031 0.7111 165.9808 557.085)" class="st64" cx="760.8" cy="76.6" rx="110.2" ry="110.2"/>
			
				<ellipse transform="matrix(0.7111 -0.7031 0.7031 0.7111 167.0023 550.2572)" class="st65" cx="753.1" cy="71.9" rx="111.2" ry="111.2"/>
			
				<ellipse transform="matrix(0.7111 -0.7031 0.7031 0.7111 167.2922 542.8723)" class="st66" cx="744.2" cy="67.9" rx="112.1" ry="112.1"/>
			
				<ellipse transform="matrix(0.7111 -0.7031 0.7031 0.7111 166.8785 534.9609)" class="st67" cx="734.4" cy="64.4" rx="113.1" ry="113.1"/>
			
				<ellipse transform="matrix(0.7111 -0.7031 0.7031 0.7111 165.789 526.5538)" class="st68" cx="723.6" cy="61.5" rx="114.1" ry="114.1"/>
			
				<ellipse transform="matrix(0.7111 -0.7031 0.7031 0.7111 164.0517 517.6817)" class="st69" cx="712" cy="59.2" rx="115" ry="115.1"/>
			
				<ellipse transform="matrix(0.7111 -0.7031 0.7031 0.7111 161.6945 508.3753)" class="st70" cx="699.5" cy="57.4" rx="116" ry="116"/>
			
				<ellipse transform="matrix(0.7111 -0.7031 0.7031 0.7111 158.7452 498.6653)" class="st71" cx="686.2" cy="56.2" rx="117" ry="117"/>
			
				<ellipse transform="matrix(0.7111 -0.7031 0.7031 0.7111 155.2319 488.5824)" class="st72" cx="672.1" cy="55.4" rx="118" ry="118"/>
			
				<ellipse transform="matrix(0.7111 -0.7031 0.7031 0.7111 151.1823 478.1574)" class="st73" cx="657.4" cy="55.1" rx="118.9" ry="118.9"/>
			
				<ellipse transform="matrix(0.7111 -0.7031 0.7031 0.7111 146.6244 467.4209)" class="st74" cx="642.1" cy="55.3" rx="119.9" ry="119.9"/>
			
				<ellipse transform="matrix(0.7111 -0.7031 0.7031 0.7111 141.5861 456.4036)" class="st75" cx="626.2" cy="55.9" rx="120.9" ry="120.9"/>
			
				<ellipse transform="matrix(0.7111 -0.7031 0.7031 0.7111 136.0953 445.1363)" class="st76" cx="609.7" cy="57" rx="121.8" ry="121.9"/>
			
				<ellipse transform="matrix(0.7111 -0.7031 0.7031 0.7111 130.1799 433.6496)" class="st77" cx="592.8" cy="58.4" rx="122.8" ry="122.8"/>
			
				<ellipse transform="matrix(0.7111 -0.7031 0.7031 0.7111 123.8678 421.9742)" class="st78" cx="575.4" cy="60.3" rx="123.8" ry="123.8"/>
			
				<ellipse transform="matrix(0.7111 -0.7031 0.7031 0.7111 117.1869 410.141)" class="st79" cx="557.7" cy="62.5" rx="124.7" ry="124.8"/>
			
				<ellipse transform="matrix(0.7111 -0.7031 0.7031 0.7111 110.1651 398.1805)" class="st80" cx="539.6" cy="65" rx="125.7" ry="125.7"/>
			
				<ellipse transform="matrix(0.7111 -0.7031 0.7031 0.7111 102.8304 386.1235)" class="st81" cx="521.3" cy="67.9" rx="126.7" ry="126.7"/>
			
				<ellipse transform="matrix(0.7111 -0.7031 0.7031 0.7111 95.2105 374.0007)" class="st82" cx="502.7" cy="71.1" rx="127.7" ry="127.7"/>
			
				<ellipse transform="matrix(0.7111 -0.7031 0.7031 0.7111 87.3334 361.8427)" class="st83" cx="484" cy="74.6" rx="128.6" ry="128.7"/>
			
				<ellipse transform="matrix(0.7111 -0.7031 0.7031 0.7111 79.2271 349.6804)" class="st84" cx="465.1" cy="78.4" rx="129.6" ry="129.6"/>
			
				<ellipse transform="matrix(0.7111 -0.7031 0.7031 0.7111 70.9193 337.5443)" class="st85" cx="446.2" cy="82.5" rx="130.6" ry="130.6"/>
			
				<ellipse transform="matrix(0.7111 -0.7031 0.7031 0.7111 62.438 325.4653)" class="st86" cx="427.3" cy="86.8" rx="131.5" ry="131.6"/>
			
				<ellipse transform="matrix(0.7111 -0.7031 0.7031 0.7111 53.8111 313.474)" class="st87" cx="408.4" cy="91.3" rx="132.5" ry="132.5"/>
			
				<ellipse transform="matrix(0.7111 -0.7031 0.7031 0.7111 45.0665 301.6011)" class="st88" cx="389.6" cy="96" rx="133.5" ry="133.5"/>
			
				<ellipse transform="matrix(0.7111 -0.7031 0.7031 0.7111 36.2321 289.8773)" class="st89" cx="370.9" cy="100.8" rx="134.5" ry="134.5"/>
			
				<ellipse transform="matrix(0.7071 -0.7071 0.7071 0.7071 28.3239 280.1831)" class="st90" cx="352.4" cy="105.9" rx="135.4" ry="135.4"/>
			
				<ellipse transform="matrix(0.7071 -0.7071 0.7071 0.7071 19.2995 268.7974)" class="st91" cx="334.1" cy="111.1" rx="136.4" ry="136.4"/>
			
				<ellipse transform="matrix(0.7071 -0.7071 0.7071 0.7071 10.2695 257.6545)" class="st92" cx="316.2" cy="116.4" rx="137.4" ry="137.4"/>
			
				<ellipse transform="matrix(0.7071 -0.7071 0.7071 0.7071 1.2622 246.7854)" class="st93" cx="298.5" cy="121.9" rx="138.3" ry="138.4"/>
			
				<ellipse transform="matrix(0.7071 -0.7071 0.7071 0.7071 -7.6943 236.2209)" class="st94" cx="281.3" cy="127.4" rx="139.3" ry="139.3"/>
			
				<ellipse transform="matrix(0.7071 -0.7071 0.7071 0.7071 -16.5718 225.9918)" class="st95" cx="264.5" cy="133" rx="140.3" ry="140.3"/>
			
				<ellipse transform="matrix(0.7071 -0.7071 0.7071 0.7071 -25.3421 216.1289)" class="st96" cx="248.2" cy="138.7" rx="141.2" ry="141.3"/>
			
				<ellipse transform="matrix(0.7071 -0.7071 0.7071 0.7071 -33.9771 206.663)" class="st97" cx="232.5" cy="144.3" rx="142.2" ry="142.2"/>
			
				<ellipse transform="matrix(0.7071 -0.7071 0.7071 0.7071 -42.4485 197.6251)" class="st98" cx="217.3" cy="150.1" rx="143.2" ry="143.2"/>
			
				<ellipse transform="matrix(0.7071 -0.7071 0.7071 0.7071 -50.7283 189.046)" class="st99" cx="202.8" cy="155.8" rx="144.2" ry="144.2"/>
			
				<ellipse transform="matrix(0.7071 -0.7071 0.7071 0.7071 -58.7881 180.9565)" class="st100" cx="189" cy="161.4" rx="145.1" ry="145.2"/>
			
				<ellipse transform="matrix(0.7071 -0.7071 0.7071 0.7071 -66.5999 173.3874)" class="st101" cx="176" cy="167.1" rx="146.1" ry="146.1"/>
			
				<ellipse transform="matrix(0.7071 -0.7071 0.7071 0.7071 -74.1354 166.3695)" class="st102" cx="163.8" cy="172.7" rx="147.1" ry="147.1"/>
			
				<ellipse transform="matrix(0.7071 -0.7071 0.7071 0.7071 -81.3665 159.9338)" class="st103" cx="152.4" cy="178.2" rx="148" ry="148.1"/>
			
				<ellipse transform="matrix(0.7071 -0.7071 0.7071 0.7071 -88.265 154.1111)" class="st104" cx="141.9" cy="183.6" rx="149" ry="149"/>
			
				<ellipse transform="matrix(0.7071 -0.7071 0.7071 0.7071 -94.8027 148.9321)" class="st105" cx="132.4" cy="188.9" rx="150" ry="150"/>
		</g>
	</g>
</g>
<g id="Слой_6__x28_копия_x29_">
	<g>
		<g>
			<path class="st105" d="M52.5,345.8c-10.8-0.2-19.6-1.3-26.4-3.5s-12.1-5.2-16-9.1c-3.9-3.9-6.6-8.7-8-14.2
				C0.7,313.4,0,307.1,0,300.1V155.3l37.2-6v143.2c0,3.3,0.2,6.3,0.8,9c0.5,2.7,1.5,4.9,2.9,6.8c1.4,1.8,3.5,3.3,6.1,4.5
				c2.7,1.2,6.2,1.9,10.8,2.2L52.5,345.8z"/>
			<path class="st104" d="M1.5,154.1l7.1-1.1l19.2-1.6c0-0.1,3-0.6,3.1-0.6c0.1-0.1,3.1-0.6,3.1-0.7s2.9-0.6,3-0.6
				c0-0.1,2.3-0.5,2.3-0.5l0.6,42.5c-0.1,0.1-0.2,37.6-0.3,37.7c-0.1,0.1-0.2,38.4-0.4,38.5c0.1,0.1,0.1,21.7,0.2,21.8
				c0,0,0,1.9,0,1.9c0,3.3,0.3,6.3,0.8,9c0.5,2.7,1.5,4.9,2.9,6.7c1.1,1.4,2.6,2.7,4.5,3.7c0.5,0.3,1.1,0.6,1.6,0.8
				c2.7,1.2,6.2,2,10.7,2.3c0,0-1.7,10.5-1.7,10.5c0.1,0.1-3.3,20.1-3.3,20.2c-10.7-0.2-19.9-1.3-26.6-3.5c-0.6-0.3-1.3-0.5-1.9-0.8
				c-0.7-0.3-1.4-0.6-2.1-1c-0.7-0.3-1.4-0.7-2.1-1c-0.6-0.3-1.3-0.7-1.9-1c-2-1-3.7-1.3-5.3-2.5c-1.1-0.8-2.6-1.7-3.6-2.7
				c-3.9-3.9-6.5-8.8-7.9-14.3c-1.4-5.5-2.1-12-2.1-18.9V154.1z"/>
			<path class="st106" d="M6.4,151.4l7.5-1.2l18.9-0.1c0.1-0.1,3.1-0.7,3.2-0.8c0.1-0.1,3.2-0.7,3.3-0.8s3-0.7,3.1-0.8
				c0.1-0.1,2.4-0.5,2.4-0.6L46,189c-0.2,0.3-0.5,37.3-0.7,37.6c-0.2,0.2-0.5,38.1-0.7,38.4c0.1,0.1,0.3,21.5,0.4,21.7
				c0,0,0,1.9,0,1.9c0.1,3.3,0.4,6.3,0.9,9c0.5,2.6,1.5,4.9,2.9,6.7c1.1,1.4,2.6,2.7,4.4,3.7c0.5,0.3,1.1,0.6,1.6,0.8
				c2.7,1.2,6.2,2,10.6,2.4c0.1,0.1-1.6,10.4-1.6,10.5c0.1,0.2-3.1,20-3.1,20.1c-10.5-0.2-20.3-1.3-26.8-3.4c-0.7-0.3-1.3-0.6-2-1
				c-0.7-0.4-1.5-0.8-2.2-1.2c-0.8-0.4-1.5-0.8-2.2-1.2c-0.7-0.4-1.4-0.8-2-1.2c-1.9-1-3.7-0.5-5.3-1.7c-1.1-0.8-3.1-1.7-4-2.6
				c-3.8-3.8-6.4-8.9-7.8-14.3c-1.4-5.4-2.1-12.1-2.1-18.9V151.4z"/>
			<path class="st107" d="M14.6,147.3l7.9-1.3l18.7,1.4c0.1-0.2,3.2-0.8,3.3-1c0.2-0.2,3.2-0.8,3.4-1c0.1-0.2,3-0.8,3.2-0.9
				c0.1-0.2,2.4-0.6,2.5-0.8l1.8,41.3c-0.4,0.4-0.7,37.1-1,37.5c-0.3,0.4-0.7,37.9-1.1,38.3c0.2,0.2,0.4,21.3,0.6,21.6
				c0,0,0,1.9,0.1,1.9c0.1,3.3,0.4,6.3,1,8.9c0.5,2.6,1.5,4.9,2.9,6.7c1.1,1.4,2.6,2.7,4.4,3.7c0.5,0.3,1.1,0.6,1.6,0.8
				c2.7,1.2,6.2,2.1,10.6,2.5c0.1,0.1-1.6,10.4-1.5,10.5c0.2,0.3-3,19.9-2.9,20.1c-10.4-0.2-20.6-1.3-27-3.4
				c-0.7-0.4-1.4-0.8-2.1-1.2c-0.8-0.5-1.6-0.9-2.3-1.4c-0.8-0.5-1.6-0.9-2.4-1.4c-0.7-0.5-1.5-0.9-2.2-1.3c-1.9-1-3.6,0.3-5.2-0.9
				c-1.1-0.8-3.6-1.7-4.5-2.6c-3.8-3.8-6.3-9-7.7-14.4c-1.4-5.4-2-12.2-2-18.9V147.3z"/>
			<path class="st108" d="M25.8,142l8.3-1.3l18.4,3c0.2-0.2,3.2-0.9,3.4-1.1c0.2-0.2,3.3-0.9,3.5-1.2c0.2-0.2,3.1-0.9,3.3-1.1
				c0.2-0.2,2.5-0.7,2.6-0.9l2.4,40.7c-0.5,0.5-0.9,36.8-1.4,37.3c-0.5,0.5-1,37.6-1.5,38.1c0.3,0.2,0.5,21.2,0.8,21.5
				c0,0,0,1.8,0.1,1.9c0.1,3.3,0.5,6.2,1,8.9c0.6,2.6,1.5,4.9,3,6.7c1.1,1.4,2.6,2.7,4.4,3.8c0.5,0.3,1.1,0.6,1.6,0.8
				c2.6,1.3,6.2,2.1,10.5,2.6c0.1,0.2-1.5,10.3-1.4,10.5c0.2,0.4-2.8,19.8-2.7,20.1c-10.3-0.2-20.9-1.3-27.3-3.3
				c-0.7-0.4-1.4-0.9-2.2-1.4c-0.8-0.5-1.6-1-2.5-1.6c-0.8-0.5-1.7-1.1-2.5-1.6c-0.8-0.5-1.6-1-2.3-1.5c-1.9-1-3.6,1.1-5.1-0.1
				c-1.1-0.8-4-1.7-4.9-2.6c-3.7-3.7-6.2-9.1-7.6-14.4c-1.3-5.3-2-12.3-2-18.9V142z"/>
			<path class="st109" d="M39.6,135.6l8.8-1.4l18.1,4.5c0.2-0.3,3.3-1,3.5-1.3c0.3-0.3,3.3-1,3.6-1.3c0.2-0.3,3.1-1,3.4-1.2
				c0.2-0.3,2.5-0.8,2.7-1l3,40.1c-0.6,0.7-1.2,36.6-1.7,37.2c-0.6,0.6-1.2,37.3-1.9,38c0.3,0.3,0.7,21,1,21.4c0,0,0.1,1.8,0.1,1.9
				c0.1,3.3,0.5,6.2,1.1,8.9c0.6,2.6,1.6,4.9,3,6.7c1.1,1.4,2.6,2.7,4.4,3.8c0.5,0.3,1.1,0.6,1.6,0.9c2.6,1.3,6.1,2.2,10.5,2.7
				c0.1,0.2-1.4,10.3-1.3,10.5c0.3,0.5-2.7,19.7-2.5,20.1c-10.1-0.2-21.2-1.2-27.5-3.3c-0.7-0.5-1.5-1-2.3-1.5
				c-0.9-0.6-1.7-1.2-2.6-1.8c-0.9-0.6-1.8-1.2-2.7-1.8c-0.8-0.6-1.7-1.1-2.5-1.6c-1.8-0.9-3.5,1.9-5,0.8c-1-0.8-4.5-1.6-5.4-2.5
				c-3.7-3.6-6.1-9.2-7.5-14.4c-1.3-5.2-2-12.4-2-18.9V135.6z"/>
			<path class="st110" d="M56,128.5l9.2-1.5l17.9,6c0.3-0.3,3.3-1.1,3.7-1.4c0.3-0.3,3.4-1.1,3.7-1.5c0.3-0.3,3.2-1.1,3.5-1.4
				c0.3-0.3,2.6-0.9,2.8-1.1l3.6,39.6c-0.7,0.8-1.4,36.4-2.1,37.1c-0.7,0.7-1.4,37.1-2.2,37.9c0.4,0.4,0.8,20.9,1.3,21.4
				c0,0,0.1,1.8,0.1,1.9c0.2,3.3,0.6,6.2,1.2,8.9c0.6,2.6,1.6,4.8,3,6.7c1.1,1.4,2.6,2.7,4.4,3.8c0.5,0.3,1,0.6,1.6,0.9
				c2.6,1.3,6.1,2.3,10.4,2.8c0.2,0.2-1.3,10.2-1.2,10.4c0.3,0.5-2.5,19.6-2.3,20c-10-0.2-21.5-1.2-27.7-3.2
				c-0.8-0.5-1.6-1.1-2.4-1.7c-0.9-0.7-1.8-1.3-2.7-2c-0.9-0.7-1.9-1.3-2.8-2c-0.9-0.6-1.8-1.2-2.6-1.8c-1.8-0.9-3.5,2.7-5,1.6
				c-1-0.8-5-1.6-5.9-2.5c-3.6-3.6-6.1-9.4-7.4-14.5c-1.3-5.1-2-12.5-2-19V128.5z"/>
			<path class="st111" d="M74.6,120.8l9.6-1.5l17.6,7.5c0.3-0.4,3.4-1.2,3.8-1.6c0.4-0.4,3.5-1.3,3.8-1.7c0.3-0.4,3.3-1.2,3.6-1.6
				c0.3-0.4,2.6-1,2.8-1.3l4.2,39c-0.8,1-1.7,36.1-2.4,37c-0.8,0.9-1.7,36.8-2.6,37.7c0.5,0.4,1,20.7,1.5,21.3c0,0,0.1,1.8,0.1,1.9
				c0.2,3.2,0.6,6.2,1.2,8.8c0.6,2.6,1.6,4.8,3,6.7c1.1,1.5,2.6,2.7,4.4,3.8c0.5,0.3,1,0.6,1.6,0.9c2.6,1.3,6.1,2.3,10.4,2.9
				c0.2,0.3-1.2,10.1-1.1,10.4c0.4,0.6-2.4,19.5-2.1,20c-9.8-0.2-21.8-1.2-27.9-3.2c-0.8-0.6-1.6-1.2-2.5-1.9
				c-0.9-0.7-1.9-1.4-2.8-2.2c-1-0.7-2-1.5-2.9-2.2c-0.9-0.7-1.9-1.4-2.8-1.9c-1.8-0.9-3.4,3.5-4.9,2.4c-1-0.8-5.5-1.6-6.3-2.4
				c-3.5-3.5-6-9.5-7.2-14.5c-1.3-5.1-1.9-12.6-1.9-19V120.8z"/>
			<path class="st112" d="M95.3,112.5l10-1.6l17.3,9.1c0.4-0.4,3.5-1.3,3.9-1.8c0.4-0.5,3.5-1.4,3.9-1.8s3.3-1.3,3.7-1.7
				c0.4-0.4,2.7-1.1,2.9-1.4l4.8,38.4c-1,1.1-1.9,35.9-2.8,36.9c-0.9,1-1.9,36.5-3,37.6c0.5,0.5,1.1,20.5,1.7,21.2
				c0,0.1,0.1,1.8,0.1,1.8c0.2,3.2,0.7,6.2,1.3,8.8c0.6,2.6,1.6,4.8,3.1,6.7c1.1,1.5,2.6,2.7,4.4,3.8c0.5,0.3,1,0.6,1.6,0.9
				c2.6,1.4,6.1,2.4,10.3,3c0.2,0.3-1.2,10.1-1,10.4c0.5,0.7-2.2,19.4-1.9,20c-9.7-0.1-22.1-1.2-28.2-3.1c-0.8-0.6-1.7-1.4-2.6-2.1
				c-1-0.8-2-1.6-2.9-2.4c-1-0.8-2-1.6-3.1-2.4c-1-0.8-2-1.5-2.9-2.1c-1.8-0.9-3.4,4.3-4.8,3.2c-1-0.8-5.9-1.6-6.8-2.4
				c-3.5-3.5-5.9-9.6-7.1-14.6c-1.3-5-1.9-12.7-1.9-19V112.5z"/>
			<path class="st113" d="M117.6,103.6l10.4-1.7l17.1,10.6c0.4-0.5,3.5-1.4,4-1.9c0.5-0.5,3.6-1.5,4-2c0.4-0.5,3.4-1.4,3.8-1.9
				c0.4-0.5,2.7-1.2,3-1.5l5.4,37.8c-1.1,1.2-2.1,35.6-3.1,36.7c-1,1.1-2.1,36.2-3.4,37.4c0.6,0.5,1.2,20.4,1.9,21.1
				c0.1,0.1,0.1,1.8,0.2,1.8c0.2,3.2,0.7,6.1,1.4,8.8c0.6,2.6,1.7,4.8,3.1,6.7c1.1,1.5,2.6,2.7,4.4,3.8c0.5,0.3,1,0.6,1.6,0.9
				c2.6,1.4,6,2.4,10.2,3.1c0.3,0.4-1.1,10-0.8,10.4c0.5,0.8-2.1,19.3-1.8,20c-9.5-0.1-22.4-1.2-28.4-3.1c-0.9-0.7-1.7-1.5-2.7-2.3
				c-1-0.9-2-1.7-3.1-2.6c-1.1-0.9-2.1-1.7-3.2-2.6c-1-0.8-2.1-1.6-3.1-2.2c-1.7-0.9-3.3,5.1-4.7,4c-1-0.7-6.4-1.5-7.3-2.4
				c-3.4-3.4-5.8-9.7-7-14.6c-1.2-4.9-1.9-12.8-1.9-19V103.6z"/>
			<path class="st114" d="M141.5,94.3l10.8-1.7l16.8,12.1c0.5-0.5,3.6-1.5,4.1-2.1c0.5-0.6,3.7-1.6,4.2-2.2s3.4-1.5,3.9-2
				c0.4-0.5,2.8-1.3,3.1-1.7l6,37.2c-1.2,1.4-2.4,35.4-3.5,36.6c-1.1,1.2-2.4,36-3.7,37.3c0.7,0.6,1.4,20.2,2.1,21.1
				c0.1,0.1,0.1,1.8,0.2,1.8c0.3,3.2,0.8,6.1,1.4,8.8c0.7,2.6,1.7,4.8,3.1,6.6c1.1,1.5,2.6,2.7,4.4,3.8c0.5,0.3,1,0.6,1.6,0.9
				c2.6,1.4,6,2.5,10.2,3.2c0.3,0.4-1,10-0.7,10.4c0.6,0.9-1.9,19.2-1.6,19.9c-9.4-0.1-22.8-1.2-28.6-3c-0.9-0.8-1.8-1.6-2.8-2.5
				c-1-0.9-2.1-1.9-3.2-2.8c-1.1-1-2.2-1.9-3.3-2.8c-1.1-0.9-2.2-1.7-3.2-2.4c-1.7-0.9-3.3,5.9-4.7,4.9c-1-0.7-6.9-1.5-7.7-2.3
				c-3.4-3.4-5.7-9.8-6.9-14.6c-1.2-4.8-1.8-13-1.8-19V94.3z"/>
			<path class="st115" d="M166.6,84.8l11.2-1.8l16.5,13.6c0.5-0.6,3.6-1.6,4.2-2.3c0.6-0.6,3.7-1.7,4.3-2.3c0.5-0.6,3.5-1.6,4-2.2
				c0.5-0.6,2.8-1.4,3.2-1.8l6.6,36.6c-1.3,1.5-2.6,35.1-3.8,36.5c-1.3,1.4-2.6,35.7-4.1,37.2c0.7,0.7,1.5,20.1,2.3,21
				c0.1,0.1,0.1,1.8,0.2,1.8c0.3,3.2,0.8,6.1,1.5,8.7c0.7,2.6,1.7,4.8,3.1,6.6c1.1,1.5,2.6,2.7,4.3,3.9c0.5,0.3,1,0.6,1.6,0.9
				c2.6,1.4,6,2.6,10.1,3.3c0.3,0.5-0.9,9.9-0.6,10.4c0.6,1-1.8,19.1-1.4,19.9c-9.2-0.1-23.1-1.1-28.8-3c-0.9-0.8-1.9-1.7-2.9-2.7
				c-1.1-1-2.2-2-3.3-3c-1.1-1-2.3-2-3.5-3c-1.1-0.9-2.3-1.8-3.4-2.5c-1.7-0.9-3.2,6.7-4.6,5.7c-1-0.7-7.4-1.5-8.2-2.3
				c-3.3-3.3-5.6-9.9-6.8-14.7c-1.2-4.8-1.8-13.1-1.8-19V84.8z"/>
			<path class="st116" d="M192.8,75.1l11.6-1.9l16.3,15.2c0.6-0.6,3.7-1.7,4.3-2.4c0.6-0.7,3.8-1.8,4.4-2.5c0.6-0.7,3.5-1.7,4.1-2.3
				c0.5-0.6,2.9-1.5,3.3-1.9l7.2,36.1c-1.4,1.6-2.8,34.9-4.2,36.4c-1.4,1.5-2.9,35.4-4.5,37c0.8,0.7,1.6,19.9,2.5,20.9
				c0.1,0.1,0.1,1.7,0.2,1.8c0.3,3.2,0.9,6.1,1.6,8.7c0.7,2.6,1.7,4.8,3.2,6.6c1.1,1.5,2.6,2.7,4.3,3.9c0.5,0.3,1,0.6,1.6,0.9
				c2.6,1.4,6,2.6,10.1,3.4c0.3,0.5-0.8,9.8-0.5,10.3c0.7,1.1-1.6,19-1.2,19.9c-9.1-0.1-23.4-1.1-29-2.9c-0.9-0.9-1.9-1.8-3-2.8
				c-1.1-1.1-2.3-2.1-3.4-3.2c-1.2-1.1-2.4-2.1-3.6-3.2c-1.2-1-2.4-1.9-3.5-2.7c-1.7-0.8-3.2,7.6-4.5,6.5c-0.9-0.7-7.8-1.5-8.6-2.3
				c-3.3-3.3-5.5-10-6.7-14.7c-1.2-4.7-1.8-13.2-1.8-19V75.1z"/>
			<path class="st117" d="M219.7,65.6l12.1-1.9l16,16.7c0.6-0.7,3.8-1.8,4.4-2.6c0.7-0.8,3.8-1.9,4.5-2.7c0.6-0.7,3.6-1.8,4.2-2.5
				c0.6-0.7,2.9-1.6,3.3-2L272,106c-1.6,1.8-3.1,34.7-4.5,36.3c-1.5,1.6-3.1,35.2-4.9,36.9c0.9,0.8,1.8,19.7,2.7,20.8
				c0.1,0.1,0.1,1.7,0.2,1.8c0.3,3.2,0.9,6.1,1.7,8.7c0.7,2.5,1.8,4.8,3.2,6.6c1.1,1.5,2.6,2.8,4.3,3.9c0.5,0.3,1,0.6,1.6,0.9
				c2.6,1.5,5.9,2.7,10,3.5c0.4,0.5-0.8,9.8-0.4,10.3c0.7,1.2-1.5,18.9-1,19.9c-8.9-0.1-23.7-1.1-29.3-2.9c-1-0.9-2-1.9-3.1-3
				c-1.1-1.1-2.3-2.3-3.5-3.4c-1.2-1.2-2.5-2.3-3.8-3.4c-1.2-1.1-2.5-2-3.7-2.9c-1.6-0.8-3.1,8.4-4.5,7.3c-0.9-0.7-8.3-1.4-9.1-2.2
				c-3.2-3.2-5.4-10.2-6.6-14.8c-1.2-4.6-1.8-13.3-1.8-19V65.6z"/>
			<path class="st118" d="M247.1,56.1l12.5-2l15.8,18.2c0.7-0.8,3.8-1.9,4.6-2.7c0.7-0.8,3.9-2,4.6-2.8c0.7-0.8,3.7-1.9,4.3-2.7
				c0.6-0.7,3-1.6,3.4-2.2l8.4,34.9c-1.7,1.9-3.3,34.4-4.9,36.2c-1.6,1.7-3.3,34.9-5.2,36.8c0.9,0.9,1.9,19.6,2.9,20.8
				c0.1,0.1,0.2,1.7,0.2,1.8c0.4,3.2,1,6,1.7,8.7c0.7,2.5,1.8,4.7,3.2,6.6c1.1,1.5,2.6,2.8,4.3,3.9c0.5,0.3,1,0.6,1.6,0.9
				c2.6,1.5,5.9,2.7,10,3.6c0.4,0.6-0.7,9.7-0.3,10.3c0.8,1.3-1.3,18.8-0.8,19.8c-8.8-0.1-24-1.1-29.5-2.8c-1-1-2-2.1-3.2-3.2
				c-1.2-1.2-2.4-2.4-3.7-3.6c-1.3-1.2-2.6-2.4-3.9-3.6c-1.3-1.1-2.6-2.1-3.8-3c-1.6-0.8-3.1,9.2-4.4,8.2c-0.9-0.7-8.8-1.4-9.6-2.2
				c-3.2-3.2-5.3-10.3-6.5-14.8c-1.1-4.5-1.7-13.4-1.7-19.1V56.1z"/>
			<path class="st119" d="M274.8,47.1l12.9-2.1l15.5,19.7c0.7-0.8,3.9-2,4.7-2.9c0.8-0.9,4-2.1,4.7-3s3.7-2,4.4-2.8
				c0.7-0.8,3-1.7,3.5-2.3l9,34.3c-1.8,2.1-3.5,34.2-5.2,36c-1.7,1.9-3.6,34.6-5.6,36.6c1,0.9,2.1,19.4,3.1,20.7
				c0.1,0.1,0.2,1.7,0.3,1.8c0.4,3.1,1,6,1.8,8.6c0.7,2.5,1.8,4.7,3.2,6.6c1.1,1.5,2.6,2.8,4.3,3.9c0.5,0.3,1,0.6,1.5,1
				c2.6,1.5,5.9,2.8,9.9,3.7c0.4,0.6-0.6,9.7-0.2,10.3c0.8,1.4-1.2,18.7-0.6,19.8c-8.6-0.1-24.3-1.1-29.7-2.8c-1-1-2.1-2.2-3.3-3.4
				c-1.2-1.3-2.5-2.5-3.8-3.8c-1.3-1.3-2.7-2.5-4-3.7c-1.3-1.2-2.7-2.3-4-3.2c-1.6-0.8-3,10-4.3,9c-0.9-0.7-9.3-1.4-10-2.1
				c-3.1-3.1-5.3-10.4-6.4-14.8c-1.1-4.5-1.7-13.5-1.7-19.1V47.1z"/>
			<path class="st120" d="M302.6,38.4l13.3-2.1l15.2,21.3c0.8-0.9,3.9-2.1,4.8-3.1c0.8-0.9,4-2.2,4.8-3.2c0.8-0.9,3.8-2.1,4.5-3
				c0.7-0.8,3.1-1.8,3.6-2.4l9.6,33.7c-1.9,2.2-3.8,33.9-5.6,35.9c-1.8,2-3.8,34.4-6,36.5c1.1,1,2.2,19.3,3.4,20.6
				c0.1,0.1,0.2,1.7,0.3,1.8c0.4,3.1,1.1,6,1.9,8.6c0.8,2.5,1.8,4.7,3.3,6.6c1.1,1.5,2.6,2.8,4.3,3.9c0.5,0.3,1,0.6,1.5,1
				c2.6,1.5,5.9,2.8,9.8,3.8c0.5,0.7-0.5,9.6-0.1,10.3c0.9,1.4-1,18.6-0.4,19.8c-8.5-0.1-24.6-1-29.9-2.7c-1.1-1.1-2.2-2.3-3.4-3.6
				c-1.3-1.3-2.6-2.7-3.9-4c-1.4-1.4-2.7-2.7-4.2-3.9c-1.4-1.3-2.8-2.4-4.1-3.3c-1.5-0.8-3,10.8-4.2,9.8c-0.9-0.7-9.7-1.4-10.5-2.1
				c-3.1-3.1-5.2-10.5-6.3-14.9c-1.1-4.4-1.7-13.6-1.7-19.1V38.4z"/>
			<path class="st121" d="M330,30.4l13.7-2.2l15,22.8c0.8-0.9,4-2.2,4.9-3.2c0.9-1,4.1-2.3,4.9-3.3c0.8-1,3.8-2.2,4.6-3.1
				c0.7-0.9,3.1-1.9,3.7-2.6L387,71.9c-2,2.3-4,33.7-5.9,35.8c-1.9,2.1-4,34.1-6.3,36.3c1.1,1,2.3,19.1,3.6,20.5
				c0.1,0.1,0.2,1.7,0.3,1.8c0.5,3.1,1.1,6,1.9,8.6c0.8,2.5,1.8,4.7,3.3,6.6c1.1,1.5,2.6,2.8,4.3,3.9c0.5,0.3,1,0.7,1.5,1
				c2.6,1.6,5.8,2.9,9.8,3.9c0.5,0.7-0.4,9.5,0,10.3c1,1.5-0.9,18.5-0.2,19.8c-8.3-0.1-25-1-30.2-2.7c-1.1-1.1-2.2-2.4-3.5-3.8
				c-1.3-1.4-2.6-2.8-4-4.2c-1.4-1.4-2.8-2.8-4.3-4.1c-1.4-1.3-2.9-2.5-4.2-3.5c-1.5-0.8-2.9,11.6-4.2,10.6
				c-0.9-0.7-10.2-1.3-10.9-2.1c-3-3-5.1-10.6-6.2-14.9c-1.1-4.3-1.6-13.7-1.6-19.1V30.4z"/>
			<path class="st122" d="M357,23.1l14.1-2.3l14.7,24.3c0.9-1,4.1-2.3,5-3.4c1-1,4.2-2.5,5.1-3.5c0.9-1,3.9-2.4,4.7-3.3
				c0.8-0.9,3.2-2,3.7-2.7l10.8,32.6c-2.1,2.5-4.2,33.4-6.3,35.7c-2,2.2-4.3,33.8-6.7,36.2c1.2,1.1,2.5,18.9,3.8,20.5
				c0.1,0.1,0.2,1.7,0.3,1.8c0.5,3.1,1.2,5.9,2,8.6c0.8,2.5,1.9,4.7,3.3,6.6c1.1,1.5,2.6,2.8,4.3,4c0.5,0.3,1,0.7,1.5,1
				c2.6,1.6,5.8,3,9.7,4c0.5,0.7-0.4,9.5,0.1,10.2c1,1.6-0.7,18.4-0.1,19.7c-8.2-0.1-25.3-1-30.4-2.6c-1.1-1.2-2.3-2.5-3.6-4
				c-1.3-1.5-2.7-2.9-4.1-4.4c-1.4-1.5-2.9-2.9-4.4-4.3c-1.5-1.4-3-2.6-4.4-3.6c-1.5-0.8-2.9,12.4-4.1,11.5
				c-0.8-0.6-10.7-1.3-11.4-2c-3-3-5-10.7-6.1-15c-1.1-4.2-1.6-13.8-1.6-19.1V23.1z"/>
			<path class="st123" d="M383.3,16.7l14.5-2.3l14.4,25.8c0.9-1,4.1-2.4,5.1-3.5c1-1.1,4.2-2.6,5.2-3.6c0.9-1.1,3.9-2.5,4.8-3.4
				c0.8-1,3.2-2.1,3.8-2.8l11.4,32c-2.3,2.6-4.5,33.2-6.6,35.6c-2.2,2.4-4.5,33.6-7.1,36.1c1.3,1.2,2.6,18.8,4,20.4
				c0.1,0.1,0.2,1.7,0.3,1.8c0.5,3.1,1.2,5.9,2.1,8.5c0.8,2.5,1.9,4.7,3.3,6.6c1.1,1.5,2.6,2.8,4.3,4c0.5,0.3,1,0.7,1.5,1
				c2.6,1.6,5.8,3,9.7,4.1c0.5,0.8-0.3,9.4,0.2,10.2c1.1,1.7-0.6,18.3,0.1,19.7c-8.1-0.1-25.6-1-30.6-2.6c-1.1-1.3-2.3-2.7-3.7-4.2
				c-1.4-1.5-2.8-3.1-4.3-4.6c-1.5-1.6-3-3.1-4.6-4.5c-1.5-1.4-3-2.7-4.5-3.8c-1.5-0.8-2.8,13.2-4,12.3c-0.8-0.6-11.2-1.3-11.9-2
				c-2.9-2.9-4.9-10.9-5.9-15c-1.1-4.1-1.6-13.9-1.6-19.1V16.7z"/>
			<path class="st124" d="M408.7,11.3l15-2.4l14.2,27.4c1-1.1,4.2-2.5,5.2-3.7c1.1-1.2,4.3-2.7,5.3-3.8s4-2.6,4.9-3.6
				c0.9-1,3.3-2.2,3.9-3l12,31.4c-2.4,2.7-4.7,33-7,35.4c-2.3,2.5-4.8,33.3-7.5,35.9c1.4,1.2,2.7,18.6,4.2,20.3
				c0.1,0.1,0.2,1.6,0.3,1.8c0.5,3.1,1.3,5.9,2.1,8.5c0.8,2.5,1.9,4.7,3.4,6.5c1.1,1.5,2.6,2.8,4.2,4c0.5,0.3,1,0.7,1.5,1
				c2.6,1.6,5.8,3.1,9.6,4.1c0.6,0.8-0.2,9.4,0.3,10.2c1.1,1.8-0.4,18.2,0.3,19.7c-7.9-0.1-25.9-1-30.8-2.6
				c-1.2-1.3-2.4-2.8-3.8-4.3c-1.4-1.6-2.9-3.2-4.4-4.8c-1.5-1.6-3.1-3.2-4.7-4.7c-1.6-1.5-3.1-2.8-4.7-3.9
				c-1.4-0.7-2.8,14-3.9,13.1c-0.8-0.6-11.6-1.3-12.3-2c-2.9-2.9-4.8-11-5.8-15c-1-4.1-1.6-14-1.6-19.1V11.3z"/>
			<path class="st125" d="M432.8,7l15.4-2.5l13.9,28.9c1-1.1,4.2-2.6,5.4-3.9c1.1-1.2,4.4-2.8,5.4-4c1-1.2,4.1-2.7,5-3.8
				c0.9-1.1,3.3-2.3,4-3.1l12.6,30.8c-2.5,2.9-5,32.7-7.3,35.3c-2.4,2.6-5,33-7.8,35.8c1.4,1.3,2.9,18.4,4.4,20.2
				c0.1,0.1,0.2,1.6,0.4,1.8c0.6,3.1,1.3,5.9,2.2,8.5c0.8,2.5,1.9,4.6,3.4,6.5c1.1,1.5,2.6,2.8,4.2,4c0.5,0.3,1,0.7,1.5,1
				c2.6,1.7,5.7,3.1,9.6,4.2c0.6,0.9-0.1,9.3,0.4,10.2c1.2,1.9-0.3,18.1,0.5,19.7c-7.8-0.1-26.2-1-31-2.5c-1.2-1.4-2.5-2.9-3.9-4.5
				c-1.4-1.7-2.9-3.3-4.5-5c-1.6-1.7-3.2-3.3-4.8-4.9c-1.6-1.6-3.2-2.9-4.8-4.1c-1.4-0.7-2.7,14.8-3.9,13.9
				c-0.8-0.6-12.1-1.3-12.8-1.9c-2.8-2.8-4.7-11.1-5.7-15.1c-1-4-1.5-14.1-1.5-19.2V7z"/>
			<path class="st126" d="M455.4,4.1l15.8-2.5L484.9,32c1.1-1.2,4.3-2.7,5.5-4c1.2-1.3,4.4-2.9,5.5-4.1s4.1-2.8,5.1-3.9
				c1-1.1,3.4-2.4,4.1-3.2l13.2,30.2c-2.6,3-5.2,32.5-7.7,35.2c-2.5,2.7-5.2,32.7-8.2,35.7c1.5,1.3,3,18.3,4.6,20.1
				c0.1,0.1,0.2,1.6,0.4,1.8c0.6,3,1.4,5.9,2.3,8.5c0.8,2.5,2,4.6,3.4,6.5c1.1,1.5,2.6,2.8,4.2,4c0.5,0.3,1,0.7,1.5,1
				c2.6,1.7,5.7,3.2,9.5,4.3c0.6,0.9,0,9.2,0.5,10.2c1.2,2-0.1,18,0.7,19.6c-7.6-0.1-26.5-0.9-31.3-2.5c-1.2-1.4-2.5-3-4-4.7
				c-1.5-1.7-3-3.5-4.6-5.2c-1.6-1.8-3.3-3.5-5-5.1c-1.7-1.6-3.3-3-5-4.2c-1.4-0.7-2.7,15.6-3.8,14.8c-0.8-0.6-12.6-1.2-13.3-1.9
				c-2.8-2.8-4.6-11.2-5.6-15.1c-1-3.9-1.5-14.2-1.5-19.2V4.1z"/>
			<path class="st127" d="M476.4,2.6L492.6,0L506,31.9c1.1-1.2,4.4-2.9,5.6-4.2c1.2-1.3,4.5-3,5.6-4.3c1.1-1.3,4.2-2.9,5.2-4.1
				c1-1.2,3.4-2.5,4.2-3.3l13.8,29.7c-2.7,3.2-5.4,32.2-8,35.1c-2.6,2.9-5.5,32.5-8.6,35.5c1.6,1.4,3.2,18.1,4.8,20.1
				c0.1,0.2,0.3,1.6,0.4,1.8c0.6,3,1.4,5.8,2.3,8.4c0.9,2.4,2,4.6,3.4,6.5c1.1,1.5,2.6,2.8,4.2,4c0.5,0.4,1,0.7,1.5,1
				c2.6,1.7,5.7,3.2,9.5,4.4c0.7,1,0,9.2,0.6,10.1c1.3,2.1,0,17.9,0.9,19.6c-7.5-0.1-26.8-0.9-31.5-2.4c-1.2-1.5-2.6-3.1-4.1-4.9
				c-1.5-1.8-3.1-3.6-4.7-5.4c-1.7-1.8-3.4-3.6-5.1-5.3c-1.7-1.7-3.4-3.2-5.1-4.4c-1.4-0.7-2.6,16.4-3.7,15.6
				c-0.8-0.6-13.1-1.2-13.7-1.9c-2.7-2.7-4.5-11.3-5.5-15.2c-1-3.8-1.5-14.4-1.5-19.2V2.6z"/>
			<path class="st128" d="M495.4,2.7L512,0l13.1,33.5c1.2-1.3,4.4-3,5.7-4.4c1.3-1.4,4.5-3.1,5.7-4.5c1.2-1.4,4.2-3,5.3-4.2
				c1.1-1.2,3.5-2.6,4.2-3.5L560.4,46c-2.9,3.3-5.7,32-8.4,35c-2.7,3-5.7,32.2-9,35.4c1.6,1.5,3.3,18,5,20c0.1,0.2,0.3,1.6,0.4,1.8
				c0.6,3,1.5,5.8,2.4,8.4c0.9,2.4,2,4.6,3.5,6.5c1.1,1.5,2.6,2.8,4.2,4c0.5,0.4,1,0.7,1.5,1c2.6,1.7,5.7,3.3,9.4,4.5
				c0.7,1,0.1,9.1,0.7,10.1c1.4,2.2,0.2,17.8,1.1,19.6c-7.3-0.1-27.2-0.9-31.7-2.4c-1.3-1.5-2.6-3.2-4.2-5.1
				c-1.5-1.9-3.2-3.7-4.9-5.6c-1.7-1.9-3.5-3.7-5.3-5.5c-1.8-1.8-3.5-3.3-5.3-4.6c-1.3-0.7-2.6,17.2-3.7,16.4
				c-0.8-0.6-13.5-1.2-14.2-1.8c-2.6-2.6-4.4-11.4-5.4-15.2c-1-3.8-1.4-14.5-1.4-19.2V2.7z"/>
			<path class="st129" d="M512.2,4.5l17-2.7l12.9,35c1.2-1.3,4.5-3.1,5.8-4.5c1.3-1.5,4.6-3.2,5.8-4.6c1.2-1.4,4.3-3.1,5.4-4.4
				c1.1-1.3,3.5-2.6,4.3-3.6l15,28.5c-3,3.4-5.9,31.7-8.7,34.9c-2.8,3.1-6,31.9-9.3,35.3c1.7,1.5,3.4,17.8,5.2,19.9
				c0.1,0.2,0.3,1.6,0.4,1.8c0.7,3,1.5,5.8,2.5,8.4c0.9,2.4,2,4.6,3.5,6.5c1.1,1.5,2.6,2.8,4.2,4.1c0.5,0.4,1,0.7,1.5,1
				c2.6,1.8,5.7,3.4,9.3,4.6c0.7,1,0.2,9.1,0.8,10.1c1.4,2.3,0.3,17.7,1.3,19.6c-7.2-0.1-27.5-0.9-31.9-2.3
				c-1.3-1.6-2.7-3.4-4.3-5.3c-1.6-1.9-3.3-3.9-5-5.8c-1.7-2-3.5-3.8-5.4-5.7c-1.8-1.8-3.6-3.4-5.4-4.7c-1.3-0.7-2.5,18.1-3.6,17.2
				c-0.7-0.6-14-1.2-14.6-1.8c-2.6-2.6-4.4-11.5-5.3-15.2c-0.9-3.7-1.4-14.6-1.4-19.2V4.5z"/>
			<path class="st130" d="M526.6,8.2L544,5.4l12.6,36.5c1.3-1.4,4.5-3.2,5.9-4.7c1.4-1.5,4.7-3.3,6-4.8c1.3-1.5,4.4-3.2,5.5-4.5
				c1.1-1.3,3.6-2.7,4.4-3.7L594,52.1c-3.1,3.6-6.1,31.5-9.1,34.7c-3,3.2-6.2,31.7-9.7,35.1c1.8,1.6,3.6,17.6,5.4,19.8
				c0.1,0.2,0.3,1.6,0.4,1.7c0.7,3,1.6,5.8,2.6,8.4c0.9,2.4,2.1,4.6,3.5,6.5c1.1,1.5,2.5,2.8,4.2,4.1c0.5,0.4,1,0.7,1.5,1.1
				c2.6,1.8,5.6,3.4,9.3,4.7c0.7,1.1,0.3,9,1,10.1c1.5,2.3,0.5,17.6,1.5,19.5c-7-0.1-27.8-0.9-32.2-2.3c-1.3-1.7-2.8-3.5-4.4-5.5
				c-1.6-2-3.3-4-5.1-6c-1.8-2-3.6-4-5.5-5.9c-1.9-1.9-3.7-3.5-5.6-4.9c-1.3-0.7-2.5,18.9-3.5,18.1c-0.7-0.5-14.5-1.1-15.1-1.7
				c-2.5-2.5-4.3-11.7-5.2-15.3c-0.9-3.6-1.4-14.7-1.4-19.2V8.2z"/>
			<path class="st131" d="M538.3,13.9l17.8-2.9l12.3,38c1.3-1.5,4.6-3.3,6-4.8c1.4-1.6,4.7-3.4,6.1-5c1.3-1.5,4.4-3.3,5.6-4.7
				c1.2-1.4,3.6-2.8,4.5-3.9L606.9,58c-3.2,3.7-6.4,31.3-9.4,34.6c-3.1,3.4-6.4,31.4-10.1,35c1.8,1.6,3.7,17.5,5.7,19.8
				c0.2,0.2,0.3,1.6,0.5,1.7c0.7,3,1.6,5.7,2.6,8.3c0.9,2.4,2.1,4.6,3.5,6.5c1.1,1.5,2.5,2.8,4.2,4.1c0.5,0.4,1,0.7,1.5,1.1
				c2.6,1.8,5.6,3.5,9.2,4.8c0.8,1.1,0.4,9,1.1,10.1c1.5,2.4,0.6,17.5,1.6,19.5c-6.9-0.1-28.1-0.8-32.4-2.2
				c-1.4-1.7-2.8-3.6-4.5-5.6c-1.7-2.1-3.4-4.2-5.2-6.2c-1.8-2.1-3.7-4.1-5.7-6.1c-1.9-1.9-3.8-3.6-5.7-5
				c-1.3-0.6-2.4,19.7-3.4,18.9c-0.7-0.5-15-1.1-15.6-1.7c-2.5-2.5-4.2-11.8-5.1-15.3c-0.9-3.5-1.3-14.8-1.3-19.2V13.9z"/>
			<path class="st132" d="M547.1,21.7l18.3-2.9l12.1,39.6c1.4-1.5,4.7-3.4,6.1-5c1.5-1.6,4.8-3.5,6.2-5.1s4.5-3.4,5.7-4.8
				c1.2-1.4,3.7-2.9,4.6-4l16.8,26.8c-3.3,3.8-6.6,31-9.8,34.5c-3.2,3.5-6.7,31.1-10.5,34.8c1.9,1.7,3.8,17.3,5.9,19.7
				c0.2,0.2,0.3,1.6,0.5,1.7c0.8,3,1.7,5.7,2.7,8.3c0.9,2.4,2.1,4.6,3.6,6.5c1.2,1.5,2.5,2.9,4.2,4.1c0.5,0.4,1,0.7,1.5,1.1
				c2.6,1.8,5.6,3.5,9.2,4.9c0.8,1.2,0.4,8.9,1.2,10.1c1.6,2.5,0.8,17.4,1.8,19.5c-6.7-0.1-28.4-0.8-32.6-2.2
				c-1.4-1.8-2.9-3.7-4.6-5.8c-1.7-2.2-3.5-4.3-5.3-6.4c-1.9-2.2-3.8-4.2-5.8-6.3c-2-2-3.9-3.7-5.9-5.2c-1.2-0.6-2.3,20.5-3.4,19.7
				c-0.7-0.5-15.4-1.1-16-1.7c-2.4-2.4-4.1-11.9-5-15.4c-0.9-3.5-1.3-14.9-1.3-19.2V21.7z"/>
			<path class="st133" d="M552.8,31.8l18.7-3l11.8,41.1c1.4-1.6,4.7-3.5,6.3-5.2c1.5-1.7,4.9-3.7,6.3-5.3s4.5-3.5,5.8-5
				c1.3-1.5,3.7-3,4.7-4.1l17.4,26.2c-3.5,4-6.8,30.8-10.1,34.4c-3.3,3.6-6.9,30.9-10.8,34.7c2,1.8,4,17.2,6.1,19.6
				c0.2,0.2,0.3,1.5,0.5,1.7c0.8,3,1.7,5.7,2.8,8.3c1,2.4,2.1,4.5,3.6,6.4c1.2,1.5,2.5,2.9,4.1,4.1c0.5,0.4,1,0.7,1.4,1.1
				c2.6,1.9,5.6,3.6,9.1,5c0.8,1.2,0.5,8.8,1.3,10c1.6,2.6,0.9,17.3,2,19.4c-6.6-0.1-28.7-0.8-32.8-2.1c-1.4-1.8-3-3.8-4.7-6
				c-1.7-2.2-3.6-4.4-5.5-6.6c-1.9-2.2-3.9-4.4-5.9-6.5c-2-2.1-4-3.8-6-5.3c-1.2-0.6-2.3,21.3-3.3,20.5c-0.7-0.5-15.9-1.1-16.5-1.6
				c-2.4-2.4-4-12-4.9-15.4c-0.9-3.4-1.3-15-1.3-19.3V31.8z"/>
			<path class="st134" d="M555,44.3l19.1-3.1l11.6,42.6c1.5-1.6,4.8-3.6,6.4-5.3c1.6-1.7,4.9-3.8,6.4-5.5c1.5-1.7,4.6-3.6,5.9-5.2
				c1.3-1.5,3.8-3.1,4.7-4.2l18,25.6c-3.6,4.1-7.1,30.5-10.5,34.3c-3.4,3.7-7.1,30.6-11.2,34.6c2,1.8,4.1,17,6.3,19.5
				c0.2,0.2,0.3,1.5,0.5,1.7c0.8,2.9,1.8,5.7,2.8,8.3c1,2.4,2.1,4.5,3.6,6.4c1.2,1.5,2.5,2.9,4.1,4.1c0.5,0.4,1,0.7,1.4,1.1
				c2.5,1.9,5.5,3.6,9.1,5.1c0.9,1.2,0.6,8.8,1.4,10c1.7,2.7,1.1,17.2,2.2,19.4c-6.4-0.1-29-0.8-33-2.1c-1.4-1.9-3-4-4.8-6.2
				c-1.8-2.3-3.6-4.6-5.6-6.8c-2-2.3-4-4.5-6.1-6.7c-2.1-2.1-4.1-4-6.2-5.5c-1.2-0.6-2.2,22.1-3.2,21.4c-0.7-0.5-16.4-1-16.9-1.6
				c-2.3-2.3-3.9-12.1-4.8-15.4c-0.8-3.3-1.3-15.1-1.3-19.3V44.3z"/>
			<path class="st135" d="M553.6,59.4l19.5-3.1l11.3,44.1c1.5-1.7,4.8-3.7,6.5-5.5c1.6-1.8,5-3.9,6.5-5.6c1.5-1.8,4.6-3.7,6-5.3
				c1.4-1.6,3.8-3.2,4.8-4.4l18.6,25c-3.7,4.3-7.3,30.3-10.8,34.1c-3.5,3.9-7.4,30.3-11.6,34.4c2.1,1.9,4.3,16.8,6.5,19.5
				c0.2,0.2,0.4,1.5,0.5,1.7c0.8,2.9,1.8,5.7,2.9,8.2c1,2.4,2.2,4.5,3.6,6.4c1.2,1.5,2.5,2.9,4.1,4.2c0.5,0.4,0.9,0.7,1.4,1.1
				c2.5,1.9,5.5,3.7,9,5.2c0.9,1.3,0.7,8.7,1.5,10c1.7,2.8,1.2,17.1,2.4,19.4c-6.3-0.1-29.3-0.8-33.3-2c-1.5-1.9-3.1-4.1-4.9-6.4
				c-1.8-2.4-3.7-4.7-5.7-7.1c-2-2.4-4.1-4.6-6.2-6.8c-2.1-2.2-4.2-4.1-6.3-5.6c-1.1-0.6-2.2,22.9-3.1,22.2
				c-0.6-0.5-16.9-1-17.4-1.6c-2.3-2.3-3.8-12.2-4.6-15.5c-0.8-3.2-1.2-15.2-1.2-19.3V59.4z"/>
			<path class="st136" d="M548.3,77.2l19.9-3.2l11,45.7c1.6-1.7,4.9-3.8,6.6-5.6c1.7-1.9,5-4,6.6-5.8c1.6-1.8,4.7-3.8,6.1-5.5
				c1.4-1.6,3.9-3.3,4.9-4.5l19.2,24.4c-3.8,4.4-7.6,30-11.2,34c-3.6,4-7.6,30.1-11.9,34.3c2.2,1.9,4.4,16.7,6.7,19.4
				c0.2,0.2,0.4,1.5,0.5,1.7c0.9,2.9,1.9,5.6,3,8.2c1,2.4,2.2,4.5,3.7,6.4c1.2,1.5,2.5,2.9,4.1,4.2c0.5,0.4,0.9,0.7,1.4,1.1
				c2.5,2,5.5,3.8,8.9,5.3c0.9,1.3,0.8,8.7,1.6,10c1.8,2.9,1.4,17,2.6,19.4c-6.2-0.1-29.7-0.8-33.5-2c-1.5-2-3.1-4.2-5-6.6
				c-1.8-2.4-3.8-4.8-5.8-7.3c-2-2.4-4.2-4.8-6.4-7c-2.2-2.3-4.3-4.2-6.4-5.8c-1.1-0.6-2.1,23.7-3.1,23c-0.6-0.5-17.3-1-17.9-1.5
				c-2.2-2.2-3.7-12.4-4.5-15.5c-0.8-3.2-1.2-15.3-1.2-19.3V77.2z"/>
			<path class="st137" d="M538.8,97.9l20.3-3.3l10.8,47.2c1.6-1.8,5-3.9,6.7-5.8c1.7-1.9,5.1-4.1,6.7-6c1.6-1.9,4.8-3.9,6.2-5.6
				c1.4-1.7,3.9-3.4,5-4.6l19.8,23.8c-3.9,4.5-7.8,29.8-11.5,33.9c-3.8,4.1-7.9,29.8-12.3,34.2c2.2,2,4.5,16.5,6.9,19.3
				c0.2,0.2,0.4,1.5,0.6,1.7c0.9,2.9,1.9,5.6,3,8.2c1,2.3,2.2,4.5,3.7,6.4c1.2,1.5,2.5,2.9,4.1,4.2c0.5,0.4,0.9,0.8,1.4,1.1
				c2.5,2,5.5,3.8,8.9,5.4c0.9,1.4,0.8,8.6,1.7,10c1.9,3,1.5,16.9,2.8,19.3c-6-0.1-30-0.7-33.7-1.9c-1.5-2-3.2-4.3-5.1-6.8
				c-1.9-2.5-3.9-5-5.9-7.5c-2.1-2.5-4.2-4.9-6.5-7.2c-2.2-2.3-4.4-4.3-6.6-5.9c-1.1-0.6-2.1,24.5-3,23.8c-0.6-0.5-17.8-1-18.3-1.5
				c-2.2-2.2-3.6-12.5-4.4-15.6c-0.8-3.1-1.2-15.4-1.2-19.3V97.9z"/>
			<path class="st138" d="M521.4,128.2l20.7-3.3l10.5,48.7c1.7-1.8,5-4,6.8-6c1.8-2,5.2-4.2,6.9-6.1c1.7-1.9,4.8-4,6.3-5.8
				c1.5-1.7,4-3.5,5.1-4.8l20.4,23.3c-4.1,4.7-8,29.6-11.9,33.8c-3.9,4.2-8.1,29.5-12.7,34c2.3,2.1,4.7,16.3,7.1,19.2
				c0.2,0.2,0.4,1.5,0.6,1.7c0.9,2.9,2,5.6,3.1,8.2c1,2.3,2.2,4.5,3.7,6.4c1.2,1.5,2.5,2.9,4.1,4.2c0.5,0.4,0.9,0.8,1.4,1.1
				c2.5,2,5.4,3.9,8.8,5.5c1,1.4,0.9,8.5,1.8,10c1.9,3.1,1.7,16.8,3,19.3c-5.9-0.1-30.3-0.7-33.9-1.9c-1.6-2.1-3.3-4.4-5.2-6.9
				c-1.9-2.6-4-5.1-6.1-7.7c-2.1-2.6-4.3-5-6.6-7.4c-2.3-2.4-4.5-4.4-6.7-6.1c-1.1-0.5-2,25.3-2.9,24.7c-0.6-0.5-18.3-0.9-18.8-1.5
				c-2.1-2.1-3.6-12.6-4.3-15.6c-0.8-3-1.1-15.5-1.1-19.3V128.2z"/>
			<path class="st139" d="M500.5,166.4l21.1-3.4l10.2,50.2c1.7-1.9,5.1-4.1,6.9-6.1c1.8-2,5.2-4.3,7-6.3c1.7-2,4.9-4.1,6.4-5.9
				c1.5-1.8,4-3.6,5.2-4.9l20.9,22.7c-4.2,4.8-8.3,29.3-12.2,33.7c-4,4.4-8.3,29.2-13.1,33.9c2.4,2.1,4.8,16.2,7.3,19.1
				c0.2,0.2,0.4,1.5,0.6,1.7c0.9,2.9,2,5.6,3.2,8.1c1,2.3,2.3,4.5,3.7,6.4c1.2,1.5,2.5,2.9,4.1,4.2c0.5,0.4,0.9,0.8,1.4,1.1
				c2.5,2,5.4,3.9,8.8,5.6c1,1.5,1,8.5,1.9,9.9c2,3.2,1.8,16.7,3.1,19.3c-5.7-0.1-30.6-0.7-34.2-1.8c-1.6-2.2-3.3-4.5-5.3-7.1
				c-2-2.6-4-5.2-6.2-7.9c-2.2-2.6-4.4-5.2-6.8-7.6c-2.3-2.4-4.6-4.5-6.9-6.3c-1-0.5-2,26.1-2.8,25.5c-0.6-0.4-18.8-0.9-19.3-1.4
				c-2.1-2.1-3.5-12.7-4.2-15.6c-0.7-2.9-1.1-15.6-1.1-19.3V166.4z"/>
			<path class="st140" d="M483.2,200.8l21.6-3.5l10,51.8c1.8-1.9,5.1-4.2,7.1-6.3c1.9-2.1,5.3-4.4,7.1-6.5c1.8-2.1,4.9-4.2,6.5-6.1
				c1.6-1.9,4.1-3.7,5.2-5l21.5,22.1c-4.3,4.9-8.5,29.1-12.6,33.6c-4.1,4.5-8.6,29-13.4,33.8c2.4,2.2,4.9,16,7.5,19.1
				c0.2,0.2,0.4,1.5,0.6,1.7c1,2.9,2.1,5.5,3.3,8.1c1.1,2.3,2.3,4.5,3.8,6.4c1.2,1.5,2.5,2.9,4.1,4.2c0.5,0.4,0.9,0.8,1.4,1.2
				c2.5,2.1,5.4,4,8.7,5.7c1,1.5,1.1,8.4,2,9.9c2,3.2,2,16.6,3.3,19.3c-5.6-0.1-30.9-0.7-34.4-1.8c-1.6-2.2-3.4-4.7-5.4-7.3
				c-2-2.7-4.1-5.4-6.3-8.1c-2.2-2.7-4.5-5.3-6.9-7.8c-2.4-2.5-4.7-4.6-7-6.4c-1-0.5-1.9,26.9-2.8,26.3c-0.6-0.4-19.2-0.9-19.7-1.4
				c-2-2-3.4-12.8-4.1-15.7c-0.7-2.9-1.1-15.8-1.1-19.3V200.8z"/>
			<path class="st141" d="M469.5,231.6l22-3.5l9.7,53.3c1.8-2,5.2-4.3,7.2-6.5c2-2.2,5.4-4.5,7.2-6.6s5-4.4,6.6-6.3
				c1.6-1.9,4.2-3.7,5.3-5.2l22.1,21.5c-4.4,5.1-8.7,28.8-12.9,33.4c-4.2,4.6-8.8,28.7-13.8,33.6c2.5,2.3,5.1,15.9,7.8,19
				c0.2,0.2,0.4,1.4,0.6,1.7c1,2.8,2.1,5.5,3.3,8.1c1.1,2.3,2.3,4.4,3.8,6.4c1.2,1.5,2.5,2.9,4.1,4.2c0.5,0.4,0.9,0.8,1.4,1.2
				c2.5,2.1,5.4,4,8.7,5.8c1.1,1.5,1.2,8.4,2.1,9.9c2.1,3.3,2.1,16.5,3.5,19.2c-5.4-0.1-31.2-0.7-34.6-1.8c-1.6-2.3-3.4-4.8-5.4-7.5
				c-2-2.8-4.2-5.5-6.4-8.3c-2.3-2.8-4.6-5.4-7-8c-2.4-2.6-4.8-4.7-7.2-6.6c-1-0.5-1.9,27.7-2.7,27.1c-0.6-0.4-19.7-0.9-20.2-1.3
				c-2-2-3.3-12.9-4-15.7c-0.7-2.8-1.1-15.9-1.1-19.4V231.6z"/>
			<path class="st141" d="M459.2,259l22.4-3.6l9.5,54.8c1.9-2,5.3-4.4,7.3-6.6c2-2.2,5.4-4.6,7.3-6.8c1.9-2.2,5-4.5,6.7-6.4
				c1.7-2,4.2-3.8,5.4-5.3l22.7,20.9c-4.5,5.2-9,28.6-13.3,33.3c-4.3,4.7-9.1,28.4-14.2,33.5c2.6,2.3,5.2,15.7,8,18.9
				c0.2,0.3,0.4,1.4,0.6,1.7c1,2.8,2.2,5.5,3.4,8.1c1.1,2.3,2.3,4.4,3.8,6.4c1.2,1.5,2.5,2.9,4,4.3c0.5,0.4,0.9,0.8,1.4,1.2
				c2.5,2.1,5.3,4.1,8.6,5.9c1.1,1.6,1.2,8.3,2.2,9.9c2.1,3.4,2.3,16.4,3.7,19.2c-5.3-0.1-31.5-0.6-34.8-1.7
				c-1.7-2.3-3.5-4.9-5.5-7.7c-2.1-2.8-4.3-5.6-6.5-8.5c-2.3-2.8-4.7-5.6-7.2-8.2c-2.5-2.6-4.9-4.9-7.3-6.7c-1-0.5-1.8,28.6-2.6,28
				c-0.5-0.4-20.2-0.8-20.6-1.3c-1.9-1.9-3.2-13-3.9-15.8c-0.7-2.7-1-16-1-19.4V259z"/>
			<path class="st142" d="M452.1,282.9l22.8-3.7l9.2,56.3c1.9-2.1,5.3-4.5,7.4-6.8c2.1-2.3,5.5-4.7,7.4-7s5.1-4.6,6.8-6.6
				c1.7-2,4.3-3.9,5.5-5.4l23.3,20.4c-4.7,5.3-9.2,28.3-13.6,33.2c-4.4,4.9-9.3,28.2-14.6,33.3c2.6,2.4,5.4,15.5,8.2,18.8
				c0.2,0.3,0.4,1.4,0.7,1.7c1,2.8,2.2,5.5,3.5,8c1.1,2.3,2.4,4.4,3.8,6.3c1.2,1.5,2.5,2.9,4,4.3c0.4,0.4,0.9,0.8,1.4,1.2
				c2.5,2.1,5.3,4.2,8.6,5.9c1.1,1.6,1.3,8.2,2.3,9.9c2.2,3.5,2.4,16.3,3.9,19.2c-5.1-0.1-31.9-0.6-35-1.7c-1.7-2.4-3.6-5-5.6-7.9
				c-2.1-2.9-4.3-5.8-6.7-8.7c-2.3-2.9-4.8-5.7-7.3-8.4c-2.5-2.7-5-5-7.5-6.9c-0.9-0.5-1.8,29.4-2.6,28.8
				c-0.5-0.4-20.6-0.8-21.1-1.3c-1.9-1.9-3.1-13.2-3.8-15.8c-0.7-2.6-1-16.1-1-19.4V282.9z"/>
			<path class="st143" d="M448.1,303.8l23.2-3.7l8.9,57.9c2-2.1,5.4-4.6,7.5-6.9c2.1-2.3,5.6-4.9,7.5-7.1c2-2.3,5.2-4.7,6.9-6.7
				c1.8-2.1,4.3-4,5.6-5.5l23.9,19.8c-4.8,5.5-9.4,28.1-14,33.1c-4.6,5-9.5,27.9-14.9,33.2c2.7,2.4,5.5,15.4,8.4,18.8
				c0.2,0.3,0.5,1.4,0.7,1.7c1.1,2.8,2.3,5.5,3.5,8c1.1,2.3,2.4,4.4,3.9,6.3c1.2,1.5,2.5,2.9,4,4.3c0.4,0.4,0.9,0.8,1.4,1.2
				c2.5,2.2,5.3,4.2,8.5,6c1.1,1.7,1.4,8.2,2.4,9.8c2.3,3.6,2.6,16.2,4.1,19.2c-5-0.1-32.2-0.6-35.3-1.6c-1.7-2.4-3.6-5.1-5.7-8.1
				c-2.1-3-4.4-5.9-6.8-8.9c-2.4-3-4.9-5.8-7.4-8.6c-2.6-2.7-5.1-5.1-7.6-7c-0.9-0.5-1.7,30.2-2.5,29.6c-0.5-0.4-21.1-0.8-21.6-1.2
				c-1.8-1.8-3-13.3-3.7-15.8c-0.7-2.6-1-16.2-1-19.4V303.8z"/>
			<path class="st144" d="M446.9,321.5l23.6-3.8l8.7,59.4c2-2.2,5.5-4.7,7.6-7.1c2.2-2.4,5.6-5,7.6-7.3c2-2.3,5.2-4.8,7-6.9
				c1.8-2.1,4.4-4.1,5.6-5.7l24.5,19.2c-4.9,5.6-9.7,27.9-14.3,33c-4.7,5.1-9.8,27.6-15.3,33.1c2.8,2.5,5.6,15.2,8.6,18.7
				c0.2,0.3,0.5,1.4,0.7,1.7c1.1,2.8,2.3,5.4,3.6,8c1.1,2.3,2.4,4.4,3.9,6.3c1.2,1.5,2.5,2.9,4,4.3c0.4,0.4,0.9,0.8,1.4,1.2
				c2.5,2.2,5.3,4.3,8.4,6.1c1.2,1.7,1.5,8.1,2.5,9.8c2.3,3.7,2.7,16.1,4.3,19.1c-4.8-0.1-32.5-0.6-35.5-1.6
				c-1.7-2.5-3.7-5.3-5.8-8.3c-2.2-3-4.5-6.1-6.9-9.1c-2.4-3-4.9-6-7.6-8.8c-2.6-2.8-5.2-5.2-7.8-7.2c-0.9-0.5-1.7,31-2.4,30.4
				c-0.5-0.4-21.6-0.8-22-1.2c-1.7-1.7-2.9-13.4-3.6-15.9c-0.6-2.5-0.9-16.3-0.9-19.4V321.5z"/>
			<path class="st145" d="M448.5,336.4l24-3.9l8.4,60.9c2.1-2.3,5.5-4.8,7.7-7.3c2.2-2.4,5.7-5.1,7.8-7.5s5.3-4.9,7.1-7
				c1.8-2.2,4.4-4.2,5.7-5.8l25.1,18.6c-5,5.8-9.9,27.6-14.7,32.8c-4.8,5.2-10,27.4-15.7,32.9c2.8,2.6,5.8,15.1,8.8,18.6
				c0.2,0.3,0.5,1.4,0.7,1.7c1.1,2.8,2.4,5.4,3.7,8c1.1,2.3,2.4,4.4,3.9,6.3c1.2,1.5,2.5,2.9,4,4.3c0.4,0.4,0.9,0.8,1.4,1.2
				c2.5,2.2,5.2,4.3,8.4,6.2c1.2,1.7,1.6,8.1,2.6,9.8c2.4,3.8,2.9,16,4.5,19.1c-4.7-0.1-32.8-0.6-35.7-1.5c-1.8-2.5-3.7-5.4-5.9-8.4
				c-2.2-3.1-4.6-6.2-7-9.3c-2.5-3.1-5-6.1-7.7-9c-2.7-2.9-5.3-5.3-7.9-7.3c-0.9-0.4-1.6,31.8-2.3,31.3c-0.5-0.4-22.1-0.8-22.5-1.2
				c-1.7-1.7-2.8-13.5-3.5-15.9c-0.6-2.4-0.9-16.4-0.9-19.4V336.4z"/>
			<path class="st146" d="M452.7,348.5l24.4-3.9l8.1,62.4c2.1-2.3,5.6-4.9,7.8-7.4c2.3-2.5,5.7-5.2,7.9-7.6c2.1-2.5,5.3-5,7.2-7.2
				c1.9-2.2,4.5-4.3,5.8-5.9l25.7,18c-5.1,5.9-10.1,27.4-15,32.7c-4.9,5.4-10.2,27.1-16.1,32.8c2.9,2.6,5.9,14.9,9,18.5
				c0.2,0.3,0.5,1.4,0.7,1.7c1.2,2.8,2.4,5.4,3.7,7.9c1.2,2.3,2.4,4.4,3.9,6.3c1.2,1.5,2.5,3,4,4.3c0.4,0.4,0.9,0.8,1.4,1.2
				c2.5,2.2,5.2,4.4,8.3,6.3c1.2,1.8,1.6,8,2.8,9.8c2.4,3.9,3,15.9,4.7,19.1c-4.5-0.1-33.1-0.6-35.9-1.5c-1.8-2.6-3.8-5.5-6-8.6
				c-2.3-3.2-4.6-6.3-7.1-9.5c-2.5-3.2-5.1-6.2-7.9-9.2c-2.7-2.9-5.4-5.4-8.1-7.5c-0.8-0.4-1.6,32.6-2.3,32.1
				c-0.5-0.4-22.5-0.7-22.9-1.1c-1.6-1.6-2.8-13.6-3.4-16c-0.6-2.3-0.9-16.5-0.9-19.4V348.5z"/>
			<path class="st147" d="M459.3,358l24.9-4l7.9,64c2.2-2.4,5.6-5,8-7.6c2.3-2.6,5.8-5.3,8-7.8c2.2-2.5,5.4-5.1,7.3-7.4
				c1.9-2.3,4.5-4.4,5.9-6.1l26.3,17.4c-5.3,6-10.4,27.1-15.4,32.6c-5,5.5-10.5,26.8-16.4,32.7c3,2.7,6,14.7,9.2,18.5
				c0.2,0.3,0.5,1.4,0.7,1.6c1.2,2.8,2.5,5.4,3.8,7.9c1.2,2.2,2.5,4.4,4,6.3c1.2,1.5,2.5,3,4,4.3c0.4,0.4,0.9,0.8,1.3,1.2
				c2.5,2.3,5.2,4.5,8.3,6.4c1.2,1.8,1.7,7.9,2.9,9.8c2.5,4,3.2,15.8,4.8,19.1c-4.4-0.1-33.4-0.5-36.2-1.4c-1.8-2.7-3.9-5.6-6.1-8.8
				c-2.3-3.2-4.7-6.5-7.3-9.7c-2.5-3.2-5.2-6.4-8-9.4c-2.8-3-5.5-5.5-8.2-7.6c-0.8-0.4-1.5,33.4-2.2,32.9c-0.5-0.3-23-0.7-23.4-1.1
				c-1.6-1.6-2.7-13.7-3.2-16c-0.6-2.3-0.9-16.6-0.9-19.5V358z"/>
			<path class="st148" d="M468,365.1l25.3-4.1l7.6,65.5c2.2-2.4,5.7-5.1,8.1-7.7c2.4-2.6,5.9-5.4,8.1-8s5.4-5.2,7.4-7.5
				c2-2.3,4.6-4.5,6-6.2l26.9,16.9c-5.4,6.2-10.6,26.9-15.7,32.5c-5.1,5.6-10.7,26.6-16.8,32.5c3,2.7,6.2,14.6,9.4,18.4
				c0.3,0.3,0.5,1.3,0.8,1.6c1.2,2.7,2.5,5.4,3.9,7.9c1.2,2.2,2.5,4.3,4,6.3c1.2,1.5,2.5,3,4,4.4c0.4,0.4,0.9,0.8,1.3,1.2
				c2.5,2.3,5.2,4.5,8.2,6.5c1.3,1.9,1.8,7.9,3,9.8c2.5,4.1,3.3,15.7,5,19c-4.2-0.1-33.7-0.5-36.4-1.4c-1.9-2.7-3.9-5.7-6.2-9
				c-2.3-3.3-4.8-6.6-7.4-9.9c-2.6-3.3-5.3-6.5-8.1-9.6c-2.8-3.1-5.6-5.7-8.4-7.8c-0.8-0.4-1.5,34.2-2.1,33.7
				c-0.4-0.3-23.5-0.7-23.9-1.1c-1.5-1.5-2.6-13.9-3.1-16c-0.6-2.2-0.8-16.7-0.8-19.5V365.1z"/>
			<path class="st149" d="M478.9,369.8l25.7-4.1l7.4,67c2.3-2.5,5.8-5.2,8.2-7.9c2.4-2.7,5.9-5.5,8.2-8.1c2.3-2.6,5.5-5.3,7.5-7.7
				c2-2.4,4.6-4.6,6.1-6.3l27.5,16.3c-5.5,6.3-10.9,26.6-16.1,32.4c-5.2,5.7-11,26.3-17.2,32.4c3.1,2.8,6.3,14.4,9.6,18.3
				c0.3,0.3,0.5,1.3,0.8,1.6c1.2,2.7,2.6,5.3,3.9,7.9c1.2,2.2,2.5,4.3,4,6.3c1.2,1.5,2.5,3,4,4.4c0.4,0.4,0.9,0.8,1.3,1.3
				c2.5,2.3,5.1,4.6,8.2,6.6c1.3,1.9,1.9,7.8,3.1,9.7c2.6,4.2,3.5,15.6,5.2,19c-4.1-0.1-34.1-0.5-36.6-1.3c-1.9-2.8-4-5.8-6.3-9.2
				c-2.4-3.4-4.9-6.7-7.5-10.1c-2.6-3.4-5.4-6.6-8.3-9.7c-2.9-3.1-5.7-5.8-8.5-8c-0.7-0.4-1.4,35-2,34.6c-0.4-0.3-24-0.7-24.3-1
				c-1.5-1.5-2.5-14-3-16.1c-0.5-2.1-0.8-16.8-0.8-19.5V369.8z"/>
			<path class="st150" d="M491.6,372.4l26.1-4.2l7.1,68.5c2.3-2.5,5.8-5.3,8.3-8.1c2.5-2.7,6-5.6,8.3-8.3c2.3-2.7,5.6-5.4,7.6-7.8
				c2.1-2.4,4.7-4.7,6.1-6.4l28.1,15.7c-5.6,6.4-11.1,26.4-16.4,32.3c-5.3,5.9-11.2,26-17.5,32.3c3.2,2.9,6.5,14.3,9.8,18.2
				c0.3,0.3,0.5,1.3,0.8,1.6c1.3,2.7,2.6,5.3,4,7.8c1.2,2.2,2.5,4.3,4,6.3c1.2,1.5,2.5,3,3.9,4.4c0.4,0.4,0.9,0.8,1.3,1.3
				c2.5,2.3,5.1,4.6,8.1,6.7c1.3,2,2,7.8,3.2,9.7c2.6,4.2,3.6,15.5,5.4,19c-4-0.1-34.4-0.5-36.8-1.3c-1.9-2.8-4.1-6-6.4-9.4
				c-2.4-3.4-5-6.9-7.6-10.3c-2.7-3.4-5.5-6.8-8.4-9.9c-2.9-3.2-5.8-5.9-8.6-8.1c-0.7-0.4-1.4,35.8-2,35.4c-0.4-0.3-24.4-0.6-24.8-1
				c-1.4-1.4-2.4-14.1-2.9-16.1c-0.5-2-0.8-16.9-0.8-19.5V372.4z"/>
			<path class="st151" d="M506.1,373l26.5-4.3l6.8,70.1c2.4-2.6,5.9-5.4,8.4-8.2c2.5-2.8,6.1-5.7,8.4-8.5c2.4-2.7,5.6-5.5,7.7-8
				c2.1-2.5,4.7-4.7,6.2-6.6l28.7,15.1c-5.7,6.6-11.3,26.2-16.8,32.1c-5.5,6-11.4,25.7-17.9,32.1c3.2,2.9,6.6,14.1,10.1,18.1
				c0.3,0.3,0.5,1.3,0.8,1.6c1.3,2.7,2.7,5.3,4.1,7.8c1.2,2.2,2.6,4.3,4.1,6.3c1.2,1.5,2.5,3,3.9,4.4c0.4,0.4,0.9,0.8,1.3,1.3
				c2.5,2.4,5.1,4.7,8,6.8c1.4,2,2,7.7,3.3,9.7c2.7,4.3,3.8,15.4,5.6,19c-3.8-0.1-34.7-0.5-37-1.2c-1.9-2.9-4.1-6.1-6.5-9.6
				c-2.4-3.5-5-7-7.7-10.5c-2.7-3.5-5.6-6.9-8.5-10.1c-3-3.2-5.9-6-8.8-8.3c-0.7-0.4-1.3,36.6-1.9,36.2c-0.4-0.3-24.9-0.6-25.3-0.9
				c-1.4-1.4-2.3-14.2-2.8-16.2c-0.5-2-0.7-17-0.7-19.5V373z"/>
			<path class="st152" d="M522.1,371.7l26.9-4.3l6.6,71.6c2.4-2.6,5.9-5.5,8.5-8.4c2.6-2.9,6.1-5.8,8.5-8.6c2.4-2.8,5.7-5.6,7.8-8.1
				c2.1-2.5,4.8-4.8,6.3-6.7l29.3,14.5c-5.9,6.7-11.6,25.9-17.1,32c-5.6,6.1-11.7,25.5-18.3,32c3.3,3,6.7,13.9,10.3,18.1
				c0.3,0.3,0.6,1.3,0.8,1.6c1.3,2.7,2.7,5.3,4.2,7.8c1.2,2.2,2.6,4.3,4.1,6.2c1.2,1.5,2.5,3,3.9,4.4c0.4,0.4,0.9,0.9,1.3,1.3
				c2.5,2.4,5.1,4.7,8,6.9c1.4,2,2.1,7.6,3.4,9.7c2.8,4.4,3.9,15.3,5.8,18.9c-3.7-0.1-35-0.5-37.3-1.2c-2-2.9-4.2-6.2-6.6-9.7
				c-2.5-3.6-5.1-7.1-7.9-10.7c-2.8-3.6-5.7-7-8.7-10.3c-3-3.3-6-6.1-8.9-8.4c-0.7-0.3-1.3,37.4-1.8,37c-0.4-0.3-25.4-0.6-25.7-0.9
				c-1.3-1.3-2.2-14.3-2.7-16.2c-0.5-1.9-0.7-17.2-0.7-19.5V371.7z"/>
			<path class="st153" d="M539.5,368.6l27.3-4.4l6.3,73.1c2.5-2.7,6-5.6,8.6-8.6c2.6-2.9,6.2-6,8.7-8.8c2.5-2.9,5.7-5.7,7.9-8.3
				c2.2-2.6,4.8-4.9,6.4-6.8l29.9,14c-6,6.9-11.8,25.7-17.5,31.9c-5.7,6.2-11.9,25.2-18.7,31.8c3.4,3,6.9,13.8,10.5,18
				c0.3,0.3,0.6,1.3,0.8,1.6c1.3,2.7,2.8,5.2,4.2,7.8c1.3,2.2,2.6,4.3,4.1,6.2c1.2,1.5,2.5,3,3.9,4.4c0.4,0.4,0.9,0.9,1.3,1.3
				c2.4,2.4,5.1,4.8,7.9,7c1.4,2.1,2.2,7.6,3.5,9.7c2.8,4.5,4.1,15.2,6,18.9c-3.5-0.1-35.3-0.4-37.5-1.1c-2-3-4.2-6.3-6.7-9.9
				c-2.5-3.6-5.2-7.3-8-10.9c-2.8-3.6-5.7-7.2-8.8-10.5c-3.1-3.4-6.1-6.2-9.1-8.6c-0.6-0.3-1.2,38.3-1.8,37.9
				c-0.4-0.3-25.9-0.6-26.2-0.9c-1.3-1.3-2.1-14.4-2.6-16.2c-0.5-1.8-0.7-17.3-0.7-19.5V368.6z"/>
			<path class="st154" d="M558.2,364l27.8-4.5l6,74.6c2.5-2.7,6.1-5.7,8.8-8.7c2.7-3,6.2-6.1,8.8-9c2.5-2.9,5.8-5.8,8-8.5
				c2.2-2.6,4.9-5,6.5-7l30.5,13.4c-6.1,7-12,25.4-17.8,31.8c-5.8,6.4-12.1,24.9-19,31.7c3.4,3.1,7,13.6,10.7,17.9
				c0.3,0.3,0.6,1.3,0.9,1.6c1.4,2.7,2.8,5.2,4.3,7.7c1.3,2.2,2.6,4.3,4.1,6.2c1.2,1.5,2.5,3,3.9,4.5c0.4,0.4,0.9,0.9,1.3,1.3
				c2.4,2.5,5,4.9,7.9,7.1c1.4,2.1,2.3,7.5,3.6,9.7c2.9,4.6,4.2,15.1,6.2,18.9c-3.4-0.1-35.6-0.4-37.7-1.1c-2-3.1-4.3-6.4-6.8-10.1
				c-2.6-3.7-5.3-7.4-8.1-11.1c-2.8-3.7-5.8-7.3-9-10.7c-3.1-3.4-6.2-6.3-9.2-8.7c-0.6-0.3-1.2,39.1-1.7,38.7
				c-0.3-0.3-26.3-0.5-26.6-0.8c-1.2-1.2-2-14.5-2.5-16.3c-0.4-1.7-0.7-17.4-0.7-19.5V364z"/>
			<path class="st155" d="M577.9,358l28.2-4.5l5.8,76.2c2.6-2.8,6.1-5.8,8.9-8.9c2.7-3,6.3-6.2,8.9-9.1c2.6-3,5.8-5.9,8.1-8.6
				c2.3-2.7,4.9-5.1,6.6-7.1l31.1,12.8c-6.2,7.1-12.3,25.2-18.2,31.7c-5.9,6.5-12.4,24.7-19.4,31.6c3.5,3.2,7.1,13.4,10.9,17.8
				c0.3,0.3,0.6,1.3,0.9,1.6c1.4,2.6,2.9,5.2,4.4,7.7c1.3,2.2,2.7,4.3,4.2,6.2c1.2,1.5,2.5,3,3.9,4.5c0.4,0.4,0.9,0.9,1.3,1.3
				c2.4,2.5,5,4.9,7.8,7.2c1.5,2.2,2.4,7.5,3.7,9.6c2.9,4.7,4.4,15,6.4,18.9c-3.2,0-35.9-0.4-37.9-1c-2.1-3.1-4.4-6.5-6.9-10.3
				c-2.6-3.8-5.3-7.5-8.2-11.3c-2.9-3.8-5.9-7.4-9.1-10.9c-3.2-3.5-6.3-6.4-9.4-8.9c-0.6-0.3-1.1,39.9-1.6,39.5
				c-0.3-0.3-26.8-0.5-27.1-0.8c-1.2-1.2-2-14.7-2.4-16.3c-0.4-1.7-0.6-17.5-0.6-19.6V358z"/>
			<path class="st156" d="M598.5,350.6l28.6-4.6l5.5,77.7c2.6-2.8,6.2-5.9,9-9c2.8-3.1,6.4-6.3,9-9.3s5.9-6,8.2-8.8
				c2.3-2.7,5-5.2,6.6-7.2l31.7,12.2c-6.3,7.3-12.5,24.9-18.5,31.5c-6,6.6-12.6,24.4-19.8,31.4c3.6,3.2,7.3,13.3,11.1,17.8
				c0.3,0.4,0.6,1.2,0.9,1.6c1.4,2.6,2.9,5.2,4.4,7.7c1.3,2.2,2.7,4.2,4.2,6.2c1.2,1.5,2.5,3,3.9,4.5c0.4,0.4,0.9,0.9,1.3,1.3
				c2.4,2.5,5,5,7.8,7.3c1.5,2.2,2.4,7.4,3.8,9.6c3,4.8,4.5,14.9,6.5,18.8c-3.1,0-36.2-0.4-38.2-1c-2.1-3.2-4.4-6.7-7-10.5
				c-2.6-3.8-5.4-7.7-8.3-11.5c-2.9-3.8-6-7.5-9.2-11.1c-3.2-3.5-6.4-6.6-9.5-9c-0.6-0.3-1.1,40.7-1.5,40.3
				c-0.3-0.2-27.3-0.5-27.6-0.8c-1.1-1.1-1.9-14.8-2.3-16.4c-0.4-1.6-0.6-17.6-0.6-19.6V350.6z"/>
			<path class="st157" d="M619.8,342.1l29-4.7l5.3,79.2c2.7-2.9,6.2-6.1,9.1-9.2c2.9-3.1,6.4-6.4,9.1-9.5c2.7-3.1,6-6.1,8.3-8.9
				c2.4-2.8,5-5.3,6.7-7.4l32.3,11.6c-6.4,7.4-12.7,24.7-18.9,31.4c-6.1,6.7-12.9,24.1-20.2,31.3c3.6,3.3,7.4,13.1,11.3,17.7
				c0.3,0.4,0.6,1.2,0.9,1.6c1.4,2.6,3,5.2,4.5,7.7c1.3,2.1,2.7,4.2,4.2,6.2c1.2,1.5,2.5,3,3.9,4.5c0.4,0.4,0.8,0.9,1.3,1.3
				c2.4,2.5,5,5,7.7,7.4c1.5,2.2,2.5,7.3,3.9,9.6c3,4.9,4.7,14.8,6.7,18.8c-2.9,0-36.6-0.4-38.4-0.9c-2.1-3.2-4.5-6.8-7.1-10.7
				c-2.7-3.9-5.5-7.8-8.5-11.7c-3-3.9-6.1-7.7-9.4-11.3c-3.3-3.6-6.5-6.7-9.7-9.2c-0.5-0.3-1,41.5-1.5,41.1
				c-0.3-0.2-27.8-0.5-28-0.7c-1.1-1.1-1.8-14.9-2.2-16.4c-0.4-1.5-0.6-17.7-0.6-19.6V342.1z"/>
			<path class="st158" d="M641.7,332.6l29.4-4.7l5,80.7c2.7-3,6.3-6.2,9.2-9.4c2.9-3.2,6.5-6.5,9.2-9.6c2.7-3.1,6-6.2,8.4-9.1
				c2.4-2.8,5.1-5.4,6.8-7.5l32.9,11.1c-6.6,7.5-13,24.5-19.2,31.3c-6.3,6.9-13.1,23.9-20.5,31.2c3.7,3.4,7.6,13,11.5,17.6
				c0.3,0.4,0.6,1.2,0.9,1.6c1.5,2.6,3,5.1,4.6,7.6c1.3,2.1,2.7,4.2,4.2,6.2c1.2,1.5,2.5,3,3.9,4.5c0.4,0.4,0.8,0.9,1.3,1.3
				c2.4,2.6,4.9,5.1,7.7,7.5c1.6,2.3,2.6,7.3,4,9.6c3.1,5,4.8,14.7,6.9,18.8c-2.8,0-36.9-0.3-38.6-0.9c-2.1-3.3-4.5-6.9-7.2-10.9
				c-2.7-4-5.6-7.9-8.6-11.9c-3-4-6.2-7.8-9.5-11.5c-3.3-3.7-6.6-6.8-9.8-9.3c-0.5-0.3-1,42.3-1.4,42c-0.3-0.2-28.2-0.4-28.5-0.7
				c-1-1-1.7-15-2.1-16.4c-0.4-1.4-0.5-17.8-0.5-19.6V332.6z"/>
			<path class="st159" d="M664,322.2l29.8-4.8l4.7,82.3c2.8-3,6.4-6.3,9.3-9.5c3-3.3,6.6-6.6,9.3-9.8c2.8-3.2,6.1-6.3,8.5-9.2
				c2.5-2.9,5.1-5.5,6.9-7.6l33.5,10.5c-6.7,7.7-13.2,24.2-19.6,31.2c-6.4,7-13.3,23.6-20.9,31c3.8,3.4,7.7,12.8,11.7,17.5
				c0.3,0.4,0.6,1.2,0.9,1.6c1.5,2.6,3.1,5.1,4.6,7.6c1.3,2.1,2.7,4.2,4.3,6.2c1.2,1.5,2.5,3.1,3.8,4.5c0.4,0.5,0.8,0.9,1.3,1.3
				c2.4,2.6,4.9,5.1,7.6,7.6c1.6,2.3,2.7,7.2,4.1,9.6c3.2,5.1,5,14.6,7.1,18.7c-2.6,0-37.2-0.3-38.8-0.9c-2.2-3.3-4.6-7-7.3-11.1
				c-2.7-4-5.6-8.1-8.7-12.1c-3.1-4-6.3-7.9-9.6-11.7c-3.4-3.7-6.7-6.9-10-9.5c-0.5-0.2-0.9,43.1-1.3,42.8
				c-0.3-0.2-28.7-0.4-28.9-0.7c-1-1-1.6-15.1-1.9-16.5c-0.3-1.4-0.5-17.9-0.5-19.6V322.2z"/>
			<path class="st160" d="M686.5,311.2l30.2-4.9l4.5,83.8c2.8-3.1,6.4-6.4,9.4-9.7c3-3.3,6.6-6.7,9.4-10s6.1-6.5,8.6-9.4
				c2.5-2.9,5.2-5.6,7-7.7l34.1,9.9c-6.8,7.8-13.4,24-19.9,31.1c-6.5,7.1-13.6,23.3-21.3,30.9c3.9,3.5,7.8,12.6,11.9,17.5
				c0.3,0.4,0.6,1.2,1,1.6c1.5,2.6,3.1,5.1,4.7,7.6c1.4,2.1,2.8,4.2,4.3,6.2c1.2,1.6,2.5,3.1,3.8,4.5c0.4,0.5,0.8,0.9,1.3,1.4
				c2.4,2.6,4.9,5.2,7.5,7.7c1.6,2.4,2.8,7.2,4.2,9.5c3.2,5.1,5.1,14.5,7.3,18.7c-2.5,0-37.5-0.3-39.1-0.8
				c-2.2-3.4-4.7-7.1-7.4-11.2c-2.8-4.1-5.7-8.2-8.8-12.3c-3.1-4.1-6.4-8.1-9.8-11.9c-3.4-3.8-6.8-7-10.1-9.7
				c-0.5-0.2-0.9,43.9-1.2,43.6c-0.3-0.2-29.2-0.4-29.4-0.6c-0.9-0.9-1.5-15.2-1.8-16.5c-0.3-1.3-0.5-18-0.5-19.6V311.2z"/>
			<path class="st161" d="M709.1,299.5l30.6-4.9l4.2,85.3c2.9-3.1,6.5-6.5,9.5-9.8c3.1-3.4,6.7-6.8,9.6-10.1
				c2.9-3.3,6.2-6.6,8.7-9.5c2.5-3,5.2-5.7,7-7.9l34.7,9.3c-6.9,8-13.7,23.7-20.3,31c-6.6,7.2-13.8,23.1-21.7,30.7
				c3.9,3.5,8,12.5,12.1,17.4c0.3,0.4,0.7,1.2,1,1.6c1.6,2.6,3.2,5.1,4.8,7.6c1.4,2.1,2.8,4.2,4.3,6.1c1.2,1.6,2.5,3.1,3.8,4.6
				c0.4,0.5,0.8,0.9,1.2,1.4c2.4,2.6,4.9,5.3,7.5,7.7c1.6,2.4,2.8,7.1,4.3,9.5c3.3,5.2,5.3,14.4,7.5,18.7c-2.3,0-37.8-0.3-39.3-0.8
				c-2.2-3.4-4.7-7.3-7.5-11.4c-2.8-4.2-5.8-8.4-8.9-12.5c-3.1-4.2-6.4-8.2-9.9-12.1c-3.5-3.9-6.9-7.1-10.3-9.8
				c-0.4-0.2-0.8,44.7-1.2,44.4c-0.2-0.2-29.7-0.4-29.9-0.6c-0.8-0.8-1.4-15.4-1.7-16.6c-0.3-1.2-0.5-18.1-0.5-19.6V299.5z"/>
			<path class="st162" d="M731.6,287.5l31.1-5l3.9,86.8c2.9-3.2,6.5-6.6,9.7-10c3.1-3.4,6.8-6.9,9.7-10.3c2.9-3.4,6.3-6.7,8.8-9.7
				c2.6-3,5.3-5.8,7.1-8l35.3,8.7c-7,8.1-13.9,23.5-20.6,30.8c-6.7,7.4-14.1,22.8-22,30.6c4,3.6,8.1,12.3,12.4,17.3
				c0.3,0.4,0.7,1.2,1,1.6c1.6,2.6,3.2,5.1,4.8,7.5c1.4,2.1,2.8,4.2,4.3,6.1c1.2,1.6,2.5,3.1,3.8,4.6c0.4,0.5,0.8,0.9,1.2,1.4
				c2.4,2.7,4.8,5.3,7.4,7.8c1.7,2.5,2.9,7.1,4.4,9.5c3.3,5.3,5.4,14.3,7.7,18.7c-2.2,0-38.1-0.3-39.5-0.7
				c-2.2-3.5-4.8-7.4-7.6-11.6c-2.9-4.2-5.9-8.5-9.1-12.7c-3.2-4.3-6.5-8.3-10-12.3c-3.5-3.9-7-7.2-10.4-10
				c-0.4-0.2-0.8,45.5-1.1,45.3c-0.2-0.2-30.1-0.4-30.3-0.5c-0.8-0.8-1.3-15.5-1.6-16.6c-0.3-1.1-0.4-18.2-0.4-19.7V287.5z"/>
			<path class="st163" d="M753.8,275.2l31.5-5.1l3.7,88.4c3-3.2,6.6-6.7,9.8-10.2c3.2-3.5,6.8-7,9.8-10.5c3-3.4,6.3-6.8,8.9-9.9
				c2.6-3.1,5.3-5.8,7.2-8.1l35.9,8.1c-7.2,8.2-14.2,23.2-21,30.7c-6.8,7.5-14.3,22.5-22.4,30.5c4.1,3.7,8.2,12.2,12.6,17.2
				c0.3,0.4,0.7,1.2,1,1.6c1.6,2.5,3.3,5,4.9,7.5c1.4,2.1,2.8,4.1,4.4,6.1c1.2,1.6,2.5,3.1,3.8,4.6c0.4,0.5,0.8,0.9,1.2,1.4
				c2.4,2.7,4.8,5.4,7.4,7.9c1.7,2.5,3,7,4.6,9.5c3.4,5.4,5.6,14.2,7.9,18.6c-2.1,0-38.4-0.3-39.7-0.7c-2.3-3.6-4.8-7.5-7.7-11.8
				c-2.9-4.3-6-8.6-9.2-12.9c-3.2-4.3-6.6-8.5-10.2-12.5c-3.6-4-7.1-7.4-10.5-10.1c-0.4-0.2-0.7,46.3-1,46.1
				c-0.2-0.2-30.6-0.3-30.8-0.5c-0.7-0.7-1.2-15.6-1.5-16.6c-0.3-1.1-0.4-18.3-0.4-19.7V275.2z"/>
			<path class="st164" d="M775.5,262.7l31.9-5.1l3.4,89.9c3-3.3,6.7-6.8,9.9-10.3c3.2-3.6,6.9-7.2,9.9-10.6c3-3.5,6.4-6.9,9-10
				c2.7-3.1,5.4-5.9,7.3-8.3l36.5,7.6c-7.3,8.4-14.4,23-21.3,30.6c-6.9,7.6-14.5,22.2-22.8,30.3c4.1,3.7,8.4,12,12.8,17.2
				c0.3,0.4,0.7,1.1,1,1.6c1.6,2.5,3.3,5,5,7.5c1.4,2.1,2.9,4.1,4.4,6.1c1.2,1.6,2.5,3.1,3.8,4.6c0.4,0.5,0.8,0.9,1.2,1.4
				c2.4,2.7,4.8,5.4,7.3,8c1.7,2.5,3.1,6.9,4.7,9.5c3.4,5.5,5.7,14.1,8,18.6c-1.9,0-38.8-0.2-39.9-0.6c-2.3-3.6-4.9-7.6-7.8-12
				c-2.9-4.4-6-8.8-9.3-13.1c-3.3-4.4-6.7-8.6-10.3-12.6c-3.6-4-7.2-7.5-10.7-10.3c-0.3-0.2-0.7,47.1-0.9,46.9
				c-0.2-0.1-31.1-0.3-31.3-0.5c-0.7-0.7-1.2-15.7-1.4-16.7c-0.2-1-0.4-18.4-0.4-19.7V262.7z"/>
			<path class="st165" d="M796.7,250.3l32.3-5.2l3.2,91.4c3.1-3.3,6.7-6.9,10-10.5c3.3-3.6,6.9-7.3,10-10.8s6.4-7,9.1-10.2
				c2.7-3.2,5.4-6,7.4-8.4l37.1,7c-7.4,8.5-14.6,22.8-21.7,30.5c-7.1,7.7-14.8,22-23.1,30.2c4.2,3.8,8.5,11.8,13,17.1
				c0.4,0.4,0.7,1.1,1,1.5c1.7,2.5,3.4,5,5.1,7.5c1.4,2.1,2.9,4.1,4.4,6.1c1.2,1.6,2.5,3.1,3.8,4.6c0.4,0.5,0.8,0.9,1.2,1.4
				c2.4,2.8,4.8,5.5,7.3,8.1c1.8,2.6,3.2,6.9,4.8,9.5c3.5,5.6,5.9,14,8.2,18.6c-1.8,0-39.1-0.2-40.2-0.6c-2.3-3.7-5-7.7-7.9-12.2
				c-3-4.4-6.1-8.9-9.4-13.3c-3.3-4.5-6.8-8.7-10.5-12.8c-3.7-4.1-7.3-7.6-10.8-10.4c-0.3-0.2-0.6,47.9-0.9,47.7
				c-0.2-0.1-31.6-0.3-31.7-0.4c-0.6-0.6-1.1-15.8-1.3-16.7c-0.2-0.9-0.3-18.6-0.3-19.7V250.3z"/>
			<path class="st166" d="M817,238l32.7-5.3l2.9,92.9c3.1-3.4,6.8-7,10.1-10.6c3.3-3.7,7-7.4,10.1-11c3.1-3.6,6.5-7.1,9.2-10.3
				c2.8-3.2,5.5-6.1,7.5-8.5l37.7,6.4c-7.5,8.6-14.9,22.5-22,30.4c-7.2,7.9-15,21.7-23.5,30.1c4.3,3.8,8.7,11.7,13.2,17
				c0.4,0.4,0.7,1.1,1.1,1.5c1.7,2.5,3.4,5,5.1,7.4c1.4,2.1,2.9,4.1,4.4,6.1c1.2,1.6,2.5,3.1,3.8,4.6c0.4,0.5,0.8,0.9,1.2,1.4
				c2.4,2.8,4.7,5.5,7.2,8.2c1.8,2.6,3.2,6.8,4.9,9.4c3.5,5.7,6,13.9,8.4,18.6c-1.6,0-39.4-0.2-40.4-0.5c-2.4-3.7-5-7.8-8-12.4
				c-3-4.5-6.2-9-9.5-13.6c-3.4-4.5-6.9-8.9-10.6-13c-3.7-4.2-7.4-7.7-11-10.6c-0.3-0.2-0.6,48.8-0.8,48.6c-0.2-0.1-32-0.3-32.2-0.4
				c-0.6-0.6-1-15.9-1.2-16.8c-0.2-0.8-0.3-18.7-0.3-19.7V238z"/>
			<path class="st167" d="M836.5,226l33.1-5.3l2.6,94.5c3.2-3.4,6.8-7.1,10.2-10.8c3.4-3.7,7.1-7.5,10.2-11.1
				c3.2-3.7,6.5-7.2,9.3-10.5c2.8-3.3,5.5-6.2,7.5-8.6l38.3,5.8c-7.6,8.8-15.1,22.3-22.4,30.2c-7.3,8-15.2,21.4-23.9,29.9
				c4.3,3.9,8.8,11.5,13.4,16.9c0.4,0.4,0.7,1.1,1.1,1.5c1.7,2.5,3.5,4.9,5.2,7.4c1.5,2.1,2.9,4.1,4.5,6.1c1.2,1.6,2.5,3.1,3.8,4.6
				c0.4,0.5,0.8,0.9,1.2,1.4c2.4,2.8,4.7,5.6,7.1,8.3c1.8,2.7,3.3,6.8,5,9.4c3.6,5.8,6.2,13.8,8.6,18.5c-1.5,0-39.7-0.2-40.6-0.5
				c-2.4-3.8-5.1-8-8.1-12.5c-3-4.6-6.3-9.2-9.7-13.8c-3.4-4.6-7-9-10.7-13.2c-3.7-4.2-7.5-7.8-11.1-10.7
				c-0.3-0.1-0.5,49.6-0.7,49.4c-0.2-0.1-32.5-0.2-32.6-0.4c-0.5-0.5-0.9-16-1.1-16.8c-0.2-0.8-0.3-18.8-0.3-19.7V226z"/>
			<path class="st168" d="M854.8,214.5l33.5-5.4l2.4,96c3.2-3.5,6.9-7.2,10.3-11c3.4-3.8,7.1-7.6,10.3-11.3s6.6-7.3,9.4-10.6
				c2.9-3.3,5.6-6.3,7.6-8.8l38.9,5.2c-7.8,8.9-15.3,22-22.7,30.1c-7.4,8.1-15.5,21.2-24.3,29.8c4.4,4,8.9,11.3,13.6,16.8
				c0.4,0.4,0.7,1.1,1.1,1.5c1.7,2.5,3.5,4.9,5.3,7.4c1.5,2.1,2.9,4.1,4.5,6.1c1.2,1.6,2.5,3.1,3.7,4.7c0.4,0.5,0.8,1,1.2,1.4
				c2.3,2.8,4.7,5.7,7.1,8.4c1.8,2.7,3.4,6.7,5.1,9.4c3.7,5.9,6.3,13.7,8.8,18.5c-1.3,0-40-0.2-40.8-0.4c-2.4-3.8-5.2-8.1-8.2-12.7
				c-3.1-4.7-6.3-9.3-9.8-14c-3.4-4.7-7.1-9.1-10.9-13.4c-3.8-4.3-7.6-7.9-11.3-10.9c-0.2-0.1-0.5,50.4-0.7,50.2
				c-0.1-0.1-33-0.2-33.1-0.3c-0.5-0.5-0.8-16.2-1-16.8c-0.2-0.7-0.3-18.9-0.3-19.7V214.5z"/>
			<path class="st169" d="M871.9,203.6l33.9-5.5l2.1,97.5c3.3-3.5,7-7.3,10.5-11.1c3.5-3.8,7.2-7.7,10.5-11.5
				c3.3-3.8,6.7-7.4,9.6-10.8c2.9-3.4,5.6-6.4,7.7-8.9l39.5,4.7c-7.9,9.1-15.6,21.8-23.1,30c-7.5,8.2-15.7,20.9-24.6,29.7
				c4.5,4,9.1,11.2,13.8,16.8c0.4,0.4,0.7,1.1,1.1,1.5c1.8,2.5,3.6,4.9,5.3,7.4c1.5,2,3,4.1,4.5,6.1c1.2,1.6,2.5,3.1,3.7,4.7
				c0.4,0.5,0.8,1,1.2,1.4c2.3,2.9,4.7,5.7,7,8.5c1.9,2.7,3.5,6.6,5.2,9.4c3.7,6,6.5,13.6,9,18.5c-1.2,0-40.3-0.1-41.1-0.4
				c-2.4-3.9-5.2-8.2-8.3-12.9c-3.1-4.7-6.4-9.4-9.9-14.2c-3.5-4.7-7.2-9.3-11-13.6c-3.8-4.3-7.7-8-11.4-11
				c-0.2-0.1-0.4,51.2-0.6,51c-0.1-0.1-33.5-0.2-33.6-0.3c-0.4-0.4-0.7-16.3-0.9-16.9c-0.2-0.6-0.2-19-0.2-19.7V203.6z"/>
			<path class="st170" d="M887.5,193.4l34.4-5.5l1.8,99c3.3-3.6,7-7.4,10.6-11.3c3.5-3.9,7.3-7.8,10.6-11.6s6.7-7.5,9.7-11
				c2.9-3.4,5.7-6.5,7.8-9l40.1,4.1c-8,9.2-15.8,21.5-23.4,29.9c-7.6,8.4-16,20.6-25,29.5c4.5,4.1,9.2,11,14,16.7
				c0.4,0.4,0.8,1.1,1.1,1.5c1.8,2.4,3.6,4.9,5.4,7.3c1.5,2,3,4.1,4.5,6.1c1.2,1.6,2.5,3.1,3.7,4.7c0.4,0.5,0.8,1,1.2,1.5
				c2.3,2.9,4.6,5.8,7,8.6c1.9,2.8,3.6,6.6,5.3,9.4c3.8,6,6.6,13.5,9.2,18.5c-1,0-40.6-0.1-41.3-0.3c-2.5-4-5.3-8.3-8.4-13.1
				c-3.2-4.8-6.5-9.6-10-14.4c-3.5-4.8-7.2-9.4-11.1-13.8c-3.9-4.4-7.8-8.1-11.6-11.2c-0.2-0.1-0.4,52-0.5,51.9
				c-0.1-0.1-33.9-0.2-34-0.3c-0.4-0.4-0.6-16.4-0.8-16.9c-0.1-0.5-0.2-19.1-0.2-19.8V193.4z"/>
			<path class="st171" d="M901.5,184.1l34.8-5.6l1.6,100.6c3.4-3.7,7.1-7.5,10.7-11.5c3.6-4,7.3-7.9,10.7-11.8
				c3.4-3.9,6.8-7.6,9.8-11.1c3-3.5,5.7-6.6,7.9-9.2l40.7,3.5c-8.1,9.3-16,21.3-23.8,29.8c-7.7,8.5-16.2,20.4-25.4,29.4
				c4.6,4.1,9.3,10.9,14.2,16.6c0.4,0.5,0.8,1.1,1.2,1.5c1.8,2.4,3.7,4.9,5.5,7.3c1.5,2,3,4,4.6,6c1.2,1.6,2.5,3.1,3.7,4.7
				c0.4,0.5,0.8,1,1.2,1.5c2.3,2.9,4.6,5.8,6.9,8.7c1.9,2.8,3.6,6.5,5.4,9.3c3.8,6.1,6.8,13.4,9.4,18.4c-0.9,0-41-0.1-41.5-0.3
				c-2.5-4-5.3-8.4-8.5-13.3c-3.2-4.9-6.6-9.7-10.1-14.6c-3.6-4.9-7.3-9.5-11.3-14c-3.9-4.5-7.9-8.3-11.7-11.4
				c-0.2-0.1-0.3,52.8-0.4,52.7c-0.1-0.1-34.4-0.1-34.5-0.2c-0.3-0.3-0.5-16.5-0.6-17c-0.1-0.5-0.2-19.2-0.2-19.8V184.1z"/>
			<path class="st172" d="M913.7,175.9l35.2-5.7l1.3,102.1c3.4-3.7,7.1-7.6,10.8-11.6c3.6-4,7.4-8,10.8-12c3.4-3.9,6.8-7.7,9.9-11.3
				c3-3.6,5.8-6.7,8-9.3l41.3,2.9c-8.2,9.5-16.3,21.1-24.1,29.7c-7.8,8.6-16.4,20.1-25.8,29.2c4.7,4.2,9.5,10.7,14.5,16.5
				c0.4,0.5,0.8,1,1.2,1.5c1.9,2.4,3.7,4.8,5.5,7.3c1.5,2,3,4,4.6,6c1.2,1.6,2.5,3.1,3.7,4.7c0.4,0.5,0.8,1,1.2,1.5
				c2.3,2.9,4.6,5.9,6.9,8.8c2,2.9,3.7,6.5,5.5,9.3c3.9,6.2,6.9,13.3,9.6,18.4c-0.7,0-41.3-0.1-41.7-0.2c-2.5-4.1-5.4-8.6-8.6-13.5
				c-3.2-4.9-6.6-9.8-10.3-14.8c-3.6-4.9-7.4-9.7-11.4-14.2c-4-4.5-8-8.4-11.9-11.5c-0.1-0.1-0.3,53.6-0.4,53.5
				c-0.1-0.1-34.9-0.1-34.9-0.2c-0.3-0.3-0.4-16.6-0.5-17c-0.1-0.4-0.1-19.3-0.1-19.8V175.9z"/>
			<path class="st173" d="M924,168.8l35.6-5.7l1.1,103.6c3.5-3.8,7.2-7.7,10.9-11.8c3.7-4.1,7.4-8.1,10.9-12.1
				c3.5-4,6.9-7.8,10-11.4c3.1-3.6,5.8-6.8,8-9.4l41.9,2.3c-8.4,9.6-16.5,20.8-24.5,29.5c-8,8.7-16.7,19.8-26.1,29.1
				c4.7,4.3,9.6,10.5,14.7,16.5c0.4,0.5,0.8,1,1.2,1.5c1.9,2.4,3.8,4.8,5.6,7.3c1.5,2,3.1,4,4.6,6c1.2,1.6,2.4,3.2,3.7,4.7
				c0.4,0.5,0.8,1,1.2,1.5c2.3,3,4.6,5.9,6.8,8.9c2,2.9,3.8,6.4,5.6,9.3c3.9,6.3,7.1,13.2,9.7,18.4c-0.6,0-41.6-0.1-41.9-0.2
				c-2.6-4.1-5.5-8.7-8.7-13.7c-3.3-5-6.7-10-10.4-15c-3.7-5-7.5-9.8-11.6-14.4c-4-4.6-8.1-8.5-12-11.7c-0.1-0.1-0.2,54.4-0.3,54.3
				c-0.1,0-35.4-0.1-35.4-0.1c-0.2-0.2-0.4-16.7-0.4-17c-0.1-0.3-0.1-19.4-0.1-19.8V168.8z"/>
			<path class="st174" d="M932.2,163.1l36-5.8l0.8,105.1c3.5-3.8,7.3-7.8,11-11.9c3.8-4.1,7.5-8.2,11-12.3
				c3.5-4.1,6.9-7.9,10.1-11.6c3.1-3.7,5.9-6.8,8.1-9.6l42.5,1.7c-8.5,9.7-16.8,20.6-24.8,29.4c-8.1,8.9-16.9,19.6-26.5,29
				c4.8,4.3,9.8,10.4,14.9,16.4c0.4,0.5,0.8,1,1.2,1.5c1.9,2.4,3.8,4.8,5.7,7.2c1.5,2,3.1,4,4.6,6c1.2,1.6,2.4,3.2,3.7,4.7
				c0.4,0.5,0.8,1,1.2,1.5c2.3,3,4.5,6,6.8,9c2,3,3.9,6.3,5.7,9.3c4,6.4,7.2,13.1,9.9,18.4c-0.4,0-41.9-0.1-42.2-0.1
				c-2.6-4.2-5.5-8.8-8.8-13.9c-3.3-5.1-6.8-10.1-10.5-15.2c-3.7-5.1-7.6-9.9-11.7-14.6c-4.1-4.7-8.2-8.6-12.2-11.8
				c-0.1,0-0.2,55.2-0.2,55.2c0,0-35.8-0.1-35.9-0.1c-0.2-0.2-0.3-16.9-0.3-17.1c-0.1-0.2-0.1-19.5-0.1-19.8V163.1z"/>
			<path class="st175" d="M938.1,158.8l36.4-5.9l0.5,106.7c3.6-3.9,7.3-7.9,11.1-12.1c3.8-4.2,7.6-8.4,11.1-12.5
				c3.6-4.1,7-8,10.2-11.7c3.2-3.7,5.9-6.9,8.2-9.7l43.1,1.2c-8.6,9.9-17,20.3-25.2,29.3c-8.2,9-17.1,19.3-26.9,28.8
				c4.9,4.4,9.9,10.2,15.1,16.3c0.4,0.5,0.8,1,1.2,1.5c1.9,2.4,3.9,4.8,5.8,7.2c1.6,2,3.1,4,4.7,6c1.2,1.6,2.4,3.2,3.7,4.8
				c0.4,0.5,0.8,1,1.1,1.5c2.3,3,4.5,6.1,6.7,9.1c2,3,4,6.3,5.8,9.3c4.1,6.5,7.4,13,10.1,18.3c-0.3,0-42.2,0-42.4-0.1
				c-2.6-4.2-5.6-8.9-8.9-14c-3.3-5.1-6.9-10.3-10.6-15.4c-3.7-5.1-7.7-10.1-11.8-14.8c-4.1-4.7-8.2-8.7-12.3-12
				c-0.1,0-0.1,56-0.1,56c0,0-36.3,0-36.3-0.1c-0.1-0.1-0.2-17-0.2-17.1c0-0.2-0.1-19.6-0.1-19.8V158.8z"/>
			<path class="st176" d="M941.6,156.2l36.8-5.9l0.3,108.2c3.6-3.9,7.4-8,11.2-12.3c3.9-4.3,7.6-8.5,11.3-12.6
				c3.6-4.2,7.1-8.1,10.3-11.9c3.2-3.8,6-7,8.3-9.8l43.7,0.6c-8.7,10-17.2,20.1-25.5,29.2c-8.3,9.1-17.4,19-27.3,28.7
				c4.9,4.4,10,10.1,15.3,16.2c0.4,0.5,0.8,1,1.2,1.5c2,2.4,3.9,4.8,5.8,7.2c1.6,2,3.1,4,4.7,6c1.2,1.6,2.4,3.2,3.7,4.8
				c0.4,0.5,0.8,1,1.1,1.5c2.3,3.1,4.5,6.1,6.6,9.2c2.1,3,4,6.2,5.9,9.3c4.1,6.6,7.5,12.9,10.3,18.3c-0.1,0-42.5,0-42.6,0
				c-2.6-4.3-5.6-9-9-14.2c-3.4-5.2-7-10.4-10.7-15.6c-3.8-5.2-7.8-10.2-12-15c-4.2-4.8-8.3-8.8-12.5-12.1c0,0-0.1,56.8-0.1,56.8
				c0,0-36.8,0-36.8,0c-0.1-0.1-0.1-17.1-0.1-17.2c0-0.1,0-19.7,0-19.8V156.2z"/>
			<path class="st177" d="M979.7,259c3.7-4,7.4-8.1,11.4-12.4c3.9-4.3,7.7-8.6,11.4-12.8s7.1-8.2,10.4-12.1c3.2-3.8,6-7.1,8.4-9.9
				h44.3c-8.8,10.1-17.5,19.8-25.9,29.1c-8.4,9.2-17.6,18.7-27.6,28.6c5,4.5,10.2,9.9,15.5,16.2c5.3,6.3,10.5,12.7,15.5,19.4
				s9.6,13.4,13.8,20c4.2,6.7,7.7,12.8,10.5,18.3h-42.8c-2.7-4.3-5.7-9.1-9.1-14.4c-3.4-5.3-7-10.5-10.9-15.8s-7.9-10.3-12.1-15.2
				s-8.4-8.9-12.6-12.3v57.6h-37.2v-188l37.2-6V259z"/>
		</g>
	</g>
</g>
<g id="Слой_6">
	<text transform="matrix(1 0 0 1 -17.5 343.31)" class="st178 st179">lentmark</text>
</g>
</svg>
