<?xml version="1.0" encoding="utf-8"?>
<!-- Generator: Adobe Illustrator 19.2.0, SVG Export Plug-In . SVG Version: 6.00 Build 0)  -->
<svg version="1.1" id="Слой_1" xmlns="http://www.w3.org/2000/svg" xmlns:xlink="http://www.w3.org/1999/xlink" x="0px" y="0px"
	 viewBox="0 0 315 283.5" style="enable-background:new 0 0 315 283.5;" xml:space="preserve">
<path d="M309.5,223.1l-117.2-203C185.1,7.5,172,0,157.5,0C143,0,130,7.5,122.7,20c0,0-0.1,0.1-0.1,0.1L5.5,223.1
	c-7.3,12.6-7.3,27.6,0,40.2c7.3,12.6,20.3,20.1,34.8,20.1c0,0,0,0,0,0c0,0,0,0,0,0h234.4c14.5,0,27.6-7.5,34.8-20.1
	C316.8,250.8,316.8,235.7,309.5,223.1z M157.5,8.7c11.4,0,21.6,5.9,27.3,15.8l113.4,196.5h-52L161.3,74c0,0-0.1-0.1-0.1-0.1
	l-29.7-51.5C137.4,13.8,146.9,8.7,157.5,8.7z M236.1,220.9H78.9l78.6-136.1L236.1,220.9z M13,259c-5.7-9.9-5.7-21.6,0-31.5L126.4,31
	l26,45.1l-84.9,147l-29.7,51.5C27.4,273.9,18.3,268.1,13,259z M302,259c-5.7,9.9-15.9,15.8-27.3,15.8H47.8l26-45.1h169.8h59.5
	C307.6,239.1,307.3,249.8,302,259z"/>
</svg>
