<?xml version="1.0" encoding="utf-8"?>
<!-- Generator: Adobe Illustrator 19.2.0, SVG Export Plug-In . SVG Version: 6.00 Build 0)  -->
<svg version="1.1" xmlns="http://www.w3.org/2000/svg" xmlns:xlink="http://www.w3.org/1999/xlink" x="0px" y="0px"
	 viewBox="0 0 852 852" style="enable-background:new 0 0 852 852;" xml:space="preserve">
<g id="Слой_1">
	<g>
		<path d="M426,15c227,0,411,184,411,411S653,837,426,837S15,653,15,426S199,15,426,15 M426,0c-57.5,0-113.3,11.3-165.8,33.5
			c-50.7,21.5-96.3,52.2-135.4,91.3s-69.8,84.7-91.3,135.4C11.3,312.7,0,368.5,0,426s11.3,113.3,33.5,165.8
			c21.5,50.7,52.2,96.3,91.3,135.4c39.1,39.1,84.7,69.8,135.4,91.3C312.7,840.8,368.5,852,426,852s113.3-11.3,165.8-33.5
			c50.7-21.5,96.3-52.2,135.4-91.3c39.1-39.1,69.8-84.7,91.3-135.4C840.8,539.3,852,483.5,852,426s-11.3-113.3-33.5-165.8
			c-21.5-50.7-52.2-96.3-91.3-135.4c-39.1-39.1-84.7-69.8-135.4-91.3C539.3,11.3,483.5,0,426,0L426,0z"/>
	</g>
</g>
<g id="Слой_2">
	<g>
		<path d="M779.5,401H486.4l207.2-207.2c-10.9-12.6-22.8-24.4-35.4-35.4L408.3,408.3l-7.3,7.3V426v353.5c8.3,0.6,16.6,0.9,25,0.9
			c8.4,0,16.7-0.3,25-0.9V451h328.5c0.6-8.3,0.9-16.6,0.9-25C780.4,417.6,780.1,409.3,779.5,401z"/>
	</g>
</g>
<g id="Слой_3">
</g>
</svg>
