<?xml version="1.0" encoding="utf-8"?>
<!-- Generator: Adobe Illustrator 23.0.3, SVG Export Plug-In . SVG Version: 6.00 Build 0)  -->
<svg version="1.1" xmlns="http://www.w3.org/2000/svg" xmlns:xlink="http://www.w3.org/1999/xlink" x="0px" y="0px"
	 viewBox="0 0 100 100" style="enable-background:new 0 0 100 100;" xml:space="preserve">
<style type="text/css">
	.st0{display:none;}
	.st1{display:inline;}
	.st2{fill:#201600;}
	.st3{display:inline;fill:#0066FF;}
	.st4{display:inline;fill:#FF0000;}
	.st5{display:inline;fill:#FFFF00;}
	.st6{display:inline;fill:#00CC00;}
	.st7{display:inline;fill:url(#SVGID_1_);}
	.st8{display:inline;fill:#FFFFFF;}
	.st9{fill:url(#gradient_x5F_on_x5F_shape_4_);}
	.st10{display:inline;clip-path:url(#SVGID_3_);fill:url(#SVGID_4_);}
	.st11{fill:url(#SVGID_5_);}
	.st12{clip-path:url(#SVGID_7_);fill:url(#SVGID_8_);}
	.st13{clip-path:url(#mask_2_);fill:url(#bg_2_);}
	.st14{display:none;clip-path:url(#mask_2_);fill:url(#gradient_x5F_on_x5F_shape_5_);}
	.st15{clip-path:url(#mask_2_);}
	.st16{clip-path:url(#SVGID_10_);fill:url(#SVGID_11_);}
	.st17{clip-path:url(#mask_2_);fill:#201600;}
	.st18{clip-path:url(#mask_3_);fill:url(#bg_3_);}
	.st19{display:none;clip-path:url(#mask_3_);fill:url(#gradient_x5F_on_x5F_shape_6_);}
	.st20{clip-path:url(#mask_3_);}
	.st21{clip-path:url(#SVGID_13_);fill:url(#SVGID_14_);}
	.st22{clip-path:url(#mask_3_);fill:#201600;}
	.st23{display:inline;fill:#FFFFFF;stroke:#201600;stroke-width:2;stroke-miterlimit:10;}
	.st24{display:inline;stroke:#FFFFFF;stroke-width:2;stroke-miterlimit:10;}
	.st25{fill:#FFFFFF;}
</style>
<g id="RAW" class="st0">
	<g id="Слой_9" class="st1">
		<polygon class="st2" points="56,12 8,12 8,22 62.9,37.1 78,92 88,92 88,44 88,12 		"/>
	</g>
	<polygon class="st3" points="88,24 76,12 16,12 16,24.2 88,44 	"/>
	<polygon class="st4" points="76,12 56,12 75.8,84 88,84 88,24 	"/>
	<polygon class="st5" points="56,12 62.9,37.1 48,12 	"/>
	<polygon class="st6" points="82,88 88,84 75.8,84 	"/>
	<polygon class="st6" points="12,18 16,24.2 16,12 	"/>
</g>
<g id="gradient" class="st0">
	<linearGradient id="SVGID_1_" gradientUnits="userSpaceOnUse" x1="88" y1="50" x2="12" y2="50">
		<stop  offset="0" style="stop-color:#FDEA39"/>
		<stop  offset="0.6" style="stop-color:#F0592B"/>
	</linearGradient>
	<rect x="12" y="12" class="st7" width="76" height="76"/>
</g>
<g id="space" class="st0">
	<rect x="0" class="st8" width="100" height="100"/>
</g>
<g id="color">
	
		<linearGradient id="gradient_x5F_on_x5F_shape_4_" gradientUnits="userSpaceOnUse" x1="88" y1="49.4124" x2="46.0048" y2="49.4124">
		<stop  offset="0" style="stop-color:#FDEA39"/>
		<stop  offset="1" style="stop-color:#F0592B"/>
	</linearGradient>
	<path id="gradient_x5F_on_x5F_shape" class="st9" d="M79.5,15.5C77.3,13.3,74.2,12,71,12H56H46l16.9,25.1l12.1,44
		c0.5,1.9,1.7,3.5,3.4,4.6l0.3,0.2c2,1.3,4.6,1.3,6.6,0l0.1,0c1.7-1.1,2.7-3,2.7-5V56V44V29c0-3.2-1.3-6.2-3.5-8.5L79.5,15.5z"/>
	<g id="gradient_x5F_mask" class="st0">
		<defs>
			<path id="SVGID_2_" d="M79.5,15.5C77.3,13.3,74.2,12,71,12H56H46l16.9,25.1l12.5,45.4c0.3,0.9,0.9,1.8,1.7,2.3l2.7,1.7
				c1.3,0.9,3.1,0.9,4.4,0l2-1.4c1.1-0.7,1.8-2,1.8-3.3V56V44V29c0-3.2-1.3-6.2-3.5-8.5L79.5,15.5z"/>
		</defs>
		<clipPath id="SVGID_3_" class="st1">
			<use xlink:href="#SVGID_2_"  style="overflow:visible;"/>
		</clipPath>
		<linearGradient id="SVGID_4_" gradientUnits="userSpaceOnUse" x1="88" y1="50" x2="12" y2="50">
			<stop  offset="0" style="stop-color:#FDEA39"/>
			<stop  offset="0.6" style="stop-color:#F0592B"/>
		</linearGradient>
		<rect x="12" y="12" class="st10" width="76" height="76"/>
	</g>
	<path id="shape" class="st2" d="M46.9,12H19.2c-2,0-3.9,1-5,2.7l0,0.1c-1.3,2-1.3,4.6,0,6.6l0.2,0.3c1.1,1.7,2.7,2.9,4.6,3.4
		l44,12.1l-4.5-16.3C57,15.6,52.3,12,46.9,12z"/>
</g>
<g id="square_1_" class="st0">
	<g id="gradient_x5F_on_x5F_shape_1_">
		<g class="st1">
			<linearGradient id="SVGID_5_" gradientUnits="userSpaceOnUse" x1="88" y1="50" x2="46.0048" y2="50">
				<stop  offset="0" style="stop-color:#FDEA39"/>
				<stop  offset="1" style="stop-color:#F0592B"/>
			</linearGradient>
			<polygon class="st11" points="88,84 88,56 88,44 88,12 56,12 46,12 62.9,37.1 76.9,88 88,88 			"/>
		</g>
	</g>
	<g id="gradient_x5F_mask_1_" class="st1">
		<defs>
			<polygon id="SVGID_6_" points="88,84 88,56 88,44 88,12 56,12 46,12 62.9,37.1 76.9,88 88,88 			"/>
		</defs>
		<clipPath id="SVGID_7_">
			<use xlink:href="#SVGID_6_"  style="overflow:visible;"/>
		</clipPath>
		<linearGradient id="SVGID_8_" gradientUnits="userSpaceOnUse" x1="88" y1="50" x2="12" y2="50">
			<stop  offset="0" style="stop-color:#FDEA39"/>
			<stop  offset="0.6" style="stop-color:#F0592B"/>
		</linearGradient>
		<rect x="12" y="12" class="st12" width="76" height="76"/>
	</g>
	<g id="shape_1_" class="st1">
		<path class="st2" d="M62.9,37.1l-4.5-16.3C57,15.6,52.3,12,46.9,12H16h-4v11.1L62.9,37.1z"/>
	</g>
</g>
<g id="icon" class="st0">
	<g id="icon_x5F_mask" class="st1">
		<defs>
			<path id="mask" d="M68,88H32c-11,0-20-9-20-20V32c0-11,9-20,20-20h36c11,0,20,9,20,20v36C88,79,79,88,68,88z"/>
		</defs>
		<clipPath id="mask_2_">
			<use xlink:href="#mask"  style="overflow:visible;"/>
		</clipPath>
		<linearGradient id="bg_2_" gradientUnits="userSpaceOnUse" x1="82.1421" y1="17.8579" x2="17.8579" y2="82.1421">
			<stop  offset="0.5" style="stop-color:#FFFFFF"/>
			<stop  offset="1" style="stop-color:#EEEEEE"/>
		</linearGradient>
		<path id="bg" class="st13" d="M68,88H32c-11,0-20-9-20-20V32c0-11,9-20,20-20h36c11,0,20,9,20,20v36C88,79,79,88,68,88z"/>
		<linearGradient id="gradient_x5F_on_x5F_shape_5_" gradientUnits="userSpaceOnUse" x1="88" y1="50" x2="46.0048" y2="50">
			<stop  offset="0" style="stop-color:#FDEA39"/>
			<stop  offset="1" style="stop-color:#F0592B"/>
		</linearGradient>
		<polygon id="gradient_x5F_on_x5F_shape_2_" class="st14" points="88,12 56,12 46,12 62.9,37.1 76.9,88 82,88 88,88 88,56 88,44 
			88,12 		"/>
		<g id="gradient_x5F_mask_2_" class="st15">
			<defs>
				<polygon id="SVGID_9_" points="88,84 88,56 88,44 88,12 56,12 46,12 62.9,37.1 76.9,88 88,88 				"/>
			</defs>
			<clipPath id="SVGID_10_">
				<use xlink:href="#SVGID_9_"  style="overflow:visible;"/>
			</clipPath>
			<linearGradient id="SVGID_11_" gradientUnits="userSpaceOnUse" x1="88" y1="50" x2="12" y2="50">
				<stop  offset="0" style="stop-color:#FDEA39"/>
				<stop  offset="0.6" style="stop-color:#F0592B"/>
			</linearGradient>
			<rect x="12" y="12" class="st16" width="76" height="76"/>
		</g>
		<path id="shape_2_" class="st17" d="M46.9,12H12v6v5.1l50.9,14l-4.5-16.3C57,15.6,52.3,12,46.9,12z"/>
	</g>
</g>
<g id="round" class="st0">
	<g id="round_x5F_mask" class="st1">
		<defs>
			<path id="mask_1_" d="M50,88L50,88c-21,0-38-17-38-38v0c0-21,17-38,38-38h0c21,0,38,17,38,38v0C88,71,71,88,50,88z"/>
		</defs>
		<clipPath id="mask_3_">
			<use xlink:href="#mask_1_"  style="overflow:visible;"/>
		</clipPath>
		<linearGradient id="bg_3_" gradientUnits="userSpaceOnUse" x1="76.8701" y1="23.1299" x2="23.1299" y2="76.8701">
			<stop  offset="0.5" style="stop-color:#FFFFFF"/>
			<stop  offset="1" style="stop-color:#EEEEEE"/>
		</linearGradient>
		<path id="bg_1_" class="st18" d="M50,88L50,88c-21,0-38-17-38-38v0c0-21,17-38,38-38h0c21,0,38,17,38,38v0C88,71,71,88,50,88z"/>
		<linearGradient id="gradient_x5F_on_x5F_shape_6_" gradientUnits="userSpaceOnUse" x1="88" y1="50" x2="46.0048" y2="50">
			<stop  offset="0" style="stop-color:#FDEA39"/>
			<stop  offset="1" style="stop-color:#F0592B"/>
		</linearGradient>
		<polygon id="gradient_x5F_on_x5F_shape_3_" class="st19" points="88,12 56,12 46,12 62.9,37.1 76.9,88 82,88 88,88 88,56 88,44 
			88,12 		"/>
		<g id="gradient_x5F_mask_3_" class="st20">
			<defs>
				<polygon id="SVGID_12_" points="88,84 88,56 88,44 88,12 56,12 46,12 62.9,37.1 76.9,88 88,88 				"/>
			</defs>
			<clipPath id="SVGID_13_">
				<use xlink:href="#SVGID_12_"  style="overflow:visible;"/>
			</clipPath>
			<linearGradient id="SVGID_14_" gradientUnits="userSpaceOnUse" x1="88" y1="50" x2="12" y2="50">
				<stop  offset="0" style="stop-color:#FDEA39"/>
				<stop  offset="0.6" style="stop-color:#F0592B"/>
			</linearGradient>
			<rect x="12" y="12" class="st21" width="76" height="76"/>
		</g>
		<path id="shape_3_" class="st22" d="M46.9,12H12v6v5.1l50.9,14l-4.5-16.3C57,15.6,52.3,12,46.9,12z"/>
	</g>
</g>
<g id="mono_x5F_black" class="st0">
	<path id="shape_x5F_white" class="st23" d="M68,12H19.2c-2,0-3.9,1-5,2.7l0,0.1c-1.3,2-1.3,4.6,0,6.6l0.2,0.3
		c1.1,1.7,2.7,2.9,4.6,3.4L68,38.5V12z"/>
	<g id="shape_x5F_black" class="st1">
		<path class="st2" d="M81.9,87.3c-1.3,0-2.5-0.4-3.5-1l-0.3-0.2c-1.8-1.1-3-2.9-3.6-4.9L57.9,21c-1.3-4.6-5.3-7.9-10-8.4l-0.3,0
			l-0.6-1l0.8-0.1h23c3.3,0,6.5,1.3,8.8,3.7l5,5c2.4,2.4,3.7,5.5,3.7,8.8v51.8c0,2.2-1.1,4.2-2.9,5.4C84.5,86.9,83.2,87.3,81.9,87.3
			L81.9,87.3z"/>
		<path class="st2" d="M71,12c3.2,0,6.2,1.3,8.5,3.5l5,5c2.3,2.3,3.5,5.3,3.5,8.5v15v12v24.8c0,2-1,3.9-2.7,5l-0.1,0
			c-1,0.7-2.2,1-3.3,1c-1.1,0-2.3-0.3-3.3-1l-0.3-0.2c-1.7-1.1-2.9-2.7-3.4-4.6l-12.1-44l-4.5-16.3c-1.3-4.8-5.5-8.3-10.4-8.8l0-0.1
			h8H71 M71,11H56h-8h-1.8l0.9,1.5l0,0.1l0.3,0.4l0.5,0c4.5,0.4,8.3,3.7,9.5,8l4.5,16.3l12.1,44c0.6,2.1,1.9,4,3.8,5.2l0.3,0.2
			c1.1,0.7,2.4,1.1,3.8,1.1c1.4,0,2.7-0.4,3.9-1.2l0.1,0c2-1.3,3.1-3.5,3.1-5.8V56V44V29c0-3.5-1.4-6.7-3.8-9.2l-5-5
			C77.8,12.4,74.5,11,71,11L71,11z"/>
	</g>
</g>
<g id="mono_x5F_white" class="st0">
	<path id="shape_x5F_black_1_" class="st24" d="M68,12H19.2c-2,0-3.9,1-5,2.7l0,0.1c-1.3,2-1.3,4.6,0,6.6l0.2,0.3
		c1.1,1.7,2.7,2.9,4.6,3.4L68,38.5V12z"/>
	<g id="shape_x5F_white_1_" class="st1">
		<path class="st25" d="M81.9,87.3c-1.3,0-2.5-0.4-3.5-1l-0.3-0.2c-1.8-1.1-3-2.9-3.6-4.9L57.9,21c-1.3-4.6-5.3-7.9-10-8.4l-0.3,0
			l-0.6-1l0.8-0.1h23c3.3,0,6.5,1.3,8.8,3.7l5,5c2.4,2.4,3.7,5.5,3.7,8.8v51.8c0,2.2-1.1,4.2-2.9,5.4C84.5,86.9,83.2,87.3,81.9,87.3
			L81.9,87.3z"/>
		<path class="st25" d="M71,12c3.2,0,6.2,1.3,8.5,3.5l5,5c2.3,2.3,3.5,5.3,3.5,8.5v15v12v24.8c0,2-1,3.9-2.7,5l-0.1,0
			c-1,0.7-2.2,1-3.3,1c-1.1,0-2.3-0.3-3.3-1l-0.3-0.2c-1.7-1.1-2.9-2.7-3.4-4.6l-12.1-44l-4.5-16.3c-1.3-4.8-5.5-8.3-10.4-8.8l0-0.1
			h8H71 M71,11H56h-8h-1.8l0.9,1.5l0,0.1l0.3,0.4l0.5,0c4.5,0.4,8.3,3.7,9.5,8l4.5,16.3l12.1,44c0.6,2.1,1.9,4,3.8,5.2l0.3,0.2
			c1.1,0.7,2.4,1.1,3.8,1.1c1.4,0,2.7-0.4,3.9-1.2l0.1,0c2-1.3,3.1-3.5,3.1-5.8V56V44V29c0-3.5-1.4-6.7-3.8-9.2l-5-5
			C77.8,12.4,74.5,11,71,11L71,11z"/>
	</g>
</g>
<g id="GRID" class="st0">
</g>
</svg>
