<?xml version="1.0" encoding="utf-8"?>
<!-- Generator: Adobe Illustrator 23.0.5, SVG Export Plug-In . SVG Version: 6.00 Build 0)  -->
<svg version="1.1" xmlns="http://www.w3.org/2000/svg" xmlns:xlink="http://www.w3.org/1999/xlink" x="0px" y="0px"
	 viewBox="0 0 425.2 425.2" style="enable-background:new 0 0 425.2 425.2;" xml:space="preserve">
<style type="text/css">
	.st0{fill:#FFF;}
	.st1{fill:none;}
</style>
<g id="Слой_1">
	<path class="st0" d="M332.7,224.7c-0.2-34.8,15.6-61.1,47.5-80.5c-17.8-25.5-44.8-39.6-80.4-42.3c-33.7-2.7-70.5,19.6-84,19.6
		c-14.2,0-46.9-18.7-72.5-18.7c-53,0.9-109.3,42.2-109.3,126.4c0,24.9,4.6,50.6,13.7,77.1c12.2,34.8,56,120.3,101.8,118.8
		c23.9-0.6,40.8-17,72-17c30.2,0,45.8,17,72.5,17c46.1-0.7,85.8-78.3,97.4-113.2C329.4,282.8,332.7,226.5,332.7,224.7L332.7,224.7z
		 M279,68.8c25.9-30.8,23.5-58.8,22.8-68.8c-22.9,1.3-49.4,15.6-64.5,33.1c-16.6,18.8-26.4,42.1-24.3,68.3
		C237.8,103.3,260.3,90.6,279,68.8z"/>
</g>
<g id="Слой_2">
	<rect class="st1" width="425.2" height="425.2"/>
</g>
</svg>
