<?xml version="1.0" encoding="utf-8"?>
<!-- Generator: Adobe Illustrator 23.0.5, SVG Export Plug-In . SVG Version: 6.00 Build 0)  -->
<svg version="1.1" xmlns="http://www.w3.org/2000/svg" xmlns:xlink="http://www.w3.org/1999/xlink" x="0px" y="0px"
	 viewBox="0 0 100 100" style="enable-background:new 0 0 100 100;" xml:space="preserve">
<style type="text/css">
	.st0{display:none;}
	.st1{display:inline;}
	.st2{fill:#FFFF33;}
	.st3{fill:#EEEEEE;}
	.st4{fill:#6633FF;}
	.st5{display:inline;fill:#FFFF33;}
	.st6{font-family:'Montserrat-ExtraBold';}
	.st7{font-size:50px;}
	.st8{display:inline;fill:#6633FF;}
	.st9{font-family:'Montserrat-ExtraLight';}
	.st10{font-size:80px;}
	.st11{fill:#6633FF;stroke:#6633FF;stroke-width:0.5;stroke-miterlimit:10;}
</style>
<g id="Слой_6" class="st0">
	<g id="Слой_1" class="st1">
	</g>
	<g id="Слой_2" class="st1">
		<rect x="10" y="14" class="st2" width="30" height="70"/>
		<rect x="60" y="14" class="st2" width="30" height="70"/>
	</g>
	<g id="Слой_4" class="st1">
		<rect x="10" y="14" class="st3" width="30" height="60"/>
	</g>
	<g id="Слой_3" class="st1">
	</g>
	<g id="Слой_5" class="st1">
		<g>
			<g id="swap-horiz">
				<path class="st4" d="M36.11,45.78L25,56.89L36.11,68v-8.33h19.44v-5.56H36.11V45.78z M75,40.22L63.89,29.11v8.33H44.44V43h19.44
					v8.33L75,40.22z"/>
			</g>
		</g>
	</g>
</g>
<g id="Слой_10" class="st0">
	<text transform="matrix(1 0 0 1 0 41.1595)" class="st5 st6 st7">IP</text>
	<text transform="matrix(1 0 0 1 3 83)" class="st8 st9 st10">65</text>
</g>
<g id="Слой_11">
	<g id="Слой_7">
		<circle class="st4" cx="25" cy="15" r="5"/>
		<circle class="st4" cx="5" cy="34.68" r="5"/>
		<circle class="st4" cx="20" cy="75" r="5"/>
		<circle class="st4" cx="90" cy="31" r="5"/>
		<circle class="st4" cx="80" cy="10" r="5"/>
	</g>
	<g id="Слой_9">
		<line class="st11" x1="25" y1="20" x2="25" y2="30"/>
		<line class="st11" x1="35" y1="30" x2="25" y2="30"/>
		<line class="st11" x1="5" y1="39" x2="5" y2="49"/>
		<line class="st11" x1="25" y1="49" x2="5" y2="49"/>
		<line class="st11" x1="43" y1="75" x2="23" y2="75"/>
		<line class="st11" x1="90" y1="36" x2="90" y2="46"/>
		<line class="st11" x1="90" y1="46" x2="67" y2="46"/>
		<line class="st11" x1="79" y1="10" x2="68" y2="10"/>
		<line class="st11" x1="68" y1="10.22" x2="54" y2="24"/>
	</g>
	<g id="Слой_8">
		<circle class="st2" cx="50" cy="50" r="30"/>
	</g>
</g>
</svg>
