<?xml version="1.0" encoding="utf-8"?>
<!-- Generator: Adobe Illustrator 23.0.5, SVG Export Plug-In . SVG Version: 6.00 Build 0)  -->
<svg version="1.1" xmlns="http://www.w3.org/2000/svg" xmlns:xlink="http://www.w3.org/1999/xlink" x="0px" y="0px"
	 viewBox="0 0 100 100" style="enable-background:new 0 0 100 100;" xml:space="preserve">
<style type="text/css">
	.st0{display:none;}
	.st1{display:inline;}
	.st2{fill:#FFFF33;}
	.st3{fill:#EEEEEE;}
	.st4{display:inline;fill:#6633FF;stroke:#000000;stroke-width:0.5;stroke-miterlimit:10;}
	.st5{font-family:'Montserrat-ExtraBold';}
	.st6{font-size:50px;}
	.st7{fill:#6633FF;}
	.st8{font-family:'Montserrat-ExtraLight';}
	.st9{font-size:80px;}
	.st10{display:inline;fill:#6633FF;}
	.st11{display:inline;fill:#FFFF33;}
</style>
<g id="Слой_6" class="st0">
	<g id="Слой_1" class="st1">
	</g>
	<g id="Слой_2" class="st1">
		<rect x="10" y="14" class="st2" width="30" height="70"/>
		<rect x="60" y="14" class="st2" width="30" height="70"/>
	</g>
	<g id="Слой_4" class="st1">
		<rect x="10" y="14" class="st3" width="30" height="60"/>
	</g>
	<g id="Слой_3" class="st1">
	</g>
</g>
<g id="Слой_9" class="st0">
	<line class="st4" x1="25" y1="20" x2="25" y2="30"/>
	<line class="st4" x1="35" y1="30" x2="25" y2="30"/>
	<line class="st4" x1="5" y1="39" x2="5" y2="49"/>
	<line class="st4" x1="25" y1="49" x2="5" y2="49"/>
	<line class="st4" x1="43" y1="75" x2="23" y2="75"/>
	<line class="st4" x1="90" y1="36" x2="90" y2="46"/>
	<line class="st4" x1="90" y1="46" x2="67" y2="46"/>
	<line class="st4" x1="79" y1="10" x2="68" y2="10"/>
	<line class="st4" x1="68" y1="10.22" x2="54" y2="24"/>
</g>
<g id="Слой_10">
	<text transform="matrix(1 0 0 1 0 41.1595)" class="st2 st5 st6">IP</text>
	<text transform="matrix(1 0 0 1 3 83)" class="st7 st8 st9">65</text>
</g>
<g id="Слой_5" class="st0">
	<g class="st1">
		<g id="swap-horiz">
			<path class="st7" d="M36.11,45.78L25,56.89L36.11,68v-8.33h19.44v-5.56H36.11V45.78z M75,40.22L63.89,29.11v8.33H44.44V43h19.44
				v8.33L75,40.22z"/>
		</g>
	</g>
</g>
<g id="Слой_7" class="st0">
	<circle class="st10" cx="25" cy="15" r="5"/>
	<circle class="st10" cx="5" cy="34.68" r="5"/>
	<circle class="st10" cx="20" cy="75" r="5"/>
	<circle class="st10" cx="90" cy="31" r="5"/>
	<circle class="st10" cx="80" cy="10" r="5"/>
</g>
<g id="Слой_8" class="st0">
	<circle class="st11" cx="50" cy="50" r="30"/>
</g>
</svg>
