<?xml version="1.0" encoding="utf-8"?>
<!-- Generator: Adobe Illustrator 23.0.5, SVG Export Plug-In . SVG Version: 6.00 Build 0)  -->
<svg version="1.1" id="Слой_1" xmlns="http://www.w3.org/2000/svg" xmlns:xlink="http://www.w3.org/1999/xlink" x="0px" y="0px"
	 viewBox="0 0 100 100" style="enable-background:new 0 0 100 100;" xml:space="preserve">
<style type="text/css">
	.st0{display:none;}
	.st1{display:inline;}
	.st2{fill:#201600;}
	.st3{display:inline;fill:#0066FF;}
	.st4{display:inline;fill:#FF0000;}
	.st5{display:inline;fill:#FFFF00;}
	.st6{display:inline;fill:#00CC00;}
	.st7{display:inline;fill:url(#SVGID_1_);}
	.st8{display:inline;fill:#FFFFFF;}
	.st9{display:inline;fill:url(#gradient_x5F_on_x5F_shape_4_);}
	.st10{clip-path:url(#SVGID_3_);fill:url(#SVGID_4_);}
	.st11{display:inline;fill:#201600;}
	.st12{fill:url(#SVGID_5_);}
	.st13{clip-path:url(#SVGID_7_);fill:url(#SVGID_8_);}
	.st14{clip-path:url(#SVGID_10_);fill:url(#bg_2_);}
	.st15{display:none;clip-path:url(#SVGID_12_);fill:url(#gradient_x5F_on_x5F_shape_5_);}
	.st16{clip-path:url(#SVGID_14_);}
	.st17{clip-path:url(#SVGID_16_);fill:url(#SVGID_17_);}
	.st18{clip-path:url(#SVGID_19_);fill:#201600;}
	.st19{clip-path:url(#SVGID_21_);fill:url(#bg_3_);}
	.st20{display:none;clip-path:url(#SVGID_23_);fill:url(#gradient_x5F_on_x5F_shape_6_);}
	.st21{clip-path:url(#SVGID_25_);}
	.st22{clip-path:url(#SVGID_27_);fill:url(#SVGID_28_);}
	.st23{clip-path:url(#SVGID_30_);fill:#201600;}
	.st24{opacity:0.3;enable-background:new    ;}
	.st25{display:inline;stroke:#FFFFFF;stroke-width:2;stroke-miterlimit:10;}
	.st26{fill:#FFFFFF;}
</style>
<g id="RAW" class="st0">
	<g id="Слой_9" class="st1">
		<polygon class="st2" points="56,12 8,12 8,22 62.9,37.1 78,92 88,92 88,44 88,12 		"/>
	</g>
	<polygon class="st3" points="88,24 76,12 16,12 16,24.2 88,44 	"/>
	<polygon class="st4" points="76,12 56,12 75.8,84 88,84 88,24 	"/>
	<polygon class="st5" points="56,12 62.9,37.1 48,12 	"/>
	<polygon class="st6" points="82,88 88,84 75.8,84 	"/>
	<polygon class="st6" points="12,18 16,24.2 16,12 	"/>
</g>
<g id="gradient" class="st0">
	
		<linearGradient id="SVGID_1_" gradientUnits="userSpaceOnUse" x1="88" y1="-132" x2="12" y2="-132" gradientTransform="matrix(1 0 0 -1 0 -82)">
		<stop  offset="0" style="stop-color:#FDEA39"/>
		<stop  offset="0.6" style="stop-color:#F0592B"/>
	</linearGradient>
	<rect x="12" y="12" class="st7" width="76" height="76"/>
</g>
<g id="space" class="st0">
	<rect class="st8" width="100" height="100"/>
</g>
<g id="color" class="st0">
	
		<linearGradient id="gradient_x5F_on_x5F_shape_4_" gradientUnits="userSpaceOnUse" x1="88" y1="-131.4314" x2="46" y2="-131.4314" gradientTransform="matrix(1 0 0 -1 0 -82)">
		<stop  offset="0" style="stop-color:#FDEA39"/>
		<stop  offset="1" style="stop-color:#F0592B"/>
	</linearGradient>
	<path id="gradient_x5F_on_x5F_shape" class="st9" d="M79.5,15.5C77.3,13.3,74.2,12,71,12H56H46l16.9,25.1l12.1,44
		c0.5,1.9,1.7,3.5,3.4,4.6l0.3,0.2c2,1.3,4.6,1.3,6.6-0.1h0.1c1.7-1.1,2.7-3,2.7-5V56V44V29c0-3.2-1.3-6.2-3.5-8.5L79.5,15.5z"/>
	<g id="gradient_x5F_mask" class="st1">
		<g>
			<g>
				<g>
					<defs>
						<path id="SVGID_2_" d="M79.5,15.5C77.3,13.3,74.2,12,71,12H56H46l16.9,25.1l12.5,45.4c0.3,0.9,0.9,1.8,1.7,2.3l2.7,1.8
							c1.3,0.9,3.1,0.8,4.4,0l2-1.4c1.1-0.7,1.8-2,1.8-3.3V56V44V29c0-3.2-1.3-6.2-3.5-8.5L79.5,15.5z"/>
					</defs>
					<clipPath id="SVGID_3_">
						<use xlink:href="#SVGID_2_"  style="overflow:visible;"/>
					</clipPath>
					
						<linearGradient id="SVGID_4_" gradientUnits="userSpaceOnUse" x1="88" y1="-132" x2="12" y2="-132" gradientTransform="matrix(1 0 0 -1 0 -82)">
						<stop  offset="0" style="stop-color:#FDEA39"/>
						<stop  offset="0.6" style="stop-color:#F0592B"/>
					</linearGradient>
					<rect x="12" y="12" class="st10" width="76" height="76"/>
				</g>
			</g>
		</g>
	</g>
	<path id="shape" class="st11" d="M46.8,12H19.2c-2,0-3.9,1-5,2.7v0.1c-1.3,2-1.3,4.6-0.1,6.6l0.2,0.3c1.1,1.6,2.7,2.9,4.6,3.4
		l44,12.1l-4.5-16.3C57,15.6,52.3,12,46.8,12z"/>
</g>
<g id="square_1_" class="st0">
	<g id="gradient_x5F_on_x5F_shape_1_" class="st1">
		<g>
			
				<linearGradient id="SVGID_5_" gradientUnits="userSpaceOnUse" x1="88" y1="-132" x2="46" y2="-132" gradientTransform="matrix(1 0 0 -1 0 -82)">
				<stop  offset="0" style="stop-color:#FDEA39"/>
				<stop  offset="1" style="stop-color:#F0592B"/>
			</linearGradient>
			<polygon class="st12" points="88,84 88,56 88,44 88,12 56,12 46,12 62.9,37.1 76.9,88 88,88 			"/>
		</g>
	</g>
	<g id="gradient_x5F_mask_1_" class="st1">
		<g>
			<g>
				<g>
					<defs>
						<polygon id="SVGID_6_" points="88,84 88,56 88,44 88,12 56,12 46,12 62.9,37.1 76.9,88 88,88 						"/>
					</defs>
					<clipPath id="SVGID_7_">
						<use xlink:href="#SVGID_6_"  style="overflow:visible;"/>
					</clipPath>
					
						<linearGradient id="SVGID_8_" gradientUnits="userSpaceOnUse" x1="88" y1="-132" x2="12" y2="-132" gradientTransform="matrix(1 0 0 -1 0 -82)">
						<stop  offset="0" style="stop-color:#FDEA39"/>
						<stop  offset="0.6" style="stop-color:#F0592B"/>
					</linearGradient>
					<rect x="12" y="12" class="st13" width="76" height="76"/>
				</g>
			</g>
		</g>
	</g>
	<g id="shape_1_" class="st1">
		<path class="st2" d="M62.9,37.1l-4.5-16.3C57,15.6,52.3,12,46.8,12H16h-4v11.1L62.9,37.1z"/>
	</g>
</g>
<g id="icon" class="st0">
	<g id="icon_x5F_mask" class="st1">
		<g>
			<g>
				<g>
					<defs>
						<path id="SVGID_9_" d="M68,88H32c-11,0-20-8.9-20-20V32c0-11,9-20,20-20h36c11.1,0,20,9,20,20v36C88,79.1,79.1,88,68,88z"/>
					</defs>
					<clipPath id="SVGID_10_">
						<use xlink:href="#SVGID_9_"  style="overflow:visible;"/>
					</clipPath>
					
						<linearGradient id="bg_2_" gradientUnits="userSpaceOnUse" x1="82.1625" y1="-99.875" x2="17.875" y2="-164.1625" gradientTransform="matrix(1 0 0 -1 0 -82)">
						<stop  offset="0.5" style="stop-color:#FFFFFF"/>
						<stop  offset="1" style="stop-color:#EEEEEE"/>
					</linearGradient>
					<path id="bg" class="st14" d="M68,88H32c-11,0-20-8.9-20-20V32c0-11,9-20,20-20h36c11.1,0,20,9,20,20v36C88,79.1,79.1,88,68,88
						z"/>
				</g>
			</g>
		</g>
		<g>
			<g>
				<g>
					<defs>
						<path id="SVGID_11_" d="M68,88H32c-11,0-20-8.9-20-20V32c0-11,9-20,20-20h36c11.1,0,20,9,20,20v36C88,79.1,79.1,88,68,88z"/>
					</defs>
					<clipPath id="SVGID_12_">
						<use xlink:href="#SVGID_11_"  style="overflow:visible;"/>
					</clipPath>
					
						<linearGradient id="gradient_x5F_on_x5F_shape_5_" gradientUnits="userSpaceOnUse" x1="88" y1="-132" x2="46" y2="-132" gradientTransform="matrix(1 0 0 -1 0 -82)">
						<stop  offset="0" style="stop-color:#FDEA39"/>
						<stop  offset="1" style="stop-color:#F0592B"/>
					</linearGradient>
					<polygon id="gradient_x5F_on_x5F_shape_2_" class="st15" points="88,12 56,12 46,12 62.9,37.1 76.9,88 82,88 88,88 88,56 
						88,44 					"/>
				</g>
			</g>
		</g>
		<g>
			<g>
				<g>
					<defs>
						<path id="SVGID_13_" d="M68,88H32c-11,0-20-8.9-20-20V32c0-11,9-20,20-20h36c11.1,0,20,9,20,20v36C88,79.1,79.1,88,68,88z"/>
					</defs>
					<clipPath id="SVGID_14_">
						<use xlink:href="#SVGID_13_"  style="overflow:visible;"/>
					</clipPath>
					<g id="gradient_x5F_mask_2_" class="st16">
						<g>
							<g>
								<g>
									<defs>
										<polygon id="SVGID_15_" points="88,84 88,56 88,44 88,12 56,12 46,12 62.9,37.1 76.9,88 88,88 										"/>
									</defs>
									<clipPath id="SVGID_16_">
										<use xlink:href="#SVGID_15_"  style="overflow:visible;"/>
									</clipPath>
									
										<linearGradient id="SVGID_17_" gradientUnits="userSpaceOnUse" x1="88" y1="-132" x2="12" y2="-132" gradientTransform="matrix(1 0 0 -1 0 -82)">
										<stop  offset="0" style="stop-color:#FDEA39"/>
										<stop  offset="0.6" style="stop-color:#F0592B"/>
									</linearGradient>
									<rect x="12" y="12" class="st17" width="76" height="76"/>
								</g>
							</g>
						</g>
					</g>
				</g>
			</g>
		</g>
		<g>
			<g>
				<g>
					<defs>
						<path id="SVGID_18_" d="M68,88H32c-11,0-20-8.9-20-20V32c0-11,9-20,20-20h36c11.1,0,20,9,20,20v36C88,79.1,79.1,88,68,88z"/>
					</defs>
					<clipPath id="SVGID_19_">
						<use xlink:href="#SVGID_18_"  style="overflow:visible;"/>
					</clipPath>
					<path id="shape_2_" class="st18" d="M46.8,12H12v6v5.1l50.9,14l-4.5-16.3C57,15.6,52.3,12,46.8,12z"/>
				</g>
			</g>
		</g>
	</g>
</g>
<g id="round" class="st0">
	<g id="round_x5F_mask" class="st1">
		<g>
			<g>
				<g>
					<defs>
						<path id="SVGID_20_" d="M50,88L50,88c-21,0-38-17-38-38l0,0c0-21,17-38,38-38l0,0c21,0,38,17,38,38l0,0C88,71,71,88,50,88z"/>
					</defs>
					<clipPath id="SVGID_21_">
						<use xlink:href="#SVGID_20_"  style="overflow:visible;"/>
					</clipPath>
					
						<linearGradient id="bg_3_" gradientUnits="userSpaceOnUse" x1="76.875" y1="-105.125" x2="23.125" y2="-158.875" gradientTransform="matrix(1 0 0 -1 0 -82)">
						<stop  offset="0.5" style="stop-color:#FFFFFF"/>
						<stop  offset="1" style="stop-color:#EEEEEE"/>
					</linearGradient>
					<path id="bg_1_" class="st19" d="M50,88L50,88c-21,0-38-17-38-38l0,0c0-21,17-38,38-38l0,0c21,0,38,17,38,38l0,0
						C88,71,71,88,50,88z"/>
				</g>
			</g>
		</g>
		<g>
			<g>
				<g>
					<defs>
						<path id="SVGID_22_" d="M50,88L50,88c-21,0-38-17-38-38l0,0c0-21,17-38,38-38l0,0c21,0,38,17,38,38l0,0C88,71,71,88,50,88z"/>
					</defs>
					<clipPath id="SVGID_23_">
						<use xlink:href="#SVGID_22_"  style="overflow:visible;"/>
					</clipPath>
					
						<linearGradient id="gradient_x5F_on_x5F_shape_6_" gradientUnits="userSpaceOnUse" x1="88" y1="-132" x2="46" y2="-132" gradientTransform="matrix(1 0 0 -1 0 -82)">
						<stop  offset="0" style="stop-color:#FDEA39"/>
						<stop  offset="1" style="stop-color:#F0592B"/>
					</linearGradient>
					<polygon id="gradient_x5F_on_x5F_shape_3_" class="st20" points="88,12 56,12 46,12 62.9,37.1 76.9,88 82,88 88,88 88,56 
						88,44 					"/>
				</g>
			</g>
		</g>
		<g>
			<g>
				<g>
					<defs>
						<path id="SVGID_24_" d="M50,88L50,88c-21,0-38-17-38-38l0,0c0-21,17-38,38-38l0,0c21,0,38,17,38,38l0,0C88,71,71,88,50,88z"/>
					</defs>
					<clipPath id="SVGID_25_">
						<use xlink:href="#SVGID_24_"  style="overflow:visible;"/>
					</clipPath>
					<g id="gradient_x5F_mask_3_" class="st21">
						<g>
							<g>
								<g>
									<defs>
										<polygon id="SVGID_26_" points="88,84 88,56 88,44 88,12 56,12 46,12 62.9,37.1 76.9,88 88,88 										"/>
									</defs>
									<clipPath id="SVGID_27_">
										<use xlink:href="#SVGID_26_"  style="overflow:visible;"/>
									</clipPath>
									
										<linearGradient id="SVGID_28_" gradientUnits="userSpaceOnUse" x1="88" y1="-132" x2="12" y2="-132" gradientTransform="matrix(1 0 0 -1 0 -82)">
										<stop  offset="0" style="stop-color:#FDEA39"/>
										<stop  offset="0.6" style="stop-color:#F0592B"/>
									</linearGradient>
									<rect x="12" y="12" class="st22" width="76" height="76"/>
								</g>
							</g>
						</g>
					</g>
				</g>
			</g>
		</g>
		<g>
			<g>
				<g>
					<defs>
						<path id="SVGID_29_" d="M50,88L50,88c-21,0-38-17-38-38l0,0c0-21,17-38,38-38l0,0c21,0,38,17,38,38l0,0C88,71,71,88,50,88z"/>
					</defs>
					<clipPath id="SVGID_30_">
						<use xlink:href="#SVGID_29_"  style="overflow:visible;"/>
					</clipPath>
					<path id="shape_3_" class="st23" d="M46.8,12H12v6v5.1l50.9,14l-4.5-16.3C57,15.6,52.3,12,46.8,12z"/>
				</g>
			</g>
		</g>
	</g>
</g>
<path class="st24" d="M85.2,19.8l-5-5C77.8,12.3,74.5,11,71,11H56h-8h-1.8l0,0h-27c-2.3,0-4.5,1.2-5.8,3l-0.1,0.1
	c-1.5,2.3-1.6,5.3-0.1,7.7l0.2,0.3c1.2,1.9,3.1,3.2,5.2,3.8L62,37.8l12,43.5c0.6,2.1,1.9,4,3.8,5.2l0.3,0.2c1.1,0.7,2.4,1.1,3.8,1.1
	s2.7-0.4,3.9-1.2l0,0c2-1.3,3.1-3.5,3.1-5.8V56V44V29C89,25.5,87.7,22.2,85.2,19.8z M15.2,21.1L15,20.8c-1.1-1.7-1.1-3.8,0-5.4
	l0.1-0.1c0.9-1.4,2.5-2.2,4.2-2.2h28.2l0,0H48c4.5,0.4,8.3,3.7,9.5,8l4,14.6L19.2,24C17.6,23.6,16.1,22.5,15.2,21.1z"/>
<g id="mono_x5F_white" class="st0">
	<path id="shape_x5F_black_1_" class="st25" d="M68,12H19.2c-2,0-3.9,1-5,2.7v0.1c-1.3,2-1.3,4.6-0.1,6.6l0.2,0.3
		c1.1,1.6,2.7,2.9,4.6,3.4L68,38.5V12z"/>
	<g id="shape_x5F_white_1_" class="st1">
		<path class="st26" d="M81.9,87.3c-1.2,0-2.5-0.4-3.5-1l-0.3-0.2c-1.8-1.1-3-2.9-3.6-4.9L57.9,20.9c-1.2-4.5-5.2-7.9-10-8.4h-0.2
			l-0.6-1l0.8-0.1h23c3.3,0,6.5,1.3,8.8,3.7l5,5c2.4,2.4,3.7,5.5,3.7,8.8v51.8c0,2.2-1.1,4.2-2.9,5.4C84.5,86.9,83.2,87.3,81.9,87.3
			L81.9,87.3z"/>
		<path class="st26" d="M71,12c3.2,0,6.2,1.3,8.5,3.5l5,5c2.2,2.2,3.5,5.3,3.5,8.5v15v12v24.8c0,2-1,3.9-2.7,5h-0.1
			c-1,0.7-2.2,1-3.3,1c-1.1,0-2.3-0.3-3.2-1l-0.3-0.2c-1.7-1.1-2.8-2.7-3.4-4.6L62.9,37l-4.5-16.3c-1.3-4.8-5.5-8.3-10.4-8.8v-0.1h8
			h15 M71,11H56h-8h-1.8l0.9,1.5v0.1l0.3,0.4l0.5,0.1c4.5,0.4,8.3,3.7,9.5,8l4.5,16.3l12.1,44c0.6,2.1,1.9,4,3.8,5.2l0.3,0.2
			c1.1,0.7,2.4,1.1,3.8,1.1s2.7-0.4,3.9-1.2h0.1c1.9-1.3,3.1-3.5,3.1-5.8V56V44V29c0-3.5-1.3-6.7-3.8-9.2l-5-5
			C77.8,12.3,74.5,11,71,11L71,11z"/>
	</g>
</g>
<g id="GRID" class="st0">
</g>
</svg>
