<?xml version="1.0" encoding="utf-8"?>
<!-- Generator: Adobe Illustrator 23.0.5, SVG Export Plug-In . SVG Version: 6.00 Build 0)  -->
<svg version="1.1" xmlns="http://www.w3.org/2000/svg" xmlns:xlink="http://www.w3.org/1999/xlink" x="0px" y="0px"
	 viewBox="0 0 100 100" style="enable-background:new 0 0 100 100;" xml:space="preserve">
<style type="text/css">
	.st0{display:none;}
	.st1{display:inline;}
	.st2{fill:#201600;}
	.st3{display:inline;fill:#0066FF;}
	.st4{display:inline;fill:#FF0000;}
	.st5{display:inline;fill:#FFFF00;}
	.st6{display:inline;fill:#00CC00;}
	.st7{display:inline;fill:url(#SVGID_1_);}
	.st8{display:inline;fill:#FFFFFF;}
	.st9{display:inline;fill:url(#gradient_x5F_on_x5F_shape_4_);}
	.st10{display:inline;clip-path:url(#SVGID_3_);fill:url(#SVGID_4_);}
	.st11{display:inline;fill:#201600;}
	.st12{fill:url(#SVGID_5_);}
	.st13{clip-path:url(#SVGID_7_);fill:url(#SVGID_8_);}
	.st14{clip-path:url(#mask_2_);fill:url(#bg_2_);}
	.st15{display:none;clip-path:url(#mask_2_);fill:url(#gradient_x5F_on_x5F_shape_5_);}
	.st16{clip-path:url(#mask_2_);}
	.st17{clip-path:url(#SVGID_10_);fill:url(#SVGID_11_);}
	.st18{clip-path:url(#mask_2_);fill:#201600;}
	.st19{clip-path:url(#mask_3_);fill:url(#bg_3_);}
	.st20{display:none;clip-path:url(#mask_3_);fill:url(#gradient_x5F_on_x5F_shape_6_);}
	.st21{clip-path:url(#mask_3_);}
	.st22{clip-path:url(#SVGID_13_);fill:url(#SVGID_14_);}
	.st23{clip-path:url(#mask_3_);fill:#201600;}
	.st24{fill:none;stroke:#333333;stroke-width:2;stroke-miterlimit:10;}
	.st25{fill:#333333;}
	.st26{display:inline;stroke:#FFFFFF;stroke-width:2;stroke-miterlimit:10;}
	.st27{fill:#FFFFFF;}
</style>
<g id="RAW" class="st0">
	<g id="Слой_9" class="st1">
		<polygon class="st2" points="56,12 8,12 8,22 62.9,37.1 78,92 88,92 88,44 88,12 		"/>
	</g>
	<polygon class="st3" points="88,24 76,12 16,12 16,24.2 88,44 	"/>
	<polygon class="st4" points="76,12 56,12 75.8,84 88,84 88,24 	"/>
	<polygon class="st5" points="56,12 62.9,37.1 48,12 	"/>
	<polygon class="st6" points="82,88 88,84 75.8,84 	"/>
	<polygon class="st6" points="12,18 16,24.2 16,12 	"/>
</g>
<g id="gradient" class="st0">
	<linearGradient id="SVGID_1_" gradientUnits="userSpaceOnUse" x1="88" y1="50" x2="12" y2="50">
		<stop  offset="0" style="stop-color:#FDEA39"/>
		<stop  offset="0.6" style="stop-color:#F0592B"/>
	</linearGradient>
	<rect x="12" y="12" class="st7" width="76" height="76"/>
</g>
<g id="space" class="st0">
	<rect x="0" class="st8" width="100" height="100"/>
</g>
<g id="color" class="st0">
	
		<linearGradient id="gradient_x5F_on_x5F_shape_4_" gradientUnits="userSpaceOnUse" x1="88" y1="49.4124" x2="46.0048" y2="49.4124">
		<stop  offset="0" style="stop-color:#FDEA39"/>
		<stop  offset="1" style="stop-color:#F0592B"/>
	</linearGradient>
	<path id="gradient_x5F_on_x5F_shape" class="st9" d="M79.51,15.51c-2.25-2.25-5.3-3.51-8.49-3.51H56H46l16.9,25.1l12.09,43.96
		c0.52,1.9,1.72,3.53,3.38,4.6l0.33,0.21c2.01,1.3,4.59,1.28,6.58-0.05l0.05-0.04C87,84.67,88,82.8,88,80.79V56V44V28.97
		c0-3.18-1.26-6.23-3.51-8.49L79.51,15.51z"/>
	<g id="gradient_x5F_mask">
		<defs>
			<path id="SVGID_2_" d="M79.51,15.51c-2.25-2.25-5.3-3.51-8.49-3.51H56H46l16.9,25.1L75.4,82.53c0.26,0.95,0.86,1.77,1.69,2.3
				l2.71,1.75c1.34,0.86,3.06,0.85,4.39-0.03l2.04-1.36C87.33,84.45,88,83.2,88,81.86V56V44V28.97c0-3.18-1.26-6.23-3.51-8.49
				L79.51,15.51z"/>
		</defs>
		<clipPath id="SVGID_3_" class="st1">
			<use xlink:href="#SVGID_2_"  style="overflow:visible;"/>
		</clipPath>
		<linearGradient id="SVGID_4_" gradientUnits="userSpaceOnUse" x1="88" y1="50" x2="12" y2="50">
			<stop  offset="0" style="stop-color:#FDEA39"/>
			<stop  offset="0.6" style="stop-color:#F0592B"/>
		</linearGradient>
		<rect x="12" y="12" class="st10" width="76" height="76"/>
	</g>
	<path id="shape" class="st11" d="M46.85,12H19.21c-2.01,0-3.88,1-4.99,2.67l-0.04,0.05c-1.33,1.99-1.34,4.57-0.05,6.58l0.21,0.33
		c1.07,1.65,2.7,2.86,4.6,3.38L62.9,37.1l-4.48-16.28C56.99,15.61,52.26,12,46.85,12z"/>
</g>
<g id="square_1_" class="st0">
	<g id="gradient_x5F_on_x5F_shape_1_">
		<g class="st1">
			<linearGradient id="SVGID_5_" gradientUnits="userSpaceOnUse" x1="88" y1="50" x2="46.0048" y2="50">
				<stop  offset="0" style="stop-color:#FDEA39"/>
				<stop  offset="1" style="stop-color:#F0592B"/>
			</linearGradient>
			<polygon class="st12" points="88,84 88,56 88,44 88,12 56,12 46,12 62.9,37.1 76.9,88 88,88 			"/>
		</g>
	</g>
	<g id="gradient_x5F_mask_1_" class="st1">
		<defs>
			<polygon id="SVGID_6_" points="88,84 88,56 88,44 88,12 56,12 46,12 62.9,37.1 76.9,88 88,88 			"/>
		</defs>
		<clipPath id="SVGID_7_">
			<use xlink:href="#SVGID_6_"  style="overflow:visible;"/>
		</clipPath>
		<linearGradient id="SVGID_8_" gradientUnits="userSpaceOnUse" x1="88" y1="50" x2="12" y2="50">
			<stop  offset="0" style="stop-color:#FDEA39"/>
			<stop  offset="0.6" style="stop-color:#F0592B"/>
		</linearGradient>
		<rect x="12" y="12" class="st13" width="76" height="76"/>
	</g>
	<g id="shape_1_" class="st1">
		<path class="st2" d="M62.9,37.1l-4.48-16.28C56.99,15.61,52.26,12,46.85,12H16h-4v11.1L62.9,37.1z"/>
	</g>
</g>
<g id="icon" class="st0">
	<g id="icon_x5F_mask" class="st1">
		<defs>
			<path id="mask" d="M68,88H32c-11.05,0-20-8.95-20-20V32c0-11.05,8.95-20,20-20h36c11.05,0,20,8.95,20,20v36
				C88,79.05,79.05,88,68,88z"/>
		</defs>
		<clipPath id="mask_2_">
			<use xlink:href="#mask"  style="overflow:visible;"/>
		</clipPath>
		<linearGradient id="bg_2_" gradientUnits="userSpaceOnUse" x1="82.1421" y1="17.8579" x2="17.8579" y2="82.1421">
			<stop  offset="0.5" style="stop-color:#FFFFFF"/>
			<stop  offset="1" style="stop-color:#EEEEEE"/>
		</linearGradient>
		<path id="bg" class="st14" d="M68,88H32c-11.05,0-20-8.95-20-20V32c0-11.05,8.95-20,20-20h36c11.05,0,20,8.95,20,20v36
			C88,79.05,79.05,88,68,88z"/>
		<linearGradient id="gradient_x5F_on_x5F_shape_5_" gradientUnits="userSpaceOnUse" x1="88" y1="50" x2="46.0048" y2="50">
			<stop  offset="0" style="stop-color:#FDEA39"/>
			<stop  offset="1" style="stop-color:#F0592B"/>
		</linearGradient>
		<polygon id="gradient_x5F_on_x5F_shape_2_" class="st15" points="88,12 56,12 46,12 62.9,37.1 76.9,88 82,88 88,88 88,56 88,44 
			88,12 		"/>
		<g id="gradient_x5F_mask_2_" class="st16">
			<defs>
				<polygon id="SVGID_9_" points="88,84 88,56 88,44 88,12 56,12 46,12 62.9,37.1 76.9,88 88,88 				"/>
			</defs>
			<clipPath id="SVGID_10_">
				<use xlink:href="#SVGID_9_"  style="overflow:visible;"/>
			</clipPath>
			<linearGradient id="SVGID_11_" gradientUnits="userSpaceOnUse" x1="88" y1="50" x2="12" y2="50">
				<stop  offset="0" style="stop-color:#FDEA39"/>
				<stop  offset="0.6" style="stop-color:#F0592B"/>
			</linearGradient>
			<rect x="12" y="12" class="st17" width="76" height="76"/>
		</g>
		<path id="shape_2_" class="st18" d="M46.85,12H12v6v5.1l50.9,14l-4.48-16.28C56.99,15.61,52.26,12,46.85,12z"/>
	</g>
</g>
<g id="round" class="st0">
	<g id="round_x5F_mask" class="st1">
		<defs>
			<path id="mask_1_" d="M50,88L50,88c-20.99,0-38-17.01-38-38v0c0-20.99,17.01-38,38-38h0c20.99,0,38,17.01,38,38v0
				C88,70.99,70.99,88,50,88z"/>
		</defs>
		<clipPath id="mask_3_">
			<use xlink:href="#mask_1_"  style="overflow:visible;"/>
		</clipPath>
		<linearGradient id="bg_3_" gradientUnits="userSpaceOnUse" x1="76.8701" y1="23.1299" x2="23.1299" y2="76.8701">
			<stop  offset="0.5" style="stop-color:#FFFFFF"/>
			<stop  offset="1" style="stop-color:#EEEEEE"/>
		</linearGradient>
		<path id="bg_1_" class="st19" d="M50,88L50,88c-20.99,0-38-17.01-38-38v0c0-20.99,17.01-38,38-38h0c20.99,0,38,17.01,38,38v0
			C88,70.99,70.99,88,50,88z"/>
		<linearGradient id="gradient_x5F_on_x5F_shape_6_" gradientUnits="userSpaceOnUse" x1="88" y1="50" x2="46.0048" y2="50">
			<stop  offset="0" style="stop-color:#FDEA39"/>
			<stop  offset="1" style="stop-color:#F0592B"/>
		</linearGradient>
		<polygon id="gradient_x5F_on_x5F_shape_3_" class="st20" points="88,12 56,12 46,12 62.9,37.1 76.9,88 82,88 88,88 88,56 88,44 
			88,12 		"/>
		<g id="gradient_x5F_mask_3_" class="st21">
			<defs>
				<polygon id="SVGID_12_" points="88,84 88,56 88,44 88,12 56,12 46,12 62.9,37.1 76.9,88 88,88 				"/>
			</defs>
			<clipPath id="SVGID_13_">
				<use xlink:href="#SVGID_12_"  style="overflow:visible;"/>
			</clipPath>
			<linearGradient id="SVGID_14_" gradientUnits="userSpaceOnUse" x1="88" y1="50" x2="12" y2="50">
				<stop  offset="0" style="stop-color:#FDEA39"/>
				<stop  offset="0.6" style="stop-color:#F0592B"/>
			</linearGradient>
			<rect x="12" y="12" class="st22" width="76" height="76"/>
		</g>
		<path id="shape_3_" class="st23" d="M46.85,12H12v6v5.1l50.9,14l-4.48-16.28C56.99,15.61,52.26,12,46.85,12z"/>
	</g>
</g>
<g id="mono_x5F_black">
	<path id="shape_x5F_white" class="st24" d="M68,12H19.21c-2.01,0-3.88,1-4.99,2.67l-0.04,0.05c-1.33,1.99-1.34,4.57-0.05,6.58
		l0.21,0.33c1.07,1.65,2.7,2.86,4.6,3.38L68,38.5V12z"/>
	<g id="shape_x5F_black">
		<path class="st25" d="M81.95,87.33c-1.25,0-2.47-0.36-3.52-1.04l-0.33-0.21c-1.76-1.14-3.03-2.87-3.59-4.89L57.94,20.95
			c-1.25-4.55-5.25-7.93-9.95-8.39l-0.25-0.02l-0.58-0.97L48,11.5h23.03c3.34,0,6.48,1.3,8.84,3.66l4.97,4.97
			c2.36,2.36,3.66,5.5,3.66,8.84v51.82c0,2.18-1.08,4.2-2.9,5.41C84.48,86.95,83.23,87.33,81.95,87.33L81.95,87.33z"/>
		<path class="st25" d="M71.03,12c3.18,0,6.23,1.26,8.49,3.51l4.97,4.97c2.25,2.25,3.51,5.3,3.51,8.49V44v12v24.79
			c0,2.01-1,3.88-2.67,4.99l-0.05,0.04c-1.01,0.67-2.17,1.01-3.33,1.01c-1.13,0-2.26-0.32-3.25-0.96l-0.33-0.21
			c-1.65-1.07-2.85-2.7-3.38-4.6L62.9,37.1l-4.48-16.28c-1.33-4.82-5.49-8.27-10.39-8.75L48,12h8H71.03 M71.03,11H56h-8h-1.76
			l0.9,1.51l0.04,0.06l0.26,0.44l0.5,0.05c4.5,0.44,8.32,3.67,9.52,8.02l4.48,16.28l12.09,43.96c0.59,2.14,1.94,3.97,3.8,5.18
			l0.33,0.21c1.13,0.73,2.45,1.12,3.79,1.12c1.39,0,2.73-0.41,3.88-1.17l0.05-0.04c1.95-1.3,3.12-3.48,3.12-5.83V56V44V28.97
			c0-3.47-1.35-6.74-3.81-9.19l-4.97-4.97C77.77,12.35,74.5,11,71.03,11L71.03,11z"/>
	</g>
</g>
<g id="mono_x5F_white" class="st0">
	<path id="shape_x5F_black_1_" class="st26" d="M68,12H19.21c-2.01,0-3.88,1-4.99,2.67l-0.04,0.05c-1.33,1.99-1.34,4.57-0.05,6.58
		l0.21,0.33c1.07,1.65,2.7,2.86,4.6,3.38L68,38.5V12z"/>
	<g id="shape_x5F_white_1_" class="st1">
		<path class="st27" d="M81.95,87.33c-1.25,0-2.47-0.36-3.52-1.04l-0.33-0.21c-1.76-1.14-3.03-2.87-3.59-4.89L57.94,20.95
			c-1.25-4.55-5.25-7.93-9.95-8.39l-0.25-0.02l-0.58-0.97L48,11.5h23.03c3.34,0,6.48,1.3,8.84,3.66l4.97,4.97
			c2.36,2.36,3.66,5.5,3.66,8.84v51.82c0,2.18-1.08,4.2-2.9,5.41C84.48,86.95,83.23,87.33,81.95,87.33L81.95,87.33z"/>
		<path class="st27" d="M71.03,12c3.18,0,6.23,1.26,8.49,3.51l4.97,4.97c2.25,2.25,3.51,5.3,3.51,8.49V44v12v24.79
			c0,2.01-1,3.88-2.67,4.99l-0.05,0.04c-1.01,0.67-2.17,1.01-3.33,1.01c-1.13,0-2.26-0.32-3.25-0.96l-0.33-0.21
			c-1.65-1.07-2.85-2.7-3.38-4.6L62.9,37.1l-4.48-16.28c-1.33-4.82-5.49-8.27-10.39-8.75L48,12h8H71.03 M71.03,11H56h-8h-1.76
			l0.9,1.51l0.04,0.06l0.26,0.44l0.5,0.05c4.5,0.44,8.32,3.67,9.52,8.02l4.48,16.28l12.09,43.96c0.59,2.14,1.94,3.97,3.8,5.18
			l0.33,0.21c1.13,0.73,2.45,1.12,3.79,1.12c1.39,0,2.73-0.41,3.88-1.17l0.05-0.04c1.95-1.3,3.12-3.48,3.12-5.83V56V44V28.97
			c0-3.47-1.35-6.74-3.81-9.19l-4.97-4.97C77.77,12.35,74.5,11,71.03,11L71.03,11z"/>
	</g>
</g>
<g id="GRID" class="st0">
</g>
</svg>
