<?xml version="1.0" encoding="utf-8"?>
<!-- Generator: Adobe Illustrator 23.0.5, SVG Export Plug-In . SVG Version: 6.00 Build 0)  -->
<svg version="1.1" id="color" xmlns="http://www.w3.org/2000/svg" xmlns:xlink="http://www.w3.org/1999/xlink" x="0px" y="0px"
	 viewBox="0 0 100 100" style="enable-background:new 0 0 100 100;" xml:space="preserve">
<style type="text/css">
	.st0{fill:#FF0066;}
	.st1{fill:#201600;}
</style>
<path class="st0" d="M56,12H46l16.9,25.1l12.09,43.96c0.52,1.9,1.72,3.53,3.38,4.6l0.33,0.21c2.01,1.3,4.59,1.28,6.58-0.05
	l0.05-0.04C87,84.67,88,82.8,88,80.79V56V44V28.97v0C88,19.6,80.4,12,71.03,12H56z"/>
<path id="shape" class="st1" d="M46.85,12H19.21c-2.01,0-3.88,1-4.99,2.67l-0.04,0.05c-1.33,1.99-1.34,4.57-0.05,6.58l0.21,0.33
	c1.07,1.65,2.7,2.86,4.6,3.38L62.9,37.1l-4.48-16.28C56.99,15.61,52.26,12,46.85,12z"/>
</svg>
