<?xml version="1.0" encoding="utf-8"?>
<!-- Generator: Adobe Illustrator 23.0.5, SVG Export Plug-In . SVG Version: 6.00 Build 0)  -->
<svg version="1.1" id="Слой_1" xmlns="http://www.w3.org/2000/svg" xmlns:xlink="http://www.w3.org/1999/xlink" x="0px" y="0px"
	 viewBox="0 0 512 512" style="enable-background:new 0 0 512 512;" xml:space="preserve">
<style type="text/css">
	.st0{fill:#FFFFFF;stroke:#FFFFFF;stroke-miterlimit:10;}
</style>
<path class="st0" d="M454.36,412.91l-3.96-24.7c1.17-0.05,2.34-0.09,3.52-0.09c7.61,0,15.12,1.14,22.32,3.41
	c4.36,1.36,8.99-1.06,10.36-5.4c1.36-4.36-1.05-8.98-5.4-10.36c-8.81-2.77-17.98-4.17-27.27-4.17c-2.07,0-4.12,0.09-6.15,0.23
	L390.97,17.11c-1.33-8.31-7.6-14.76-15.52-16.57C374.14,0.2,372.77,0,371.36,0h-0.45h-13.62h-27.21c-9.12,0-16.52,7.39-16.52,16.52
	c0,9.12,7.39,16.52,16.52,16.52h41.29c1.77,0,3.47-0.29,5.07-0.8l55,342.22c-31.92,8.18-57.1,33.33-65.37,65.23
	c-0.94,3.62-4.05,6.25-7.79,6.25h-219.8c-7.68-37.64-41.04-66.06-80.92-66.06c-13.15,0-26.25,3.18-37.87,9.18
	c-4.05,2.09-5.64,7.08-3.55,11.13c2.09,4.05,7.07,5.61,11.13,3.55c9.43-4.87,19.61-7.34,30.29-7.34c30.73,0,56.62,21.09,63.98,49.55
	h-17.26c-6.8-19.24-25.15-33.03-46.72-33.03C30.18,412.9,8,435.09,8,462.45C8,489.82,30.18,512,57.55,512
	c21.57,0,39.92-13.79,46.72-33.03H363.1c9.29,0,16.46-7.64,16.52-16.93c0.19-33.92,23.21-62.52,54.45-71.2l3.97,24.68
	c-19.56,6.63-33.64,25.13-33.64,46.93c0,27.36,22.18,49.55,49.55,49.55c27.36,0,49.55-22.18,49.55-49.55
	C503.48,435.23,481.53,413.14,454.36,412.91z"/>
</svg>
