<?xml version="1.0" encoding="utf-8"?>
<!-- Generator: Adobe Illustrator 23.0.5, SVG Export Plug-In . SVG Version: 6.00 Build 0)  -->
<svg version="1.1" id="fb9fe00d-fe37-492c-8223-5a450097a96f"
	 xmlns="http://www.w3.org/2000/svg" xmlns:xlink="http://www.w3.org/1999/xlink" x="0px" y="0px" viewBox="0 0 685.99 735.29"
	 style="enable-background:new 0 0 685.99 735.29;" xml:space="preserve">
<style type="text/css">
	.st0{opacity:0.1;fill:#FFC107;enable-background:new    ;}
	.st1{opacity:0.5;}
	.st2{fill:#DCE0ED;}
	.st3{opacity:0.1;enable-background:new    ;}
	.st4{fill:#F0F0F4;}
	.st5{fill:#FFC107;}
	.st6{fill:#33323D;}
	.st7{fill:#4C4981;}
	.st8{fill:#FBBEBE;}
	.st9{fill:#504F60;}
	.st10{opacity:0.1;}
</style>
<title>scooter</title>
<path class="st0" d="M595.88,197.93c50.92-1.94,91.26-44.92,90.09-95.86c-1.2-50.89-42.8-91.52-93.7-91.52h-1.56
	c-28.42-14.75-62.39-13.99-90.12,2c-14.96-8.66-32.03-12.99-49.31-12.51c-50.17,1.28-90.75,42.53-91.26,92.72
	c-0.26,20.78,6.43,41.06,19,57.61c-8.43,14.26-12.92,30.5-13,47.07c-0.29,50.5,40.11,92.57,90.58,94.22
	c12.21,0.42,24.38-1.55,35.83-5.81c18.44,23.18,39.53,51.88,35.35,62.13c-5.23,12.82-2.12,142.94-0.64,195.15
	c0.03,0.9,0.11,1.8,0.24,2.69c-34.56,1.89-59.57,7.37-59.57,13.84c0,8,38.5,14.54,86,14.54s86-6.51,86-14.54c0-3-5.53-5.86-15-8.2
	c2.51-1.5,4.85-3.26,7-5.24c1.91-1.77,3.71-3.87,4.26-6.42s-0.54-5.61-3-6.54c-2.73-1.05-5.65,0.85-7.86,2.76s-4.75,4.09-7.65,3.69
	c3.03-2.75,4.4-6.89,3.6-10.9c-0.13-0.81-0.47-1.58-1-2.21c-1.52-1.62-4.27-0.93-6.08,0.35c-5.78,4.06-7.39,11.91-7.42,19
	c-0.58-2.55-0.09-5.2-0.11-7.81s-0.73-5.51-2.93-6.92c-1.38-0.72-2.93-1.06-4.48-1c-2.59-0.09-5.48,0.17-7.26,2.07
	c-2.2,2.35-1.63,6.31,0.29,8.91s4.83,4.22,7.51,6l0.41,0.27c-8.71-0.94-18.48-1.63-29-2c0.11-0.83,0.18-1.67,0.19-2.51
	c0.92-50.57,3.44-172.93,6.75-187.47c4.18-18.38,0-130.29,0-130.29s-0.44-12.43,0.16-28.18
	C584.05,197.87,589.97,198.17,595.88,197.93z M517.73,271.65c2.59-2.04,5.07-4.21,7.42-6.51l2.68,17.71L517.73,271.65z"/>
<path class="st0" d="M452.56,376.89c18.97-0.79,33.7-16.81,32.91-35.77c-0.77-18.37-15.85-32.88-34.23-32.94h-0.57
	c-10.41-5.39-22.84-5.11-33,0.73c-16.38-9.58-37.44-4.07-47.02,12.31c-7.04,12.04-6.11,27.14,2.36,38.23
	c-9.64,16.36-4.2,37.43,12.15,47.08c8.92,5.26,19.73,6.22,29.44,2.61c6.77,8.5,14.5,19,13,22.78c-1.92,4.71-0.78,52.43-0.24,71.57
	c0.01,0.33,0.04,0.67,0.09,1c-12.68,0.69-21.85,2.7-21.85,5.07c0,3,14.12,5.34,31.54,5.34s31.54-2.39,31.54-5.34
	c0-1.11-2-2.15-5.48-3c0.92-0.56,1.78-1.2,2.57-1.92c0.75-0.61,1.29-1.43,1.56-2.36c0.25-0.96-0.2-1.96-1.09-2.4
	c-1-0.38-2.07,0.31-2.88,1s-1.74,1.51-2.81,1.36c1.12-1.01,1.62-2.53,1.32-4c-0.05-0.3-0.17-0.58-0.36-0.81
	c-0.56-0.59-1.57-0.34-2.23,0.13c-2.12,1.49-2.71,4.37-2.72,7c-0.11-0.95-0.11-1.92,0-2.87c0.07-0.97-0.33-1.92-1.08-2.54
	c-0.5-0.27-1.07-0.4-1.64-0.38c-0.95-0.14-1.92,0.14-2.66,0.76c-0.72,0.98-0.68,2.33,0.1,3.27c0.79,0.88,1.72,1.63,2.76,2.2
	l0.15,0.1c-3.2-0.34-6.78-0.6-10.62-0.73c0-0.3,0.06-0.61,0.07-0.92c0.33-18.54,1.26-63.42,2.47-68.75c1.54-6.74,0-47.78,0-47.78
	s-0.16-4.56,0.06-10.34C448.29,376.88,450.43,376.99,452.56,376.89z M423.9,403.94c0.95-0.75,1.86-1.55,2.72-2.39l1,6.49
	L423.9,403.94z"/>
<ellipse class="st0" cx="156.99" cy="715.85" rx="156.99" ry="19.44"/>
<g class="st1">
	
		<rect x="97.07" y="235.89" transform="matrix(0.9998 -0.0188 0.0188 0.9998 -4.5544 1.9625)" class="st2" width="9.52" height="13.41"/>
	<path class="st3" d="M106.47,235.78l0.08,4.36c-0.67,0.21-1.36,0.32-2.06,0.32l-7.45,0.08l-0.09-4.58L106.47,235.78z"/>
	<path class="st2" d="M92.29,201.89l9-0.17c4.39-0.08,8.39,2.5,10.11,6.54c2.75,6.42,5.18,16.68-0.48,27.06
		c-1.29,2.36-3.75,3.84-6.44,3.87l-11.47,0.12L92.29,201.89z"/>
	<ellipse transform="matrix(0.9998 -0.02 0.02 0.9998 -4.381 1.9054)" class="st4" cx="93.09" cy="220.03" rx="9.62" ry="18.72"/>
	<path class="st3" d="M106.71,248.5v0.68l-9.51,0.18l-0.08-4.11C100.44,245.93,103.66,247.02,106.71,248.5z"/>
	<polygon class="st2" points="156.99,382.51 142.62,383 111.89,329.57 106.76,320.64 110.13,297.74 113.16,303.21 	"/>
	<polygon class="st3" points="113.16,303.21 111.89,329.57 106.76,320.64 110.13,297.74 	"/>
	<path class="st2" d="M181.92,459.46c-1,12.07-9.64,10.33-9.64,10.33l-1.6-0.11l-15.87-1.15l0.28-18.72
		c5.37-0.41,10.77-0.19,16.09,0.66C177.15,451.59,182.38,454.09,181.92,459.46z"/>
	<path class="st3" d="M181.92,459.46c-1,12.07-9.64,10.33-9.64,10.33l-1.6-0.11c-1.77-2.67-2.71-5.8-2.7-9
		c-0.08-4.19,1.19-7.93,3.2-10.2C177.15,451.59,182.38,454.09,181.92,459.46z"/>
	<path class="st2" d="M95.01,207.4c0,0-3.81,0.68-1.73,5.69c1.1,2.43,1.92,4.98,2.44,7.6c0,0,3.86,1.92,3.59-4.65
		S95.01,207.4,95.01,207.4z"/>
</g>
<path class="st5" d="M102.77,664.74c-1.77-0.17-3.36-1.13-4.33-2.62c-4.33-6.55-15.82-25.24-7.75-27.82c1.28-0.42,2.59-0.75,3.91-1
	c14.66-2.59,29.54,3.23,38.56,15.07c1.18,1.52,2.24,3.13,3.16,4.82c1.3,2.44,0.38,5.47-2.06,6.76c-0.3,0.16-0.62,0.29-0.94,0.39
	C126.2,662.44,113.01,665.65,102.77,664.74z"/>
<polygon class="st6" points="94.8,663.71 138.82,655.75 204.74,655.75 195.32,670.27 103.77,670.27 "/>
<path class="st7" d="M128.25,196.65c4.94-2.51,11.38,0,17.26,0.59c7.62,0.74,15.17-2,22.84-1.79c6.98,0.21,13.65,2.96,18.74,7.74
	c4.25,4.14,6.72,9.78,6.9,15.71c0.19,3.53-0.65,7.04-2.41,10.1c-3.66,6.09-12,10.22-20.65,10.91c-8.52,0.61-17-1.61-24.12-6.33
	c-5.68-3.86-9.64-9-14.45-13.46c-3.42-3.21-12.42-7.26-12.49-11.43C119.82,205.8,125.13,198.21,128.25,196.65z"/>
<path class="st3" d="M128.25,196.65c4.94-2.51,11.38,0,17.26,0.59c7.62,0.74,15.17-2,22.84-1.79c6.98,0.21,13.65,2.96,18.74,7.74
	c4.25,4.14,6.72,9.78,6.9,15.71c0.19,3.53-0.65,7.04-2.41,10.1c-3.66,6.09-12,10.22-20.65,10.91c-8.52,0.61-17-1.61-24.12-6.33
	c-5.68-3.86-9.64-9-14.45-13.46c-3.42-3.21-12.42-7.26-12.49-11.43C119.82,205.8,125.13,198.21,128.25,196.65z"/>
<path class="st7" d="M146.57,625.91l-0.68,14c6.61-0.48,13.24-0.6,19.87-0.38c0.54-2.1,0-4.31-0.44-6.45
	c-0.81-4.12-1.08-8.33-0.81-12.52c0.08-1.15-12.3-2.33-13.55-2.39c-1.52-0.06-3.1-0.27-3.83,1.32
	C146.32,621.23,146.66,624.01,146.57,625.91z"/>
<path class="st7" d="M130.26,630.42l-0.67,14c6.61-0.48,13.24-0.6,19.86-0.38c0.54-2.1,0-4.31-0.44-6.45
	c-0.8-4.12-1.07-8.33-0.8-12.52c0.07-1.16-12.3-2.33-13.55-2.39c-1.53-0.06-3.1-0.27-3.83,1.32
	C130.01,625.74,130.35,628.52,130.26,630.42z"/>
<path class="st7" d="M161.12,625.43c-0.95,0.35-1.81,0.89-2.54,1.58l-5,4.18c-1.68,1.41-3.89,2.9-5.9,2
	c-0.84-0.53-1.63-1.14-2.34-1.84c-0.74-0.7-1.86-0.83-2.74-0.31c-0.45,0.47-0.72,1.08-0.77,1.73c-1.63,8.88-2.36,17.9-2.17,26.92
	c1.56,0.61,3.2,0.98,4.87,1.08c0.19,0.03,0.38-0.01,0.54-0.1c0.29-0.24,0.13-0.7,0.09-1.07c-0.14-1.29,1.66-2.05,2.83-1.49
	c1.09,0.7,1.9,1.76,2.3,3c0.17,0.5,0.47,0.94,0.86,1.29c0.36,0.23,0.77,0.38,1.19,0.43c2.27,0.39,4.57,0.61,6.88,0.63
	c10.67,0.37,21.33,0.37,32,0c1.11,0.02,2.22-0.14,3.28-0.46c2.04-0.83,3.49-2.67,3.82-4.84c0.29-2.16-0.26-4.35-1.52-6.13
	c-0.91-1.33-2.11-2.43-3.51-3.22c-1.06-0.56-2.17-1.03-3.31-1.4l-5-1.8c-3.65-1.3-7.43-2.69-10.15-5.44
	c-1.51-1.67-2.79-3.52-3.82-5.52C169.12,631.44,166.17,623.95,161.12,625.43z"/>
<path class="st3" d="M161.12,625.43c-0.95,0.35-1.81,0.89-2.54,1.58l-5,4.18c-1.68,1.41-3.89,2.9-5.9,2
	c-0.84-0.53-1.63-1.14-2.34-1.84c-0.74-0.7-1.86-0.83-2.74-0.31c-0.45,0.47-0.72,1.08-0.77,1.73c-1.63,8.88-2.36,17.9-2.17,26.92
	c1.56,0.61,3.2,0.98,4.87,1.08c0.19,0.03,0.38-0.01,0.54-0.1c0.29-0.24,0.13-0.7,0.09-1.07c-0.14-1.29,1.66-2.05,2.83-1.49
	c1.09,0.7,1.9,1.76,2.3,3c0.17,0.5,0.47,0.94,0.86,1.29c0.36,0.23,0.77,0.38,1.19,0.43c2.27,0.39,4.57,0.61,6.88,0.63
	c10.67,0.37,21.33,0.37,32,0c1.11,0.02,2.22-0.14,3.28-0.46c2.04-0.83,3.49-2.67,3.82-4.84c0.29-2.16-0.26-4.35-1.52-6.13
	c-0.91-1.33-2.11-2.43-3.51-3.22c-1.06-0.56-2.17-1.03-3.31-1.4l-5-1.8c-3.65-1.3-7.43-2.69-10.15-5.44
	c-1.51-1.67-2.79-3.52-3.82-5.52C169.12,631.44,166.17,623.95,161.12,625.43z"/>
<path class="st6" d="M208.89,399.29c0,2.85-0.06,5.71-0.18,8.57c-0.51,17.5-2.07,34.96-4.7,52.27c-0.6,3.89-1.25,7.77-2.2,11.58
	c-1.37,5.45-3.39,10.76-4,16.36c-0.83,8,1.31,16.25-0.5,24.09c-0.93,4-2.87,7.73-4,11.69c-0.67,2.36-1.19,4.76-1.58,7.19
	c-1.01,5.6-2.01,11.19-3,16.77c-0.11,0.57-0.21,1.14-0.31,1.71c-1.25,6.59-3.46,12.95-6.56,18.9c-1.73,3.71-3.07,7.59-4,11.58
	c-1.78,6.62-3.56,13.25-5.34,19.88c-2.41,8.95-4.83,18.3-3,27.39c-3.65-0.23-7.28-0.77-10.84-1.62c-4.55-1.1-8.95-2.72-13.13-4.82
	c-0.94-15.43-0.25-30.9,0.43-46.35c0.44-9.79,0.88-19.6,2.53-29.26c1.79-10.53,4.24-20.58,6.38-31.05
	c3.21-15.67,6.44-31.47,6.13-47.46c-0.38-20.71,0.16-41.8,9.19-60.43c0.88-2.22,2.32-4.17,4.18-5.66c1.83-1.1,3.88-1.79,6-2
	c7.19-1.22,14.48-1.74,21.77-1.56C204.55,397.26,206.85,398.03,208.89,399.29z"/>
<path class="st3" d="M208.89,399.29c0,2.85-21.64,0.67-21.74,3.52c-26.58-3.08-14.13,3.1-15.3,3.93c-2.52,1.77,9.58-1.79,7.06,0
	c-2.19,1.55-5.59,7.57-7.85,9c-5.27,3.45,12.3,14.07,8.39,19c-3.55,4.46-4.38,10.54-3.91,16.2s2.12,11.17,3,16.8
	c1.64,10.67,0.5,21.58-3.31,31.68c-2.28,6.05-5.48,11.69-8.39,17.46c-3.18,6.35-9.06,12.66-8.36,19.74c1.61,15.94-1.17,32-1.92,48
	c-0.29,6.12-0.28,12.36,1.42,18.25c0.64,2.25,1.53,4.43,2,6.72c1.19,5.31,0.25,10.81-1.32,16.08c-4.55-1.1-8.95-2.72-13.13-4.82
	c-0.94-15.43-0.25-30.9,0.43-46.35c0.44-9.79,0.88-19.6,2.53-29.26c1.79-10.53,4.24-20.58,6.38-31.05
	c3.21-15.67,6.44-31.47,6.13-47.46c-0.38-20.71,0.16-41.8,9.19-60.43c0.88-2.22,2.32-4.17,4.18-5.66c1.83-1.1,3.88-1.79,6-2
	c7.19-1.22,14.48-1.74,21.77-1.56C204.53,397.27,206.85,398.03,208.89,399.29z"/>
<path class="st6" d="M210.48,385.06c0,5.08,2.84,16.32-1.05,19.58c-2.59,2.19-5.79,3.52-8.57,5.47c-2.52,1.77-4.67,4-7.18,5.83
	c-2.19,1.55-4.63,2.71-6.88,4.18c-5.28,3.45-7.59,9.72-11.51,14.64c-3.54,4.46-4.37,10.54-3.9,16.2s2.12,11.17,3,16.8
	c1.63,10.67,0.49,21.58-3.31,31.68c-2.29,6.05-5.48,11.69-8.39,17.46c-3.18,6.35-9.07,12.66-8.36,19.74c1.61,15.94-1.18,32-1.92,48
	c-0.29,6.12-0.28,12.36,1.42,18.25c0.64,2.25,1.52,4.43,2,6.72c1.39,6.27-0.17,12.82-2.22,18.91c-7.06-1.24-14.2-2.47-21.34-1.94
	c-6.27,0.47-12.5,2.28-18.74,1.53c-0.75-16.84,0.79-33.7,2.31-50.49c0.3-3.43,0.62-6.86,0.93-10.3c1.2-13.15,2.39-26.31,3.1-39.51
	c0.18-3.33-1-6.86-0.06-10.07c1.95-6.73,3.91-13.42,5.86-20.09c1.05-3.34,1.83-6.75,2.34-10.21c0.88-7.15-0.58-14.36-2-21.41
	c-2-9.65-4-19.32-6-29c-0.66-3.21-1.33-6.43-2.24-9.6c-0.68-2.1-1.24-4.22-1.69-6.38c-0.36-3.03-0.54-6.09-0.56-9.14
	c-0.3-5.27-1.53-10.43-1.92-15.69c-0.22-2.53-0.14-5.07,0.24-7.58c0.38-2.72,1.35-5.33,2.83-7.64c14.71-5.86,29.97-10.22,45.56-13
	c3.62-0.74,7.3-1.17,11-1.28c4.21,0.1,8.41,0.57,12.54,1.39c5.78,1,11.67,2,17,4.6c2.55,1.2,4.89,2.82,6.9,4.8
	c2.68,2.69,1-3.52,1.86,0.18C211.77,378.97,210.46,383.78,210.48,385.06z"/>
<path class="st7" d="M144.82,629.93c-0.94,0.35-1.81,0.89-2.54,1.59l-5,4.18c-1.69,1.41-3.9,2.9-5.9,2
	c-0.85-0.52-1.63-1.14-2.34-1.84c-0.74-0.7-1.86-0.83-2.74-0.31c-0.45,0.47-0.72,1.08-0.77,1.73c-1.64,8.88-2.37,17.9-2.17,26.92
	c1.55,0.61,3.19,0.98,4.86,1.08c0.19,0.03,0.38-0.01,0.54-0.1c0.3-0.24,0.14-0.7,0.1-1.07c-0.14-1.29,1.66-2.06,2.82-1.49
	c1.09,0.7,1.9,1.76,2.3,3c0.17,0.5,0.47,0.94,0.86,1.29c0.36,0.23,0.77,0.38,1.19,0.43c2.28,0.4,4.58,0.61,6.89,0.63
	c10.66,0.37,21.35,0.38,32,0c1.11,0.02,2.22-0.14,3.29-0.46c2.04-0.83,3.48-2.67,3.81-4.85c0.29-2.16-0.25-4.35-1.52-6.12
	c-0.91-1.33-2.1-2.43-3.5-3.22c-1.06-0.56-2.18-1.03-3.32-1.4l-5-1.8c-3.64-1.31-7.42-2.69-10.15-5.45
	c-1.51-1.67-2.8-3.52-3.83-5.52C152.81,635.95,149.86,628.46,144.82,629.93z"/>
<path class="st8" d="M193.95,222.81c-0.34,1.57-1.06,3.04-2.09,4.28c-2.16,3-4.55,6.17-8.05,7.36c-1.95,0.55-3.98,0.74-6,0.54
	c-17.42-0.87-34.06-7.5-47.32-18.84c6.27-4.14,9.61-11.68,10.43-19.14c0.47-5.8,0.13-11.63-1-17.34c-0.29-1.69-0.59-3.37-0.89-5
	c-0.56-3.06-2-5.43,1.49-6.28c2.71-0.67,6.39-0.2,9.16,0c6.09,0.34,12.31,1.66,17.26,5.39c1.36,0.96,2.49,2.2,3.33,3.63
	c2.13,4,0.4,8.71-0.1,13.3c-0.11,1.04-0.14,2.09-0.07,3.13c0.39,5.09,3.81,9.48,7.74,12.73s8.47,5.75,12.3,9.1
	C192.28,217.47,194.33,220,193.95,222.81z"/>
<path class="st3" d="M170.16,190.65c-2.17,0.51-4.4,0.76-6.63,0.76c-9.28,0-18.03-4.35-23.62-11.76c-0.29-1.69-0.59-3.37-0.89-5
	c-0.56-3.06-2-5.43,1.49-6.28c2.71-0.67,6.39-0.2,9.16,0c6.09,0.34,12.31,1.66,17.26,5.39c1.36,0.96,2.49,2.2,3.33,3.63
	C172.39,181.34,170.66,186.05,170.16,190.65z"/>
<circle class="st8" cx="163.54" cy="160.39" r="29.63"/>
<path class="st3" d="M212.29,380.23c-0.18,0.4-1.59,7.21-1.81,7.6c-9.86-2-16-2.15-26-2c-2.54-0.03-5.07,0.19-7.57,0.63
	c-2.1,0.42-4.15,1.11-6.27,1.44c-11.42,1.76-22.23-7.17-33.76-6.29c-3.85,0.29-7.53,1.67-11.14,3c-4,1.52-8,2.68-11.9,4
	c0.38-2.72,1.35-5.33,2.83-7.64c14.71-5.86,29.97-10.22,45.56-13c3.62-0.74,7.3-1.17,11-1.28c4.21,0.1,8.41,0.57,12.54,1.39
	c5.78,1,11.67,2,17,4.6c2.55,1.2,4.89,2.82,6.9,4.8C212.29,380.23,211.48,376.53,212.29,380.23z"/>
<path class="st7" d="M153.65,220.89c-0.62-3-2.67-5.39-4.69-7.65c-3.81-4.27-7.75-8.42-11.82-12.47c-1.31-1.45-2.87-2.67-4.6-3.59
	c-1.77-0.92-3.88-0.9-5.63,0.05c-1.54,1-2.32,2.76-3.55,4.1c-2.66,2.91-7.29,3.6-9.53,6.85c-0.49,0.91-1.07,1.78-1.71,2.59
	c-0.96,0.82-2.11,1.39-3.35,1.65l-14.12,4.23c-1.66,0.49-3.5,1.13-4.29,2.67c-0.34,0.82-0.55,1.69-0.63,2.57
	c-1.12,6.39-6.75,10.83-11.7,15c-1.72,1.45-3.46,3.05-4.19,5.17s-0.35,4.37,0.1,6.53c1.13,5.49,2.78,11,6,15.61
	c2.12,3.12,4.9,5.8,6.65,9.14c1.48,3.19,2.41,6.6,2.76,10.1c1,6.57,1.52,13.19,2.08,19.81c0.49,5.82-0.21,12.36,1.48,18
	c2.06,6.85,9.41,10.75,12.67,17.12c1.22,2.68,2.06,5.51,2.51,8.42l3.13,15.86c0.57,2.4,0.88,4.86,0.93,7.33
	c-0.08,5.83-3.07,11.51-2.13,17.26c5.29-2,10.39-3.37,15.67-5.36c3.62-1.37,7.3-2.76,11.16-3.05c11.52-0.86,22.33,8.06,33.75,6.3
	c2.12-0.32,4.17-1,6.27-1.43c2.5-0.45,5.03-0.66,7.57-0.65c10.07-0.15,20.12,0.76,30,2.71c2-3.35,2.33-7.46,1.84-11.33
	s-1.74-7.59-2.72-11.37c-2.59-9.92-3.34-20.22-2.22-30.41c0.38-2.56,0.61-5.14,0.69-7.73c0-9.66-5.86-18.71-5.32-28.36
	c0.53-9.49,11.37-14.8,15.85-23.2c1.03-1.67,1.55-3.61,1.49-5.58c-0.22-2-1.48-3.8-2.29-5.68c-2-4.61-1.26-9.92-2.4-14.8
	c-0.41-1.71-1-3.36-1.42-5.08c-1-4.74-0.09-9.78-1.3-14.48c-0.94-3.64-3.12-6.83-5.44-9.78c-3.92-5-8.5-9.67-14.22-12.43
	s-12.76-3.35-18.35-0.33c-0.87,0.43-1.64,1.04-2.26,1.79c-0.58,0.89-1,1.88-1.24,2.92c-1.99,6.67-4.75,13.09-8.21,19.13
	c-2.62,0.4-5.29-0.4-7.26-2.17C157.64,225.15,154.18,223.45,153.65,220.89z"/>
<path class="st6" d="M149.27,169.28c0.55-1.33,0.8-2.76,0.72-4.2c-0.08-1.44,0.31-2.86,1.12-4.06c1.16-1.41,3.24-1.79,4.35-3.22
	c1.27-1.63,0.84-3.94,1.22-6c0.69-3.36,3.57-5.83,7-6c2.48-0.07,4.81,1.11,7.25,1.59c3.17,0.63,6.44,0.06,9.62-0.5
	c2.37-0.42,5-0.95,6.48-2.81c0.9-1.26,1.49-2.71,1.72-4.24c0.53-2.39,0.93-5.05-0.3-7.16s-3.83-3.14-5.2-5.19
	c-1.19-1.79-1.29-4.15-2.5-5.93c-1.88-2.78-5.8-3.27-9.13-2.85s-6.71,1.48-10,0.77c-3.62-0.78-7.2-3.63-10.61-2.2
	c-2.51,1.06-3.56,3.95-5.1,6.2c-1.33,1.94-3.15,3.5-5.27,4.52c-3.26,1.57-7.08,1.79-10.21,3.61c-2.86,1.7-4.84,4.56-5.42,7.84
	c-0.15,0.59-0.13,1.21,0.06,1.79c0.23,0.44,0.49,0.86,0.79,1.26c1.3,2.06,0.46,4.81-0.8,6.89s-2.94,4-3.34,6.45s0.55,4.84,1.78,6.95
	c1.38,2.01,2.62,4.12,3.69,6.31c1.07,2.61,1.27,5.5,2.34,8.1c1.74,4.08,5.42,7.01,9.79,7.78c0.81,0.22,1.68,0.09,2.39-0.36
	c0.47-0.46,0.78-1.05,0.89-1.7c0.29-1.1,0.48-2.23,0.57-3.37c0.17-2.24,0-4.83,1-6.9C145.41,170.06,147.93,171.81,149.27,169.28z"/>
<path class="st3" d="M188.4,132.76c-1.24-2.12-3.83-3.14-5.2-5.19c-1.19-1.79-1.29-4.15-2.5-5.93c-0.9-1.26-2.23-2.16-3.74-2.53l0,0
	c1.21,1.78,1.3,4.14,2.5,5.93c1.36,2.05,3.95,3.06,5.19,5.19s0.83,4.77,0.3,7.16c-0.23,1.53-0.81,2.98-1.71,4.24
	c-1.54,1.85-4.12,2.39-6.49,2.81c-3.18,0.56-6.45,1.12-9.62,0.5c-2.43-0.49-4.76-1.66-7.25-1.59c-3.39,0.18-6.24,2.62-6.94,5.95
	c-0.38,2,0,4.34-1.22,6c-1.12,1.43-3.2,1.81-4.35,3.21c-0.81,1.2-1.2,2.63-1.13,4.07c0.08,1.43-0.16,2.86-0.71,4.19
	c-1.35,2.54-3.87,0.78-5.14,3.37c-1,2.07-0.83,4.66-1,6.9c-0.09,1.14-0.28,2.27-0.57,3.38c-0.11,0.65-0.42,1.24-0.88,1.7
	c-0.71,0.45-1.58,0.58-2.39,0.36c-1.03-0.18-2.04-0.49-3-0.92c1.86,1.79,4.21,2.98,6.75,3.43c0.81,0.22,1.68,0.09,2.39-0.36
	c0.47-0.46,0.78-1.05,0.89-1.7c0.29-1.1,0.48-2.23,0.57-3.37c0.17-2.24,0-4.83,1-6.9c1.28-2.59,3.8-0.84,5.14-3.37
	c0.55-1.33,0.8-2.76,0.72-4.2c-0.08-1.44,0.31-2.86,1.12-4.06c1.16-1.41,3.24-1.79,4.35-3.22c1.27-1.63,0.84-3.94,1.22-6
	c0.71-3.34,3.59-5.78,7-5.94c2.48-0.08,4.81,1.1,7.25,1.58c3.17,0.63,6.44,0.06,9.62-0.5c2.37-0.42,5-0.95,6.48-2.81
	c0.9-1.26,1.49-2.71,1.72-4.24C189.23,137.53,189.63,134.87,188.4,132.76z"/>
<path class="st6" d="M124.43,686.71c0,10.09-7.06,18.27-15.76,18.27s-15.75-8.18-15.75-18.27v-0.14c0.07-10,7.1-18.13,15.75-18.13
	c5.35,0,10.07,3.08,12.91,7.82C123.47,679.42,124.46,683.03,124.43,686.71z"/>
<path class="st6" d="M250.01,694.07c0,19.43-10.05,35.19-22.44,35.19s-22.42-15.76-22.42-35.19c0-11,3.2-20.79,8.22-27.23
	c3.88-5,8.8-8,14.2-8c0.74,0,1.48,0.05,2.22,0.16c4.45,0.69,8.54,3.42,11.83,7.6c0.46,0.57,0.9,1.17,1.3,1.79
	C247.28,674.85,250.01,683.97,250.01,694.07z"/>
<polygon class="st6" points="236.65,653.79 217.04,655.75 214.52,634.79 214.35,633.42 210.79,603.88 210.63,602.51 192.62,453.08 
	192.23,449.9 181.49,360.71 181.23,358.58 180.11,349.26 179.36,343.07 195.06,343.07 195.91,349.48 196.05,350.5 196.44,353.37 
	209.91,454.03 210.27,456.73 229.48,600.24 233.69,631.69 "/>
<path class="st3" d="M227.55,658.89c0.74,0,1.48,0.05,2.22,0.16l-0.56,0.38c-3.64,2.7-5.55,7.15-5,11.65l3.18,30.24
	c0.01,0.16,0.01,0.31,0,0.47c-0.09,2.52-2.21,4.48-4.72,4.39c-2.06-0.08-3.81-1.52-4.28-3.53c-1.31-6.93-3.79-21.09-4.91-33.88
	c-0.06-0.68-0.1-1.32-0.1-1.93C217.23,661.88,222.15,658.89,227.55,658.89z"/>
<path class="st3" d="M233.21,668.44l-0.69-0.2c-0.21-0.55-0.4-1.09-0.61-1.59C232.37,667.22,232.81,667.82,233.21,668.44z"/>
<path class="st9" d="M226.44,650.65c0,0-15.95-1-14.38,16.74c1.13,12.79,3.61,26.94,4.91,33.87c0.46,2.41,2.74,4.03,5.17,3.66l0,0
	c2.42-0.37,4.11-2.57,3.85-5l-3.18-30.24c-0.56-4.5,1.35-8.96,5-11.66c3.77-2.65,8.8-2.81,13,8.82l2.88,0.79
	C243.69,667.63,247.37,648.55,226.44,650.65z"/>
<path class="st3" d="M209.9,454.03c-0.79,0.16-1.59,0.24-2.4,0.24h-5.62c-6.56-0.02-12.06-4.96-12.79-11.48l-8.6-78.27
	c-0.77-7.08,4.35-13.45,11.43-14.22c1.38-0.15,2.77-0.08,4.13,0.22L209.9,454.03z"/>
<path class="st3" d="M210.26,456.73c-0.91,0.21-1.83,0.31-2.76,0.31h-5.62c-3.51,0-6.85-1.45-9.26-4l-0.39-3.19l-10.74-89.18
	c2.5-5.8,8.84-8.91,14.95-7.35l13.46,100.67L210.26,456.73z"/>
<path class="st5" d="M180.49,365.9c2.07,18.83,6.44,58.64,8.6,78.29c0.71,6.52,6.23,11.46,12.79,11.46h5.61
	c5.5,0.07,10.41-3.42,12.15-8.63c0.35-1.08,0.53-2.21,0.53-3.34c0-6-6.44-60.35-8.44-77.11c-0.39-3.35-2.09-6.42-4.74-8.51
	c-2.63-2.09-5.48-3.87-8.51-5.33C189.49,348.55,179.41,356.04,180.49,365.9z"/>
<path class="st3" d="M121.58,676.26l-4.22-0.18c-3.75-0.17-7.48,0.74-10.73,2.63l-13.2,7.6c-0.17,0.09-0.35,0.19-0.51,0.26
	c0.07-10,7.1-18.13,15.75-18.13C114.01,668.44,118.74,671.52,121.58,676.26z"/>
<polygon class="st3" points="233.69,633.07 214.52,634.79 214.35,633.42 210.79,603.88 229.48,601.63 "/>
<path class="st9" d="M214.33,633.42c3.08,45-28.43,44.17-28.43,44.17l-68.53-2.94c-3.76-0.16-7.48,0.75-10.74,2.63l-13.2,7.61
	c-2.44,1.41-5.49,1.18-7.7-0.57l0,0c-2.92-2.32-3.46-6.53-1.23-9.51l5.58-7.44c2.35-3.12,6.1-4.87,10-4.64l71.71,4.09
	c29,0.52,38.84-64.35,38.84-64.35l0,0l18.86-2.27l4.2,31.45l-19.33,1.73L214.33,633.42z"/>
<polygon class="st3" points="195.91,349.48 180.11,349.26 179.36,343.07 195.06,343.07 "/>
<path class="st6" d="M119.65,337.26l132.58,3.32c2.23,0.08,4,1.92,4,4.15l0,0c0,2.29-1.85,4.14-4.14,4.14c-0.02,0-0.04,0-0.06,0
	l-132.57-1.85c-2.26-0.03-4.08-1.88-4.08-4.14v-1.48c0-2.29,1.85-4.14,4.14-4.14C119.56,337.26,119.61,337.26,119.65,337.26z"/>
<path class="st8" d="M128.8,325.47c4.62,0.94,9.73,0.69,13.6,3.4c3.45,2.41,5.12,6.76,5.31,11s-0.92,8.35-2,12.42
	c-0.34,1.28-1,2.83-2.34,2.87s-2-1.32-3.07-2c-2.3-1.4-5.55,0.67-7.87-0.69c-0.66-0.49-1.27-1.04-1.82-1.65
	c-1.86-1.63-4.54-1.95-6.73-0.8c1.1-5.86-2.76-11.51-8.62-12.61c-0.76-0.14-1.53-0.2-2.3-0.18c-1.8,0.06-3.73,0.53-5.3-0.34
	c-2.53-1.38-2.32-5.18-1-7.72c1.92-3.57,3.38-7.07,7.74-7.07C119.4,322.12,124.01,324.5,128.8,325.47z"/>
<path class="st8" d="M219.1,330.44l-0.06,9.72c0,3.66,0,7.5,1.81,10.69c0.94,1.66,2.56,3.16,4.48,3.12c0.72,0,1.42-0.24,2.14-0.21
	c2.09,0.08,4,2.28,5.95,1.55c0.66-0.25,1.19-0.81,1.87-1c1-0.3,2.15,0.26,3.16-0.05s1.61-1.47,2-2.49c2-4.88,4-10.26,2.55-15.32
	c-0.81-2.28-1.96-4.42-3.41-6.35l-6.48-9.59c-0.26-0.46-0.62-0.84-1.06-1.13c-0.45-0.21-0.95-0.3-1.45-0.26
	c-3.22,0-6.23,1.52-9.11,3S219.12,327.65,219.1,330.44z"/>
<path class="st7" d="M225.45,276.4c0.36,2.13,0.97,4.22,1.82,6.21c1.14,2.27,3.16,4.18,3.52,6.7c0.43,3-1.53,6.46,0.34,8.83
	c0.76,1,2,1.47,2.8,2.43c1.92,2.37,0.09,5.86,0.37,8.89c0.25,2.77,2.32,5.07,2.89,7.8s-0.39,6.11,1.35,8.41
	c-1.77-2.79-5.65-3.34-8.91-2.8c-5.41,0.94-10.2,4.04-13.27,8.59c0.49-3.96,0.06-7.99-1.24-11.76c-1.17-3.38-3.05-6.66-2.89-10.23
	c0.1-2.11,0.92-4.18,0.72-6.29c-0.31-3.3-3-5.81-5.32-8.14c-2.82-2.81-5.57-6.15-5.85-10.13c-0.26-3.69,1.69-7.18,3.92-10.14
	c1.7-2.49,3.96-4.55,6.61-6c1.75-0.86,7.05-4.46,8.21-4C223.01,265.71,224.9,274.12,225.45,276.4z"/>
<path class="st7" d="M79.01,246.3c-2.7,0.9-4.97,2.78-6.35,5.27c-1.36,2.47-2.47,5.07-3.33,7.76c-2.11,5.71-4.72,11.23-7.8,16.48
	c-2.34,4-5,7.84-6.26,12.25c-1.13,3.86-1.21,8.06-3.07,11.62c-0.91,1.74-2.21,3.28-2.9,5.12c-0.9,2.38-0.67,5-0.42,7.56l0.65,6.76
	c0.08,2.22,0.58,4.41,1.48,6.44c1.25,2.39,3.53,4,5.73,5.61l10.17,7.21c1.94,1.51,4.09,2.75,6.37,3.67
	c6.62,2.33,13.76-0.88,20.72-1.76c4.8-0.6,9.66-0.09,14.47,0.43c-0.4-3.93-0.27-8.09,1.63-11.55s7.69-8,11.52-7.06
	c-3.8-3.21-10.09-1.42-14.3-4.09c-1.69-1.07-3.13-2.49-4.79-3.62c-5.23-3.54-12.73-4.14-16.1-9.49c-0.22-0.29-0.35-0.64-0.4-1
	c-0.06-0.79,0.61-1.42,1.19-2c4.22-4,6.33-9.77,6.85-15.54s-0.4-11.55-1.45-17.25c-0.85-4.57-1.8-9.2-3.88-13.36
	S83.37,247.85,79.01,246.3z"/>
<g class="st10">
	<path class="st5" d="M355.54,258.47c2.2,6.84-3.8,30.65-3.8,30.65s-18.76-15.84-21-22.68c-2.21-6.84,1.54-14.17,8.38-16.38
		s14.17,1.54,16.38,8.38L355.54,258.47z"/>
	<path class="st5" d="M354.93,171.71c-3.66,6.18-25.45,17.5-25.45,17.5s-0.6-24.55,3-30.73c3.65-6.19,11.63-8.24,17.82-4.59
		c6.19,3.65,8.24,11.63,4.59,17.82H354.93z"/>
	<path class="st5" d="M350.37,480.58c-2.24,3.81-15.66,10.77-15.66,10.77s-0.37-15.11,1.88-18.91c2.25-3.81,7.15-5.07,10.96-2.82
		S352.62,476.77,350.37,480.58L350.37,480.58z"/>
	<path class="st5" d="M496.43,442.71c-2.25,3.8-15.66,10.77-15.66,10.77s-0.37-15.11,1.88-18.92c2.25-3.81,7.16-5.07,10.97-2.82
		C497.42,434,498.68,438.9,496.43,442.71L496.43,442.71L496.43,442.71z"/>
	<path class="st5" d="M339.46,382.02c-3.65,6.19-25.44,17.5-25.44,17.5s-0.61-24.54,3-30.73c3.65-6.18,11.63-8.23,17.81-4.58
		c6.18,3.65,8.23,11.63,4.58,17.81l0,0H339.46z"/>
</g>
</svg>
