<?xml version="1.0" encoding="utf-8"?>
<!-- Generator: Adobe Illustrator 23.0.5, SVG Export Plug-In . SVG Version: 6.00 Build 0)  -->
<svg version="1.1" id="Слой_1" xmlns="http://www.w3.org/2000/svg" xmlns:xlink="http://www.w3.org/1999/xlink" x="0px" y="0px"
	 viewBox="0 0 100 100" style="enable-background:new 0 0 100 100;" xml:space="preserve">
<style type="text/css">
	.st0{display:none;}
	.st1{display:inline;}
	.st2{fill:#FFFF33;}
	.st3{fill:#EEEEEE;}
	.st4{display:inline;fill:none;stroke:#000000;stroke-width:0.5;stroke-miterlimit:10;}
	.st5{enable-background:new    ;}
	.st6{fill:#6633FF;}
	.st7{display:inline;fill:#6633FF;}
	.st8{display:inline;fill:#FFFF33;}
</style>
<g id="Слой_6" class="st0">
	<g class="st1">
		<rect x="10" y="14" class="st2" width="30" height="70"/>
		<rect x="60" y="14" class="st2" width="30" height="70"/>
	</g>
	<g id="Слой_4" class="st1">
		<rect x="10" y="14" class="st3" width="30" height="60"/>
	</g>
	<g id="Слой_3" class="st1">
	</g>
</g>
<g id="Слой_9" class="st0">
	<line class="st4" x1="25" y1="20" x2="25" y2="30"/>
	<line class="st4" x1="35" y1="30" x2="25" y2="30"/>
	<line class="st4" x1="5" y1="39" x2="5" y2="49"/>
	<line class="st4" x1="25" y1="49" x2="5" y2="49"/>
	<line class="st4" x1="43" y1="75" x2="23" y2="75"/>
	<line class="st4" x1="90" y1="36" x2="90" y2="46"/>
	<line class="st4" x1="90" y1="46" x2="67" y2="46"/>
	<line class="st4" x1="79" y1="10" x2="68" y2="10"/>
	<line class="st4" x1="68" y1="10.2" x2="54" y2="24"/>
</g>
<g id="Слой_10">
	<g class="st5">
		<path class="st2" d="M3.5,6.2h9.9v35H3.5V6.2z"/>
		<path class="st2" d="M44.7,7.7c2.3,1,4.1,2.5,5.4,4.5c1.3,2,1.9,4.2,1.9,6.9c0,2.6-0.6,4.9-1.9,6.8c-1.3,1.9-3.1,3.4-5.4,4.5
			c-2.3,1-5.1,1.6-8.2,1.6h-6.1v9.2h-9.9v-35h16C39.6,6.2,42.4,6.7,44.7,7.7z M40.4,22.9c1-0.9,1.5-2.1,1.5-3.8
			c0-1.6-0.5-2.9-1.5-3.8c-1-0.9-2.6-1.4-4.6-1.4h-5.5v10.2h5.5C37.9,24.2,39.4,23.8,40.4,22.9z"/>
	</g>
	<g class="st5">
		<path class="st6" d="M39.1,52.3c2.8,1.3,5,3.2,6.5,5.7s2.3,5.4,2.3,8.7c0,3.3-0.8,6.2-2.3,8.7c-1.5,2.5-3.7,4.5-6.5,5.8
			c-2.8,1.4-5.9,2.1-9.4,2.1c-7.2,0-12.7-2.5-16.5-7.4c-3.8-5-5.7-11.9-5.7-20.7c0-6.2,1-11.4,3-15.6c2-4.2,4.9-7.4,8.5-9.6
			c3.6-2.2,7.9-3.2,12.8-3.2c5.1,0,9.2,0.9,12.2,2.8l-1.2,2.2c-2.6-1.7-6.3-2.5-11-2.5c-6.7,0-11.9,2.2-15.8,6.6
			c-3.9,4.4-5.8,10.7-5.8,19c0,3,0.3,5.8,0.8,8.5c1-4.1,3.1-7.2,6.4-9.5c3.3-2.3,7.3-3.4,11.8-3.4C33,50.3,36.3,50.9,39.1,52.3z
			 M40.9,77c2.9-2.6,4.3-6,4.3-10.3c0-4.3-1.5-7.8-4.4-10.3c-2.9-2.6-6.8-3.8-11.8-3.8c-3.2,0-6,0.6-8.5,1.9s-4.4,3-5.8,5.2
			c-1.4,2.2-2.1,4.6-2.1,7.3c0,2.3,0.7,4.6,2,6.8c1.3,2.2,3.2,3.9,5.8,5.2c2.6,1.3,5.6,2,9.2,2C34.3,80.9,38,79.6,40.9,77z"/>
		<path class="st6" d="M85.9,55.1c3.7,2.8,5.5,6.8,5.5,12c0,3.1-0.7,5.9-2.2,8.3c-1.4,2.5-3.6,4.4-6.4,5.8
			c-2.9,1.4-6.3,2.1-10.4,2.1c-4.1,0-7.8-0.7-11.4-2.2c-3.5-1.4-6.2-3.3-8-5.6l1.5-1.9c1.7,2.1,4.1,3.9,7.3,5.2
			c3.2,1.3,6.7,2,10.6,2c5.3,0,9.3-1.3,12.1-3.8c2.8-2.5,4.2-5.8,4.2-9.9c0-4.5-1.6-8-4.8-10.3s-8.6-3.5-16.3-3.5H56.7l3-26.4h28.9
			v2.5H61.9l-2.4,21.4h8.6C76.3,50.9,82.3,52.3,85.9,55.1z"/>
	</g>
</g>
<g id="Слой_5" class="st0">
	<g class="st1">
		<g id="swap-horiz">
			<path class="st6" d="M36.1,45.8L25,56.9L36.1,68v-8.3h19.4v-5.6H36.1V45.8z M75,40.2L63.9,29.1v8.3H44.4V43h19.4v8.3L75,40.2z"/>
		</g>
	</g>
</g>
<g id="Слой_7" class="st0">
	<circle class="st7" cx="25" cy="15" r="5"/>
	<circle class="st7" cx="5" cy="34.7" r="5"/>
	<circle class="st7" cx="20" cy="75" r="5"/>
	<circle class="st7" cx="90" cy="31" r="5"/>
	<circle class="st7" cx="80" cy="10" r="5"/>
</g>
<g id="Слой_8" class="st0">
	<circle class="st8" cx="50" cy="50" r="30"/>
</g>
</svg>
