<?xml version="1.0"?>
<svg xmlns="http://www.w3.org/2000/svg" height="512px" viewBox="-60 0 512 512" width="512px"><path d="m138.582031 59.644531c-4.140625 0-7.5 3.355469-7.5 7.5v10.367188c0 4.140625 3.359375 7.5 7.5 7.5s7.5-3.359375 7.5-7.5v-10.367188c0-4.144531-3.359375-7.5-7.5-7.5zm0 0" fill="#666666"/><path d="m253.148438 59.644531c-4.140626 0-7.5 3.355469-7.5 7.5v10.367188c0 4.140625 3.359374 7.5 7.5 7.5 4.140624 0 7.5-3.359375 7.5-7.5v-10.367188c0-4.144531-3.359376-7.5-7.5-7.5zm0 0" fill="#666666"/><path d="m214.9375 71.140625c-3.117188-2.726563-7.855469-2.40625-10.582031.710937-2.050781 2.347657-5.144531 3.691407-8.492188 3.691407-3.34375 0-6.4375-1.34375-8.492187-3.691407-2.726563-3.117187-7.460938-3.4375-10.582032-.710937-3.117187 2.726563-3.4375 7.464844-.710937 10.585937 4.898437 5.601563 12.113281 8.816407 19.785156 8.816407 7.675781 0 14.886719-3.214844 19.785157-8.816407 2.726562-3.121093 2.410156-7.859374-.710938-10.585937zm0 0" fill="#666666"/><path d="m192.921875 189.925781h-104.84375c-4.140625 0-7.5 3.359375-7.5 7.5s3.359375 7.5 7.5 7.5h104.84375c4.140625 0 7.5-3.359375 7.5-7.5s-3.359375-7.5-7.5-7.5zm0 0" fill="#666666"/><path d="m310.324219 183.539062c-1.890625-3.6875-6.410157-5.140624-10.09375-3.25l-29.933594 15.347657 1.300781-7.371094c.722656-4.078125-2-7.96875-6.082031-8.691406-4.078125-.71875-7.96875 2.003906-8.6875 6.085937 0 0-3.921875 22.203125-3.925781 22.238282-1.050782 5.964843 5.394531 10.75 10.808594 7.976562l43.363281-22.238281c3.683593-1.894531 5.140625-6.414063 3.25-10.097657zm0 0" fill="#666666"/><path d="m192.921875 246.761719h-104.84375c-4.140625 0-7.5 3.355469-7.5 7.5 0 4.140625 3.359375 7.5 7.5 7.5h104.84375c4.140625 0 7.5-3.359375 7.5-7.5 0-4.144531-3.359375-7.5-7.5-7.5zm0 0" fill="#666666"/><path d="m310.324219 240.375c-1.890625-3.6875-6.410157-5.144531-10.09375-3.253906l-29.933594 15.351562 1.300781-7.371094c.722656-4.082031-2-7.96875-6.082031-8.691406-4.078125-.722656-7.96875 2.003906-8.6875 6.082032 0 0-3.917969 22.195312-3.925781 22.238281-1.054688 5.980469 5.398437 10.75 10.808594 7.980469l43.363281-22.238282c3.683593-1.894531 5.140625-6.414062 3.25-10.097656zm0 0" fill="#666666"/><path d="m192.921875 303.597656h-104.84375c-4.140625 0-7.5 3.355469-7.5 7.5 0 4.140625 3.359375 7.5 7.5 7.5h104.84375c4.140625 0 7.5-3.359375 7.5-7.5 0-4.144531-3.359375-7.5-7.5-7.5zm0 0" fill="#666666"/><path d="m310.324219 297.210938c-1.890625-3.6875-6.410157-5.144532-10.09375-3.253907l-29.933594 15.351563 1.300781-7.375c.722656-4.078125-2-7.96875-6.082031-8.6875-4.078125-.722656-7.96875 2.003906-8.6875 6.082031 0 0-3.914063 22.175781-3.925781 22.238281-1.050782 5.953125 5.398437 10.75 10.808594 7.976563l43.363281-22.238281c3.683593-1.890626 5.140625-6.410157 3.25-10.09375zm0 0" fill="#666666"/><path d="m192.921875 360.433594h-104.84375c-4.140625 0-7.5 3.355468-7.5 7.5 0 4.140625 3.359375 7.5 7.5 7.5h104.84375c4.140625 0 7.5-3.359375 7.5-7.5 0-4.144532-3.359375-7.5-7.5-7.5zm0 0" fill="#666666"/><path d="m265.515625 350.082031c-4.078125-.722656-7.96875 2.003907-8.6875 6.082031 0 0-3.917969 22.183594-3.925781 22.238282-1.054688 5.96875 5.402344 10.746094 10.808594 7.976562l43.363281-22.238281c3.683593-1.886719 5.140625-6.410156 3.25-10.09375-1.890625-3.6875-6.410157-5.144531-10.097657-3.25l-29.929687 15.347656 1.300781-7.371093c.722656-4.082032-2.003906-7.972657-6.082031-8.691407zm0 0" fill="#666666"/><path d="m202.089844 33.496094c0 3.441406-2.785156 6.226562-6.226563 6.226562-3.4375 0-6.222656-2.785156-6.222656-6.226562 0-3.4375 2.785156-6.222656 6.222656-6.222656 3.441407 0 6.226563 2.785156 6.226563 6.222656zm0 0" fill="#666666"/><path d="m391.730469 469.066406v-366.6875c0-23.675781-19.261719-42.933594-42.933594-42.933594h-37.644531v-9.460937c0-10.722656-8.722656-19.445313-19.445313-19.445313h-58.542969c-3.492187-17.394531-18.890624-30.539062-37.300781-30.539062-18.40625 0-33.804687 13.144531-37.296875 30.539062h-58.542968c-10.722657 0-19.445313 8.722657-19.445313 19.445313v9.457031h-37.644531c-23.671875 0-42.933594 19.261719-42.933594 42.933594v47.417969c0 4.140625 3.359375 7.5 7.5 7.5s7.5-3.359375 7.5-7.5v-47.417969c0-15.402344 12.53125-27.933594 27.933594-27.933594h37.644531v20.710938h-29.835937c-4.144532 0-7.5 3.359375-7.5 7.5v350.996094c0 4.140624 3.355468 7.5 7.5 7.5h290.25c4.140624 0 7.5-3.359376 7.5-7.5v-31.933594c0-4.140625-3.359376-7.5-7.5-7.5-4.144532 0-7.5 3.359375-7.5 7.5v24.433594h-275.25v-335.996094h23.84375c.003906.015625.011718.027344.015624.039062 3.007813 7.101563 10.210938 11.90625 17.921876 11.90625h191.683593c7.652344 0 14.96875-4.90625 17.941407-11.945312h23.84375v281.652344c0 4.140624 3.355468 7.5 7.5 7.5 4.140624 0 7.5-3.359376 7.5-7.5v-289.152344c0-4.140625-3.359376-7.5-7.5-7.5h-29.839844v-20.707032h37.644531c15.402344 0 27.933594 12.53125 27.933594 27.933594v366.6875c0 15.402344-12.53125 27.933594-27.933594 27.933594h-305.863281c-15.402344 0-27.933594-12.53125-27.933594-27.933594v-289.34375c0-4.144531-3.359375-7.5-7.5-7.5s-7.5 3.355469-7.5 7.5v289.34375c0 23.671875 19.261719 42.933594 42.933594 42.933594h305.863281c23.671875 0 42.933594-19.261719 42.933594-42.933594zm-291.707031-361.96875c-2.449219 0-4.445313-1.992187-4.445313-4.445312v-52.667969c0-2.449219 1.996094-4.445313 4.445313-4.445313h65.300781c4.144531 0 7.5-3.355468 7.5-7.5 0-12.703124 10.335937-23.039062 23.039062-23.039062 12.707031 0 23.042969 10.335938 23.042969 23.039062 0 4.140626 3.355469 7.5 7.5 7.5h65.300781c2.449219 0 4.445313 1.992188 4.445313 4.445313v52.667969c0 2.449218-1.996094 4.445312-4.445313 4.445312zm0 0" fill="#666666"/></svg>
