<?xml version="1.0" encoding="UTF-8"?>
<svg width="24px" height="24px" viewBox="0 0 24 24" version="1.1" xmlns="http://www.w3.org/2000/svg" xmlns:xlink="http://www.w3.org/1999/xlink">
    <!-- Generator: Sketch 54.1 (76490) - https://sketchapp.com -->
    <title>Icons / Internal / Door on #int</title>
    <desc>Created with Sketch.</desc>
    <g id="Icons-/-Internal-/-Door-on-#int" stroke="none" stroke-width="1" fill="none" fill-rule="evenodd">
        <g id="Door">
            <polygon id="Bounds" points="0 0 24 0 24 24 0 24"></polygon>
            <path d="M20.5365,10.2634922 L13.736543,3.4635 C13.4378203,3.1648125 13.0402734,3 12.6179766,3 L4.58203125,3 C3.70966406,3 3,3.70966406 3,4.58203125 L3,19.4179688 C3,20.2903359 3.70966406,21 4.58203125,21 L13.0546875,21 C13.2545156,21 13.4368008,20.8872187 13.5264141,20.7085195 C14.737125,18.286043 17.2071328,16.78125 19.915957,16.78125 L20.4726562,16.78125 C20.7641367,16.78125 21,16.5453867 21,16.2539062 L21,11.3820234 C21,10.9597266 20.8351875,10.5621797 20.5365,10.2634922 Z M9.328125,15.7265625 C9.328125,16.889918 8.38210547,17.8359375 7.21875,17.8359375 C6.05539453,17.8359375 5.109375,16.889918 5.109375,15.7265625 L5.109375,15.1992188 C5.109375,14.9077383 5.34523828,14.671875 5.63671875,14.671875 L8.80078125,14.671875 C9.09226172,14.671875 9.328125,14.9077383 9.328125,15.1992188 L9.328125,15.7265625 Z M18.3632812,12.5273438 L5.63671875,12.5273438 C5.34523828,12.5273438 5.109375,12.2914805 5.109375,12 L5.109375,5.63671875 C5.109375,5.34523828 5.34523828,5.109375 5.63671875,5.109375 L12.1807734,5.109375 C12.3208359,5.109375 12.4547461,5.16499219 12.5536055,5.26388672 L18.7361133,11.4463945 C19.0187344,11.7289805 18.9478594,12.5273438 18.3632812,12.5273438 Z" id="Shape" fill="#000000" fill-rule="nonzero"></path>
        </g>
    </g>
</svg>