<?xml version="1.0" encoding="UTF-8"?>
<svg width="24px" height="24px" viewBox="0 0 24 24" version="1.1" xmlns="http://www.w3.org/2000/svg" xmlns:xlink="http://www.w3.org/1999/xlink">
    <!-- Generator: Sketch 54.1 (76490) - https://sketchapp.com -->
    <title>Bounds</title>
    <desc>Created with Sketch.</desc>
    <g id="Bounds" stroke="none" stroke-width="1" fill="none" fill-rule="evenodd">
        <polygon points="0 0 24 0 24 24 0 24"></polygon>
        <path d="M20.2478788,7.23 L20.2581818,7.22 L16.4254545,3.5 L15.3333333,4.56 L17.5072727,6.67 C16.5387879,7.03 15.8484848,7.93 15.8484848,9 C15.8484848,10.38 17.0024242,11.5 18.4242424,11.5 C18.7951515,11.5 19.1351515,11.42 19.4545455,11.29 L19.4545455,18.5 C19.4545455,19.05 18.9909091,19.5 18.4242424,19.5 C17.8575758,19.5 17.3939394,19.05 17.3939394,18.5 L17.3939394,14 C17.3939394,12.9 16.4666667,12 15.3333333,12 L14.3030303,12 L14.3030303,5 C14.3030303,3.9 13.3757576,3 12.2424242,3 L6.06060606,3 C4.92727273,3 4,3.9 4,5 L4,21 L14.3030303,21 L14.3030303,13.5 L15.8484848,13.5 L15.8484848,18.5 C15.8484848,19.88 17.0024242,21 18.4242424,21 C19.8460606,21 21,19.88 21,18.5 L21,9 C21,8.31 20.7115152,7.68 20.2478788,7.23 L20.2478788,7.23 Z M12.2424242,10 L6.06060606,10 L6.06060606,5 L12.2424242,5 L12.2424242,10 L12.2424242,10 Z M18.4242424,10 C17.8575758,10 17.3939394,9.55 17.3939394,9 C17.3939394,8.45 17.8575758,8 18.4242424,8 C18.9909091,8 19.4545455,8.45 19.4545455,9 C19.4545455,9.55 18.9909091,10 18.4242424,10 L18.4242424,10 Z" id="Icon" fill="#000000"></path>
    </g>
</svg>