<?xml version="1.0" encoding="UTF-8"?>
<svg width="24px" height="24px" viewBox="0 0 24 24" version="1.1" xmlns="http://www.w3.org/2000/svg" xmlns:xlink="http://www.w3.org/1999/xlink">
    <!-- Generator: Sketch 54.1 (76490) - https://sketchapp.com -->
    <title>hood</title>
    <desc>Created with Sketch.</desc>
    <g id="hood" stroke="none" stroke-width="1" fill="none" fill-rule="evenodd">
        <polygon id="Bounds" points="0 0 24 0 24 24 0 24"></polygon>
        <path d="M18.9775785,18 C18.9924187,17.835319 19,17.6685448 19,17.5 C19,14.4624339 16.5375661,12 13.5,12 C10.4624339,12 8,14.4624339 8,17.5 C8,17.6685448 8.00758131,17.835319 8.02242151,18 L5.27200187,18 C3.63696326,18 2.31150257,16.6745393 2.31150257,15.0395007 C2.31150257,14.6845015 2.37535144,14.3323962 2.5,14 L3.41449573,11.5613447 C3.7785989,10.5904029 4.61830574,9.87633885 5.63513485,9.67297303 L13.1103111,8.17793778 C13.695998,8.06080039 14.2480179,7.81398657 14.7258466,7.45561508 L20.4,3.2 C20.8418278,2.86862915 21.4686292,2.9581722 21.8,3.4 C21.9298221,3.57309617 22,3.78362979 22,4 L22,17 C22,17.5522848 21.5522848,18 21,18 L18.9775785,18 Z" id="Combined-Shape" fill="#000000"></path>
        <circle id="Oval" fill="#000000" cx="13.5" cy="17.5" r="3.5"></circle>
    </g>
</svg>