<?xml version="1.0" encoding="UTF-8"?>
<svg width="24px" height="24px" viewBox="0 0 24 24" version="1.1" xmlns="http://www.w3.org/2000/svg" xmlns:xlink="http://www.w3.org/1999/xlink">
    <!-- Generator: Sketch 54.1 (76490) - https://sketchapp.com -->
    <title>hood</title>
    <desc>Created with Sketch.</desc>
    <g id="hood" stroke="none" stroke-width="1" fill="none" fill-rule="evenodd">
        <g id="Trunk">
            <polygon id="Bounds" points="0 0 24 0 24 24 0 24"></polygon>
            <path d="M13.290869,18.0687563 C12.8870711,20.2751339 10.9546106,21.9473684 8.63157889,21.9473684 C6.33439753,21.9473684 4.41914337,20.3121437 3.98633531,18.1422131 L3.00789444,18.1499377 C2.4556269,18.1542977 2.00439112,17.7101308 2.00003111,17.1578633 C2.00001034,17.1552319 1.99999995,17.1526003 1.99999995,17.1499688 L1.99999995,3.99999998 C1.99999995,3.44771523 2.4477152,2.99999998 2.99999995,2.99999998 C3.64529796,2.99999998 4.26930977,3.23083697 4.75925655,3.65079135 L10.5889022,8.64763048 C10.8581217,8.87839006 11.1838505,9.03342735 11.5327141,9.09685709 L20.3577708,10.7014129 C21.3087522,10.8743186 21.9999999,11.7025804 21.9999999,12.6691527 L21.9999999,16.0157271 C21.9999999,17.1141356 21.1141632,18.0069934 20.0157889,18.0156648 L13.290869,18.0687563 Z M8.63157889,20.0526316 C10.2012303,20.0526316 11.4736842,18.7801777 11.4736842,17.2105263 C11.4736842,15.6408749 10.2012303,14.368421 8.63157889,14.368421 C7.0619275,14.368421 5.78947363,15.6408749 5.78947363,17.2105263 C5.78947363,18.7801777 7.0619275,20.0526316 8.63157889,20.0526316 Z" id="Combined-Shape" fill="#000000" transform="translate(12.000000, 12.473684) scale(-1, 1) translate(-12.000000, -12.473684) "></path>
        </g>
        <path d="M5,5 L16,5 L16,6 C16,6.55228475 15.5522847,7 15,7 L5,7 C4.44771525,7 4,6.55228475 4,6 L4,6 C4,5.44771525 4.44771525,5 5,5 Z" id="Rectangle" fill="#000000" transform="translate(10.000000, 6.000000) rotate(30.000000) translate(-10.000000, -6.000000) "></path>
    </g>
</svg>