<?xml version="1.0" encoding="UTF-8"?>
<svg width="24px" height="24px" viewBox="0 0 24 24" version="1.1" xmlns="http://www.w3.org/2000/svg" xmlns:xlink="http://www.w3.org/1999/xlink">
    <!-- Generator: Sketch 54.1 (76490) - https://sketchapp.com -->
    <title>Bounds</title>
    <desc>Created with Sketch.</desc>
    <g id="Bounds" stroke="none" stroke-width="1" fill="none" fill-rule="evenodd">
        <polygon points="0 0 24 0 24 24 0 24"></polygon>
        <g id="key" transform="translate(2.000000, 2.000000)" fill="#000000" fill-rule="nonzero">
            <path d="M10.2333333,11.5583198 L7.61869919,8.93501355 C7.4495935,8.76688347 7.17642276,8.76688347 7.00731707,8.93501355 L5.45067751,10.4916531 C5.28254743,10.6607588 5.28254743,10.9339295 5.45067751,11.1030352 L5.71517615,11.3675339 L0.173712737,16.9133333 C0.0946341463,16.9930081 0.0495934959,17.100271 0.0479674797,17.2125203 L0.00460704607,19.5149593 C0.00460704607,19.7544173 0.198753388,19.9485637 0.438211382,19.9485637 L2.25934959,19.9485637 C2.37457995,19.9492141 2.48536585,19.9039566 2.56720867,19.8228184 L3.59051491,18.7995122 C3.66856369,18.7209214 3.71355014,18.615393 3.71626016,18.5046612 L3.74227642,17.576748 L4.48373984,17.6678049 C4.61669377,17.6836856 4.7495393,17.63729 4.84363144,17.5420596 L5.4897019,16.9133333 C5.56102981,16.842439 5.60547425,16.7488889 5.61544715,16.6488347 L5.69783198,15.781626 L6.75582656,15.5474797 C6.92699187,15.5099187 7.05875339,15.3730623 7.0897019,15.2005962 L7.30216802,14.0255285 L8.43821138,13.8477507 C8.52850949,13.8334417 8.61197832,13.7909485 8.67669377,13.7263415 L10.2333333,12.1697019 C10.4014634,12.000542 10.4014634,11.7274255 10.2333333,11.5583198 Z" id="Path"></path>
            <path d="M18.4111111,4.10899729 L18.4111111,4.10899729 L15.0593496,0.761571816 C14.2825474,-0.149647696 12.9141463,-0.258590786 12.002981,0.518211382 C11.9155556,0.592737127 11.8341463,0.674146341 11.7596206,0.761571816 L6.74281843,5.77837398 C6.3902981,6.1403252 6.3902981,6.71723577 6.74281843,7.07918699 L12.0761518,12.4125203 C12.438103,12.7650407 13.0150136,12.7650407 13.3769648,12.4125203 L18.4111111,7.40872629 C19.4430894,6.37674797 19.4430894,5.14531165 18.4111111,4.10899729 Z M16.5404878,6.25279133 C16.5382114,6.25512195 16.535935,6.25739837 16.5336043,6.2596748 L16.5379404,6.27701897 C16.3688347,6.44514905 16.095664,6.44514905 15.9265583,6.27701897 L12.9130081,3.26346883 C12.7311111,3.10769648 12.7099187,2.83398374 12.8656911,2.65208672 C13.0214634,2.4701897 13.2951762,2.44899729 13.4770732,2.60476965 C13.4940379,2.61929539 13.5098645,2.63512195 13.5243902,2.65208672 L16.5336043,5.6396206 C16.7048238,5.80704607 16.7079133,6.08157182 16.5404878,6.25279133 Z" id="Shape"></path>
        </g>
    </g>
</svg>