<?xml version="1.0" encoding="UTF-8"?>
<svg width="24px" height="24px" viewBox="0 0 24 24" version="1.1" xmlns="http://www.w3.org/2000/svg" xmlns:xlink="http://www.w3.org/1999/xlink">
    <!-- Generator: Sketch 54.1 (76490) - https://sketchapp.com -->
    <title>light</title>
    <desc>Created with Sketch.</desc>
    <g id="light" stroke="none" stroke-width="1" fill="none" fill-rule="evenodd">
        <polygon id="Bounds" points="0 0 24 0 24 24 0 24"></polygon>
        <path d="M18.2772746,8.13863883 C18.2772746,9.79504908 17.6208643,11.2976132 16.5541977,12.4001773 C15.7439413,13.2412029 15.2208643,14.3129978 15.0465054,15.4565875 C14.9695823,15.9488952 14.5439413,16.3129978 14.0413772,16.3129978 L10.2311208,16.3129978 C9.73368486,16.3129978 9.30291563,15.9540234 9.23112075,15.4617157 C9.05163358,14.318126 8.52342845,13.2309465 7.71317204,12.3950491 C6.66701819,11.3078696 6.01573614,9.83094652 6.00035152,8.20530549 C5.96445409,4.78992088 8.68240281,2.02581831 12.0977874,2.00017729 C15.5080438,1.97453626 18.2772746,4.73351062 18.2772746,8.13863883 Z M14.9798387,17.9540234 L14.9798387,18.6822286 C14.9798387,19.2617157 14.5541977,19.743767 14.0003515,19.8258183 L13.8208643,20.4873568 C13.7234284,20.8463311 13.4003515,21.0976132 13.0259925,21.0976132 L11.2465054,21.0976132 C10.8721464,21.0976132 10.5490695,20.8463311 10.4516336,20.4873568 L10.2772746,19.8258183 C9.71830024,19.7386388 9.29265922,19.2617157 9.29265922,18.6771004 L9.29265922,17.9488952 C9.29265922,17.5591516 9.60547973,17.2463311 9.99522332,17.2463311 L14.2772746,17.2463311 C14.6670182,17.2514593 14.9798387,17.5642799 14.9798387,17.9540234 Z M12.8311208,4.42069011 C12.8311208,4.04120293 12.5234284,3.72838242 12.1388131,3.72838242 C9.69778742,3.72838242 7.70804383,5.7129978 7.70804383,8.15915165 C7.70804383,8.53863883 8.01573614,8.85145934 8.40035152,8.85145934 C8.7798387,8.85145934 9.09265922,8.54376703 9.09265922,8.15915165 C9.09265922,6.47710037 10.46189,5.1129978 12.1388131,5.1129978 C12.5234284,5.1129978 12.8311208,4.80530549 12.8311208,4.42069011 Z" id="Combined-Shape" fill="#000000" fill-rule="nonzero"></path>
    </g>
</svg>
