<?xml version="1.0" encoding="UTF-8"?>
<svg width="24px" height="24px" viewBox="0 0 24 24" version="1.1" xmlns="http://www.w3.org/2000/svg" xmlns:xlink="http://www.w3.org/1999/xlink">
    <!-- Generator: Sketch 54.1 (76490) - https://sketchapp.com -->
    <title>parking</title>
    <desc>Created with Sketch.</desc>
    <g id="parking" stroke="none" stroke-width="1" fill="none" fill-rule="evenodd">
        <polygon id="Bounds" points="0 0 24 0 24 24 0 24"></polygon>
        <path d="M5,2 L19,2 C20.6568542,2 22,3.34314575 22,5 L22,19 C22,20.6568542 20.6568542,22 19,22 L5,22 C3.34314575,22 2,20.6568542 2,19 L2,5 C2,3.34314575 3.34314575,2 5,2 Z M12.9444444,5 L7.5,5 L7.5,19 L10.6111111,19 L10.6111111,14.3333333 L12.9444444,14.3333333 C15.5188889,14.3333333 17.6111111,12.2411111 17.6111111,9.66666667 C17.6111111,7.09222222 15.5188889,5 12.9444444,5 Z M13.1,11.2222222 L10.6111111,11.2222222 L10.6111111,8.11111111 L13.1,8.11111111 C13.9555556,8.11111111 14.6555556,8.81111111 14.6555556,9.66666667 C14.6555556,10.5222222 13.9555556,11.2222222 13.1,11.2222222 Z" id="Combined-Shape" fill="#000000"></path>
    </g>
</svg>