<?xml version="1.0" encoding="UTF-8"?>
<svg width="24px" height="24px" viewBox="0 0 24 24" version="1.1" xmlns="http://www.w3.org/2000/svg" xmlns:xlink="http://www.w3.org/1999/xlink">
    <!-- Generator: Sketch 54.1 (76490) - https://sketchapp.com -->
    <title>ic_network_check</title>
    <desc>Created with Sketch.</desc>
    <g id="ic_network_check" stroke="none" stroke-width="1" fill="none" fill-rule="evenodd">
        <g>
            <polygon id="Bounds" points="0 0 24 0 24 24 0 24"></polygon>
            <path d="M15.9,5 C15.73,5 15.58,5.09 15.49,5.23 L15.42,5.38 L10.24,17.03 C10.08,17.32 9.98,17.64 9.98,17.99 C9.98,19.1 10.88,20 11.99,20 C12.95,20 13.76,19.32 13.95,18.41 L13.96,18.38 L16.4,5.5 C16.4,5.22 16.18,5 15.9,5 L15.9,5 Z M1,9 L3,11 C5.88,8.12 9.79,6.92 13.53,7.38 L14.72,4.7 C9.89,3.84 4.74,5.27 1,9 L1,9 Z M21,11 L23,9 C21.36,7.36 19.45,6.18 17.41,5.43 L16.88,8.25 C18.38,8.87 19.78,9.78 21,11 L21,11 Z" id="Icon" fill="#000000"></path>
        </g>
    </g>
</svg>