<?xml version="1.0" encoding="UTF-8"?>
<svg width="24px" height="24px" viewBox="0 0 24 24" version="1.1" xmlns="http://www.w3.org/2000/svg" xmlns:xlink="http://www.w3.org/1999/xlink">
    <!-- Generator: Sketch 54.1 (76490) - https://sketchapp.com -->
    <title>speed</title>
    <desc>Created with Sketch.</desc>
    <g id="speed" stroke="none" stroke-width="1" fill="none" fill-rule="evenodd">
        <polygon id="Bounds" points="0 0 24 0 24 24 0 24"></polygon>
        <path d="M12.9669915,14.0934339 C12.6541315,14.032128 12.3308177,14 12,14 C9.23857625,14 7,16.2385763 7,19 C7,19.3424658 7.03443026,19.6768901 7.10001812,20 L0.378052456,20 C0.131259009,19.0411402 0,18.0358987 0,17 C0,10.372583 5.372583,5 12,5 C18.627417,5 24,10.372583 24,17 C24,18.0358987 23.868741,19.0411402 23.6219475,20 L16.8999819,20 C16.9655697,19.6768901 17,19.3424658 17,19 C17,17.6746708 16.484352,16.4697777 15.6427358,15.5750002 L18.2995902,10.0356274 C18.5435913,9.52690062 18.3546507,8.91608252 17.8660254,8.6339746 C17.3780588,8.35224694 16.7553329,8.49551199 16.4395372,8.96215419 L12.9669915,14.0934339 Z" id="Combined-Shape" fill="#000000"></path>
        <circle id="Oval" fill="#000000" cx="12" cy="19" r="2"></circle>
    </g>
</svg>