<?xml version="1.0" encoding="UTF-8"?>
<svg width="24px" height="24px" viewBox="0 0 24 24" version="1.1" xmlns="http://www.w3.org/2000/svg" xmlns:xlink="http://www.w3.org/1999/xlink">
    <!-- Generator: Sketch 54.1 (76490) - https://sketchapp.com -->
    <title>trunk</title>
    <desc>Created with Sketch.</desc>
    <g id="trunk" stroke="none" stroke-width="1" fill="none" fill-rule="evenodd">
        <polygon id="Bounds" points="0 0 24 0 24 24 0 24"></polygon>
        <path d="M15.9775785,18 C15.9924187,17.835319 16,17.6685448 16,17.5 C16,14.4624339 13.5375661,12 10.5,12 C7.46243388,12 5,14.4624339 5,17.5 C5,17.6685448 5.00758131,17.835319 5.02242151,18 L3,18 C2.44771525,18 2,17.5522847 2,17 L2,4.10498756 C2,4.0717578 2.00165632,4.03854869 2.00496281,4.00548384 C2.0599172,3.45593998 2.54995985,3.05499599 3.09950372,3.10995037 L7,3.5 C10.2831542,3.82831542 13.4356268,4.95708452 16.181001,6.78733399 L20.4756239,9.65041594 C20.7960458,9.86403055 20.9653345,10.2426588 20.9108732,10.6238876 L20.2852745,15.0030783 C20.112776,16.210568 19.226363,17.1934092 18.0430329,17.4892418 L16,18 L15.9775785,18 Z M5.14142136,5.16306019 C5.09457807,5.1563683 5.04731887,5.15300969 5,5.15300969 C4.44771525,5.15300969 4,5.60072494 4,6.15300969 L4,7.89501244 C4,7.9282422 4.00165632,7.96145131 4.00496281,7.99451616 C4.0599172,8.54406002 4.54995985,8.94500401 5.09950372,8.89004963 L12.2061712,8.17938288 C12.3983801,8.16016199 12.5718791,8.05587101 12.6790292,7.89514585 C12.8767793,7.59852061 12.7966252,7.19775016 12.5,7 C11.512542,6.34169467 10.3901923,5.91288461 9.21534317,5.74504902 L5.14142136,5.16306019 Z" id="Combined-Shape" fill="#000000"></path>
        <circle id="Oval" fill="#000000" cx="10.5" cy="17.5" r="3.5"></circle>
    </g>
</svg>