<?xml version="1.0" encoding="UTF-8"?>
<svg width="24px" height="24px" viewBox="0 0 24 24" version="1.1" xmlns="http://www.w3.org/2000/svg" xmlns:xlink="http://www.w3.org/1999/xlink">
    <!-- Generator: Sketch 54.1 (76490) - https://sketchapp.com -->
    <title>Icons / Internal / Trunk off #int</title>
    <desc>Created with Sketch.</desc>
    <g id="Icons-/-Internal-/-Trunk-off-#int" stroke="none" stroke-width="1" fill="none" fill-rule="evenodd">
        <g id="Trunk">
            <polygon id="Bounds" points="0 0 24 0 24 24 0 24"></polygon>
            <path d="M15.273667,18.1578947 C14.8347793,20.3200171 12.9232233,21.9473684 10.6315789,21.9473684 C8.33993461,21.9473684 6.42837853,20.3200171 5.98949084,18.1578947 L3.99999997,18.1578947 C3.44771522,18.1578947 2.99999997,17.7101795 2.99999997,17.1578947 L2.99999997,4 C2.99999997,3.44771525 3.44771522,3 3.99999997,3 L7.645898,3 C9.70151328,3 11.5807009,4.16140181 12.5,6 L13.6423422,8.28468455 C13.763821,8.52764206 13.9322719,8.74095997 14.1355084,8.91380344 L14.8814806,8.16912296 C15.6314259,7.42047631 16.6477908,7 17.7074557,7 L18.8947368,7 C19.4179539,7 19.8421052,7.42415129 19.8421052,7.94736842 C19.8421052,8.47058555 19.4179539,8.89473684 18.8947368,8.89473684 L17.6519404,8.89473684 C17.1215074,8.89473684 16.6127996,9.10545052 16.2377268,9.48052328 L15.9973882,9.72086191 L19.6789413,11.0495427 C20.4716787,11.3356434 21,12.0879912 21,12.930776 L21,16.1578947 C21,17.2624642 20.1045695,18.1578947 19,18.1578947 L15.273667,18.1578947 Z M10.6315789,20.0526316 C12.2012303,20.0526316 13.4736842,18.7801777 13.4736842,17.2105263 C13.4736842,15.6408749 12.2012303,14.368421 10.6315789,14.368421 C9.06192754,14.368421 7.78947368,15.6408749 7.78947368,17.2105263 C7.78947368,18.7801777 9.06192754,20.0526316 10.6315789,20.0526316 Z" id="Combined-Shape" fill="#000000"></path>
        </g>
    </g>
</svg>